%TF.GenerationSoftware,Altium Limited,Altium Designer,21.9.2 (33)*%
G04 Layer_Color=255*
%FSLAX45Y45*%
%MOMM*%
%TF.SameCoordinates,9F934031-F859-43C4-9D29-15814C5376A4*%
%TF.FilePolarity,Positive*%
%TF.FileFunction,Pads,Bot*%
%TF.Part,Single*%
G01*
G75*
%TA.AperFunction,WasherPad*%
%ADD45C,1.15200*%
%TA.AperFunction,ComponentPad*%
%ADD46R,1.65000X1.65000*%
%ADD47C,1.65000*%
%ADD48C,2.20000*%
%ADD49C,0.65000*%
%ADD50O,2.10000X1.05000*%
%ADD51O,1.80000X1.00000*%
%ADD52C,2.00000*%
%ADD53C,1.50000*%
%TA.AperFunction,WasherPad*%
%ADD54C,3.20000*%
D45*
X-7760000Y-5640000D02*
D03*
X1590000Y1450000D02*
D03*
D46*
X-616000Y-3130000D02*
D03*
X-3430000Y1461000D02*
D03*
X-1926000Y-3130000D02*
D03*
X-4938000Y-2389000D02*
D03*
Y1461000D02*
D03*
D47*
X-1124000Y-3130000D02*
D03*
X-870000D02*
D03*
X-3176000Y1461000D02*
D03*
X-2922000D02*
D03*
X-2434000Y-3130000D02*
D03*
X-2180000D02*
D03*
X-4684000Y-2389000D02*
D03*
X-4430000D02*
D03*
X-4684000Y1461000D02*
D03*
X-4430000D02*
D03*
D48*
X993000Y2631000D02*
D03*
X1374000D02*
D03*
X63000D02*
D03*
X444000D02*
D03*
X-867000D02*
D03*
X-486000D02*
D03*
X-3658000D02*
D03*
X-3277000D02*
D03*
X-4588000D02*
D03*
X-4207000D02*
D03*
X-1797000D02*
D03*
X-1416000D02*
D03*
X-2727000D02*
D03*
X-2346000D02*
D03*
X-5518000D02*
D03*
X-5137000D02*
D03*
X-6068000D02*
D03*
X-6449000D02*
D03*
X-6998000D02*
D03*
X-7379000D02*
D03*
X522000Y-690000D02*
D03*
Y-309000D02*
D03*
Y-1621000D02*
D03*
Y-1240000D02*
D03*
X-1251000Y-4569000D02*
D03*
X-870000D02*
D03*
X-489000D02*
D03*
X-2560000D02*
D03*
X-2179000D02*
D03*
X-1798000D02*
D03*
X-5598000D02*
D03*
X-5979000D02*
D03*
X1371000D02*
D03*
X990000D02*
D03*
X441497D02*
D03*
X60497D02*
D03*
X-4800000D02*
D03*
X-4419000D02*
D03*
X-4038000D02*
D03*
X-3108503D02*
D03*
X-3489503D02*
D03*
D49*
X-7821800Y1766500D02*
D03*
Y1188500D02*
D03*
D50*
X-7771800Y1045500D02*
D03*
Y1909500D02*
D03*
D51*
X-8189800Y1045500D02*
D03*
Y1909500D02*
D03*
D52*
X-6014000Y-2299000D02*
D03*
X-5760000D02*
D03*
X-5506000D02*
D03*
D53*
X-6658000Y-1929000D02*
D03*
X-8198000D02*
D03*
X-7178000Y-4869000D02*
D03*
X-7678000D02*
D03*
D54*
X1412000Y-5459000D02*
D03*
Y3521000D02*
D03*
X-8168000D02*
D03*
Y-5459000D02*
D03*
%TF.MD5,3293d73970914fb0423388a45254cef4*%
M02*
