%TF.GenerationSoftware,Altium Limited,Altium Designer,21.9.2 (33)*%
G04 Layer_Color=16711935*
%FSLAX45Y45*%
%MOMM*%
%TF.SameCoordinates,9F934031-F859-43C4-9D29-15814C5376A4*%
%TF.FilePolarity,Negative*%
%TF.FileFunction,Soldermask,Bot*%
%TF.Part,Single*%
G01*
G75*
%TA.AperFunction,WasherPad*%
%ADD58C,1.35520*%
%TA.AperFunction,ComponentPad*%
%ADD59R,1.85320X1.85320*%
%ADD60C,1.85320*%
%ADD61C,2.40320*%
%ADD62C,0.85320*%
%ADD63O,2.30320X1.25320*%
%ADD64O,2.00320X1.20320*%
%ADD65C,2.20320*%
%ADD66C,1.70320*%
%TA.AperFunction,WasherPad*%
%ADD67C,3.40320*%
%TA.AperFunction,ViaPad*%
%ADD68C,0.80320*%
D58*
X-7760000Y-5640000D02*
D03*
X1590000Y1450000D02*
D03*
D59*
X-616000Y-3130000D02*
D03*
X-3430000Y1461000D02*
D03*
X-1926000Y-3130000D02*
D03*
X-4938000Y-2389000D02*
D03*
Y1461000D02*
D03*
D60*
X-1124000Y-3130000D02*
D03*
X-870000D02*
D03*
X-3176000Y1461000D02*
D03*
X-2922000D02*
D03*
X-2434000Y-3130000D02*
D03*
X-2180000D02*
D03*
X-4684000Y-2389000D02*
D03*
X-4430000D02*
D03*
X-4684000Y1461000D02*
D03*
X-4430000D02*
D03*
D61*
X993000Y2631000D02*
D03*
X1374000D02*
D03*
X63000D02*
D03*
X444000D02*
D03*
X-867000D02*
D03*
X-486000D02*
D03*
X-3658000D02*
D03*
X-3277000D02*
D03*
X-4588000D02*
D03*
X-4207000D02*
D03*
X-1797000D02*
D03*
X-1416000D02*
D03*
X-2727000D02*
D03*
X-2346000D02*
D03*
X-5518000D02*
D03*
X-5137000D02*
D03*
X-6068000D02*
D03*
X-6449000D02*
D03*
X-6998000D02*
D03*
X-7379000D02*
D03*
X522000Y-690000D02*
D03*
Y-309000D02*
D03*
Y-1621000D02*
D03*
Y-1240000D02*
D03*
X-1251000Y-4569000D02*
D03*
X-870000D02*
D03*
X-489000D02*
D03*
X-2560000D02*
D03*
X-2179000D02*
D03*
X-1798000D02*
D03*
X-5598000D02*
D03*
X-5979000D02*
D03*
X1371000D02*
D03*
X990000D02*
D03*
X441497D02*
D03*
X60497D02*
D03*
X-4800000D02*
D03*
X-4419000D02*
D03*
X-4038000D02*
D03*
X-3108503D02*
D03*
X-3489503D02*
D03*
D62*
X-7821800Y1766500D02*
D03*
Y1188500D02*
D03*
D63*
X-7771800Y1045500D02*
D03*
Y1909500D02*
D03*
D64*
X-8189800Y1045500D02*
D03*
Y1909500D02*
D03*
D65*
X-6014000Y-2299000D02*
D03*
X-5760000D02*
D03*
X-5506000D02*
D03*
D66*
X-6658000Y-1929000D02*
D03*
X-8198000D02*
D03*
X-7178000Y-4869000D02*
D03*
X-7678000D02*
D03*
D67*
X1412000Y-5459000D02*
D03*
Y3521000D02*
D03*
X-8168000D02*
D03*
Y-5459000D02*
D03*
D68*
X-774000Y-559000D02*
D03*
X-614000Y-759000D02*
D03*
X-774000D02*
D03*
X-614000Y-559000D02*
D03*
X-694000Y-659000D02*
D03*
%TF.MD5,29ee783a90502a270118449de1071bb6*%
M02*
