%TF.GenerationSoftware,Altium Limited,Altium Designer,21.9.2 (33)*%
G04 Layer_Color=255*
%FSLAX45Y45*%
%MOMM*%
%TF.SameCoordinates,9F934031-F859-43C4-9D29-15814C5376A4*%
%TF.FilePolarity,Positive*%
%TF.FileFunction,Pads,Top*%
%TF.Part,Single*%
G01*
G75*
%TA.AperFunction,SMDPad,CuDef*%
%ADD10R,0.95000X1.00000*%
%ADD11R,0.30000X1.40000*%
%ADD12R,1.00000X0.50000*%
%ADD13R,0.60000X0.90000*%
%ADD14R,1.55000X0.65000*%
%ADD15R,0.85000X0.95000*%
%ADD16R,0.90000X0.60000*%
%ADD17R,1.85497X1.36393*%
%ADD18R,0.75000X1.00000*%
%ADD19R,1.05000X0.60000*%
%ADD20R,0.60000X1.05000*%
%ADD21R,1.00000X0.95000*%
%ADD22R,1.77500X0.70000*%
%ADD23R,1.15000X0.30000*%
%ADD24R,1.15000X0.60000*%
%TA.AperFunction,BGAPad,CuDef*%
%ADD25R,1.33000X1.33000*%
%TA.AperFunction,ConnectorPad*%
%ADD26R,0.90000X2.00000*%
%TA.AperFunction,SMDPad,CuDef*%
%ADD27R,3.35000X1.25000*%
%ADD28R,2.40000X3.10000*%
%ADD29R,1.52500X0.65000*%
%ADD30R,1.35000X0.95000*%
%ADD31R,0.65000X1.50000*%
%ADD32R,0.95000X0.85000*%
%ADD33R,1.78000X3.15000*%
%ADD34R,0.50000X1.00000*%
%ADD35R,0.95000X1.35000*%
%TA.AperFunction,WasherPad*%
%ADD45C,1.15200*%
%TA.AperFunction,ComponentPad*%
%ADD46R,1.65000X1.65000*%
%ADD47C,1.65000*%
%ADD48C,2.20000*%
%ADD49C,0.65000*%
%ADD50O,2.10000X1.05000*%
%ADD51O,1.80000X1.00000*%
%ADD52C,2.00000*%
%ADD53C,1.50000*%
%TA.AperFunction,WasherPad*%
%ADD54C,3.20000*%
D10*
X-3878000Y1061000D02*
D03*
X-4038000D02*
D03*
X-7458000Y-1359000D02*
D03*
X-7298000D02*
D03*
X-7608000Y-1360400D02*
D03*
X-7768000D02*
D03*
D11*
X-3830000Y1241000D02*
D03*
X-3880000D02*
D03*
X-3930000D02*
D03*
X-3980000D02*
D03*
X-4030000D02*
D03*
Y1681000D02*
D03*
X-3980000D02*
D03*
X-3930000D02*
D03*
X-3880000D02*
D03*
X-3830000D02*
D03*
X-3760000Y-2529000D02*
D03*
X-3710000D02*
D03*
X-3660000D02*
D03*
X-3610000D02*
D03*
X-3560000D02*
D03*
Y-2089000D02*
D03*
X-3610000D02*
D03*
X-3660000D02*
D03*
X-3710000D02*
D03*
X-3760000D02*
D03*
D12*
X-3560000Y2211000D02*
D03*
X-3800000D02*
D03*
Y1981000D02*
D03*
X-3560000D02*
D03*
X-4310000Y2211000D02*
D03*
X-4070000D02*
D03*
Y1981000D02*
D03*
X-4310000D02*
D03*
D13*
X-3280000Y2211000D02*
D03*
X-3130000D02*
D03*
X-2570000D02*
D03*
X-2720000D02*
D03*
Y2071000D02*
D03*
X-2570000D02*
D03*
X-1788000Y1861000D02*
D03*
X-1938000D02*
D03*
X72000D02*
D03*
X-78000D02*
D03*
X-4740000Y2071000D02*
D03*
X-4590000D02*
D03*
Y2211000D02*
D03*
X-4740000D02*
D03*
X-5140000D02*
D03*
X-5290000D02*
D03*
X-8198000Y2701000D02*
D03*
X-8348000D02*
D03*
X1095000Y-2649000D02*
D03*
X1245000D02*
D03*
X1255000Y-3789000D02*
D03*
X1105000D02*
D03*
X-2863000Y-3409000D02*
D03*
X-3013000D02*
D03*
X-3953000D02*
D03*
X-4103000D02*
D03*
X-3525000Y-3579000D02*
D03*
X-3675000D02*
D03*
X-3493000Y-4119000D02*
D03*
X-3343000D02*
D03*
X-4605000Y-3579000D02*
D03*
X-4755000D02*
D03*
X-4423000Y-4119000D02*
D03*
X-4573000D02*
D03*
X-5895000Y-2859000D02*
D03*
X-6045000D02*
D03*
X-7478000Y-1509000D02*
D03*
X-7328000D02*
D03*
D14*
X-1283000Y2037500D02*
D03*
Y2164500D02*
D03*
X-1933000D02*
D03*
Y2037500D02*
D03*
X577000D02*
D03*
Y2164500D02*
D03*
X-73001D02*
D03*
Y2037500D02*
D03*
D15*
X-1238000Y1861000D02*
D03*
X-1398000D02*
D03*
X462000D02*
D03*
X622000D02*
D03*
X-8358000Y2841000D02*
D03*
X-8198000D02*
D03*
X-5890000Y-2999000D02*
D03*
X-6050000D02*
D03*
D16*
X-1098000Y2116000D02*
D03*
Y1966000D02*
D03*
X762000Y2106000D02*
D03*
Y1956000D02*
D03*
X-6070000Y981000D02*
D03*
Y831000D02*
D03*
X-5927000Y981000D02*
D03*
Y831000D02*
D03*
X-6217000Y981000D02*
D03*
Y831000D02*
D03*
X1250000Y-3659000D02*
D03*
Y-3509000D02*
D03*
X1110000Y-3659000D02*
D03*
Y-3509000D02*
D03*
X-880000Y-3484000D02*
D03*
Y-3634000D02*
D03*
X-2190000Y-3474000D02*
D03*
Y-3624000D02*
D03*
X-2858000Y-3269000D02*
D03*
Y-3119000D02*
D03*
X-3018001D02*
D03*
Y-3269000D02*
D03*
X-3948000Y-3264000D02*
D03*
Y-3114000D02*
D03*
X-4108000Y-3114000D02*
D03*
Y-3264000D02*
D03*
D17*
X-908000Y1902343D02*
D03*
Y2181448D02*
D03*
X-668000Y1902343D02*
D03*
Y2181448D02*
D03*
X-428000Y1901895D02*
D03*
Y2181000D02*
D03*
X952000Y1901447D02*
D03*
Y2180552D02*
D03*
X1192000Y1901895D02*
D03*
Y2181000D02*
D03*
X1432000Y1901447D02*
D03*
Y2180552D02*
D03*
D18*
X-5680500Y1801000D02*
D03*
Y1201000D02*
D03*
X-6055500Y1801000D02*
D03*
Y1201000D02*
D03*
D19*
X-6258000Y1306000D02*
D03*
X-6498000Y1211000D02*
D03*
Y1401000D02*
D03*
X-6258000Y1656000D02*
D03*
X-6498000Y1561000D02*
D03*
Y1751000D02*
D03*
X-490000Y-3559000D02*
D03*
X-730000Y-3654000D02*
D03*
Y-3464000D02*
D03*
X-1800000Y-3559000D02*
D03*
X-2040000Y-3654000D02*
D03*
Y-3464000D02*
D03*
X-4148000Y-2789000D02*
D03*
Y-2979000D02*
D03*
X-3908000Y-2884000D02*
D03*
X-3058000Y-2789000D02*
D03*
Y-2979000D02*
D03*
X-2818000Y-2884000D02*
D03*
D20*
X-8058000Y2391000D02*
D03*
X-7963000Y2151000D02*
D03*
X-8153000D02*
D03*
X1085000Y-4179000D02*
D03*
X1275000D02*
D03*
X1180000Y-3939000D02*
D03*
X-3243000Y-3969000D02*
D03*
X-3338000Y-3729000D02*
D03*
X-3148000D02*
D03*
X-3593000Y-3969000D02*
D03*
X-3688000Y-3729000D02*
D03*
X-3498000D02*
D03*
X-4583000Y-3729000D02*
D03*
X-4773000D02*
D03*
X-4678000Y-3969000D02*
D03*
X-4233000Y-3729000D02*
D03*
X-4423000D02*
D03*
X-4328000Y-3969000D02*
D03*
D21*
X-8308000Y2151000D02*
D03*
Y2311000D02*
D03*
X-7808000D02*
D03*
Y2151000D02*
D03*
X-1160000Y-1090000D02*
D03*
Y-930000D02*
D03*
X1520000Y-3359000D02*
D03*
Y-3199000D02*
D03*
X-3920000Y-2089000D02*
D03*
Y-2249000D02*
D03*
X-3400000Y-2529000D02*
D03*
Y-2369000D02*
D03*
D22*
X-6734200Y2052500D02*
D03*
Y1925500D02*
D03*
Y1798500D02*
D03*
Y1671500D02*
D03*
Y1544500D02*
D03*
Y1417500D02*
D03*
Y1290500D02*
D03*
Y1163500D02*
D03*
X-7441800D02*
D03*
Y1290500D02*
D03*
Y1417500D02*
D03*
Y1544500D02*
D03*
Y1671500D02*
D03*
Y1798500D02*
D03*
Y1925500D02*
D03*
Y2052500D02*
D03*
D23*
X-7714300Y1652500D02*
D03*
Y1602500D02*
D03*
Y1552500D02*
D03*
Y1302500D02*
D03*
Y1352500D02*
D03*
Y1402500D02*
D03*
Y1502500D02*
D03*
Y1452500D02*
D03*
D24*
Y1237500D02*
D03*
Y1717500D02*
D03*
Y1157500D02*
D03*
Y1797500D02*
D03*
D25*
X-6794500Y-542500D02*
D03*
X-6978000D02*
D03*
X-7161500D02*
D03*
Y-359000D02*
D03*
Y-175500D02*
D03*
X-6978000D02*
D03*
X-6794500D02*
D03*
Y-359000D02*
D03*
X-6978000D02*
D03*
D26*
X-7728000Y591000D02*
D03*
X-7601000D02*
D03*
X-7474000D02*
D03*
X-7347000D02*
D03*
X-7220000D02*
D03*
X-7093000D02*
D03*
X-6966000D02*
D03*
X-6839000D02*
D03*
X-6712000D02*
D03*
X-6585000D02*
D03*
X-6458000D02*
D03*
X-6331000D02*
D03*
X-6204000D02*
D03*
X-6077000D02*
D03*
X-5950000D02*
D03*
X-5823000D02*
D03*
X-5696000D02*
D03*
X-5569000D02*
D03*
X-5442000D02*
D03*
Y-1109000D02*
D03*
X-5569000D02*
D03*
X-5696000D02*
D03*
X-5823000D02*
D03*
X-5950000D02*
D03*
X-6077000D02*
D03*
X-6204000D02*
D03*
X-6331000D02*
D03*
X-6458000D02*
D03*
X-6585000D02*
D03*
X-6712000D02*
D03*
X-6839000D02*
D03*
X-6966000D02*
D03*
X-7093000D02*
D03*
X-7220000D02*
D03*
X-7347000D02*
D03*
X-7474000D02*
D03*
X-7601000D02*
D03*
X-7728000D02*
D03*
D27*
X0Y-600000D02*
D03*
Y0D02*
D03*
D28*
X-694000Y-659000D02*
D03*
D29*
X-422800Y-468500D02*
D03*
Y-595500D02*
D03*
Y-722500D02*
D03*
Y-849500D02*
D03*
X-965200D02*
D03*
Y-722500D02*
D03*
Y-595500D02*
D03*
Y-468500D02*
D03*
D30*
X-204000Y-1259000D02*
D03*
Y-1109000D02*
D03*
X-424000D02*
D03*
Y-1259000D02*
D03*
X-644000D02*
D03*
Y-1109000D02*
D03*
X-864000D02*
D03*
Y-1259000D02*
D03*
D31*
X1367000Y-2819000D02*
D03*
X1240000D02*
D03*
X1113000D02*
D03*
X986000D02*
D03*
Y-3359000D02*
D03*
X1113000D02*
D03*
X1240000D02*
D03*
X1367000D02*
D03*
X-3227000Y-2789000D02*
D03*
X-3354000D02*
D03*
X-3481000D02*
D03*
X-3608000D02*
D03*
Y-3329000D02*
D03*
X-3481000D02*
D03*
X-3354000D02*
D03*
X-3227000D02*
D03*
X-4317500Y-2789000D02*
D03*
X-4444500D02*
D03*
X-4571500D02*
D03*
X-4698500D02*
D03*
Y-3329000D02*
D03*
X-4571500D02*
D03*
X-4444500D02*
D03*
X-4317500D02*
D03*
D32*
X-1020000Y-3639000D02*
D03*
Y-3479000D02*
D03*
X-2330000Y-3469000D02*
D03*
Y-3629000D02*
D03*
X-3840000Y-3569000D02*
D03*
Y-3729000D02*
D03*
X-4930000D02*
D03*
Y-3569000D02*
D03*
D33*
X-488500Y-3999000D02*
D03*
X-1011500D02*
D03*
X-1797000D02*
D03*
X-2320000D02*
D03*
D34*
X-1320000Y-4189000D02*
D03*
Y-3949000D02*
D03*
X-2628500Y-4189000D02*
D03*
Y-3949000D02*
D03*
D35*
X-5680000Y-2589000D02*
D03*
X-5530000D02*
D03*
X-6000000D02*
D03*
X-5850000D02*
D03*
D45*
X-7760000Y-5640000D02*
D03*
X1590000Y1450000D02*
D03*
D46*
X-616000Y-3130000D02*
D03*
X-3430000Y1461000D02*
D03*
X-1926000Y-3130000D02*
D03*
X-4938000Y-2389000D02*
D03*
Y1461000D02*
D03*
D47*
X-1124000Y-3130000D02*
D03*
X-870000D02*
D03*
X-3176000Y1461000D02*
D03*
X-2922000D02*
D03*
X-2434000Y-3130000D02*
D03*
X-2180000D02*
D03*
X-4684000Y-2389000D02*
D03*
X-4430000D02*
D03*
X-4684000Y1461000D02*
D03*
X-4430000D02*
D03*
D48*
X993000Y2631000D02*
D03*
X1374000D02*
D03*
X63000D02*
D03*
X444000D02*
D03*
X-867000D02*
D03*
X-486000D02*
D03*
X-3658000D02*
D03*
X-3277000D02*
D03*
X-4588000D02*
D03*
X-4207000D02*
D03*
X-1797000D02*
D03*
X-1416000D02*
D03*
X-2727000D02*
D03*
X-2346000D02*
D03*
X-5518000D02*
D03*
X-5137000D02*
D03*
X-6068000D02*
D03*
X-6449000D02*
D03*
X-6998000D02*
D03*
X-7379000D02*
D03*
X522000Y-690000D02*
D03*
Y-309000D02*
D03*
Y-1621000D02*
D03*
Y-1240000D02*
D03*
X-1251000Y-4569000D02*
D03*
X-870000D02*
D03*
X-489000D02*
D03*
X-2560000D02*
D03*
X-2179000D02*
D03*
X-1798000D02*
D03*
X-5598000D02*
D03*
X-5979000D02*
D03*
X1371000D02*
D03*
X990000D02*
D03*
X441497D02*
D03*
X60497D02*
D03*
X-4800000D02*
D03*
X-4419000D02*
D03*
X-4038000D02*
D03*
X-3108503D02*
D03*
X-3489503D02*
D03*
D49*
X-7821800Y1766500D02*
D03*
Y1188500D02*
D03*
D50*
X-7771800Y1045500D02*
D03*
Y1909500D02*
D03*
D51*
X-8189800Y1045500D02*
D03*
Y1909500D02*
D03*
D52*
X-6014000Y-2299000D02*
D03*
X-5760000D02*
D03*
X-5506000D02*
D03*
D53*
X-6658000Y-1929000D02*
D03*
X-8198000D02*
D03*
X-7178000Y-4869000D02*
D03*
X-7678000D02*
D03*
D54*
X1412000Y-5459000D02*
D03*
Y3521000D02*
D03*
X-8168000D02*
D03*
Y-5459000D02*
D03*
%TF.MD5,f309a8907b29b36820fec1995fc10ab2*%
M02*
