%TF.GenerationSoftware,Altium Limited,Altium Designer,21.9.2 (33)*%
G04 Layer_Physical_Order=4*
G04 Layer_Color=16711680*
%FSLAX45Y45*%
%MOMM*%
%TF.SameCoordinates,9F934031-F859-43C4-9D29-15814C5376A4*%
%TF.FilePolarity,Positive*%
%TF.FileFunction,Copper,L4,Bot,Signal*%
%TF.Part,Single*%
G01*
G75*
%TA.AperFunction,Conductor*%
%ADD37C,0.25400*%
%ADD38C,0.50000*%
%ADD39C,0.29979*%
%ADD40C,1.00000*%
%ADD43C,0.25000*%
%TA.AperFunction,WasherPad*%
%ADD45C,1.15200*%
%TA.AperFunction,ComponentPad*%
%ADD46R,1.65000X1.65000*%
%ADD47C,1.65000*%
%ADD48C,2.20000*%
%ADD49C,0.65000*%
%ADD50O,2.10000X1.05000*%
%ADD51O,1.80000X1.00000*%
%ADD52C,2.00000*%
%ADD53C,1.50000*%
%TA.AperFunction,WasherPad*%
%ADD54C,3.20000*%
%TA.AperFunction,ViaPad*%
%ADD55C,0.46000*%
%ADD56C,0.60000*%
%TA.AperFunction,Conductor*%
%ADD57C,1.20000*%
G36*
X1722000Y-5769000D02*
X-5328045D01*
Y-4266744D01*
X-6098045Y-3496744D01*
X-8478000D01*
Y-1184293D01*
X-8472013Y-1179379D01*
X-7822013D01*
X-7814209Y-1177827D01*
X-7807593Y-1173407D01*
X-7803173Y-1166791D01*
X-7801621Y-1158987D01*
Y641013D01*
X-7803173Y648816D01*
X-7807593Y655432D01*
X-7814209Y659852D01*
X-7822013Y661405D01*
X-8472013D01*
X-8478000Y666319D01*
Y3831000D01*
X1722000D01*
Y-5769000D01*
D02*
G37*
%LPC*%
G36*
X1412000Y3701871D02*
X1376714Y3698396D01*
X1342783Y3688103D01*
X1311513Y3671389D01*
X1284105Y3648895D01*
X1261611Y3621487D01*
X1244897Y3590217D01*
X1234604Y3556287D01*
X1231129Y3521000D01*
X1234604Y3485714D01*
X1244897Y3451784D01*
X1261611Y3420514D01*
X1284105Y3393105D01*
X1311513Y3370612D01*
X1342783Y3353898D01*
X1376714Y3343605D01*
X1412000Y3340129D01*
X1447286Y3343605D01*
X1481216Y3353898D01*
X1512486Y3370612D01*
X1539895Y3393105D01*
X1562388Y3420514D01*
X1579103Y3451784D01*
X1589395Y3485714D01*
X1592871Y3521000D01*
X1589395Y3556287D01*
X1579103Y3590217D01*
X1562388Y3621487D01*
X1539895Y3648895D01*
X1512486Y3671389D01*
X1481216Y3688103D01*
X1447286Y3698396D01*
X1412000Y3701871D01*
D02*
G37*
G36*
X-8168000D02*
X-8203286Y3698396D01*
X-8237216Y3688103D01*
X-8268487Y3671389D01*
X-8295895Y3648895D01*
X-8318389Y3621487D01*
X-8335103Y3590217D01*
X-8345396Y3556287D01*
X-8348871Y3521000D01*
X-8345396Y3485714D01*
X-8335103Y3451784D01*
X-8318389Y3420514D01*
X-8295895Y3393105D01*
X-8268487Y3370612D01*
X-8237216Y3353898D01*
X-8203286Y3343605D01*
X-8168000Y3340129D01*
X-8132714Y3343605D01*
X-8098784Y3353898D01*
X-8067514Y3370612D01*
X-8040105Y3393105D01*
X-8017612Y3420514D01*
X-8000897Y3451784D01*
X-7990605Y3485714D01*
X-7987129Y3521000D01*
X-7990605Y3556287D01*
X-8000897Y3590217D01*
X-8017612Y3621487D01*
X-8040105Y3648895D01*
X-8067514Y3671389D01*
X-8098784Y3688103D01*
X-8132714Y3698396D01*
X-8168000Y3701871D01*
D02*
G37*
G36*
X1251955Y3163860D02*
X-378045D01*
X-396318Y3161454D01*
X-413347Y3154400D01*
X-427969Y3143180D01*
X-488045Y3083105D01*
X-548120Y3143180D01*
X-562743Y3154400D01*
X-579771Y3161454D01*
X-598045Y3163860D01*
X-2248045D01*
X-2266319Y3161454D01*
X-2283347Y3154400D01*
X-2297969Y3143180D01*
X-2353045Y3088105D01*
X-2408120Y3143180D01*
X-2422743Y3154400D01*
X-2439771Y3161454D01*
X-2458045Y3163860D01*
X-4065956D01*
X-4084229Y3161454D01*
X-4101257Y3154400D01*
X-4115880Y3143180D01*
X-4207000Y3052060D01*
X-4298120Y3143180D01*
X-4312743Y3154400D01*
X-4329771Y3161454D01*
X-4348045Y3163860D01*
X-5578045D01*
X-5596318Y3161454D01*
X-5613347Y3154400D01*
X-5627969Y3143180D01*
X-5857969Y2913180D01*
X-5869189Y2898558D01*
X-5876243Y2881529D01*
X-5878649Y2863256D01*
Y-1957499D01*
X-6044791Y-2123641D01*
X-6056011Y-2138264D01*
X-6063064Y-2155292D01*
X-6065470Y-2173566D01*
Y-2190432D01*
X-6074518Y-2194180D01*
X-6099585Y-2213415D01*
X-6111081Y-2228396D01*
X-6258755D01*
X-6562792Y-1924360D01*
X-6565446Y-1904200D01*
X-6575018Y-1881090D01*
X-6590246Y-1861245D01*
X-6610091Y-1846018D01*
X-6633201Y-1836445D01*
X-6658000Y-1833180D01*
X-6682800Y-1836445D01*
X-6705910Y-1846018D01*
X-6725755Y-1861245D01*
X-6740982Y-1881090D01*
X-6750555Y-1904200D01*
X-6753820Y-1929000D01*
X-6750555Y-1953800D01*
X-6740982Y-1976910D01*
X-6725755Y-1996754D01*
X-6705910Y-2011982D01*
X-6682800Y-2021555D01*
X-6662641Y-2024209D01*
X-6337925Y-2348924D01*
X-6323302Y-2360145D01*
X-6306274Y-2367198D01*
X-6288000Y-2369604D01*
X-6111081D01*
X-6099585Y-2384585D01*
X-6084604Y-2396081D01*
Y-2820789D01*
X-6082198Y-2839063D01*
X-6075145Y-2856091D01*
X-6063925Y-2870714D01*
X-5897926Y-3036712D01*
X-5901613Y-3048865D01*
X-5904778Y-3049495D01*
X-5919001Y-3058998D01*
X-5928505Y-3073222D01*
X-5931843Y-3090000D01*
X-5928505Y-3106777D01*
X-5919001Y-3121001D01*
X-5904778Y-3130505D01*
X-5888000Y-3133842D01*
X-5871222Y-3130505D01*
X-5856999Y-3121001D01*
X-5847495Y-3106777D01*
X-5846866Y-3103613D01*
X-5834712Y-3099926D01*
X-5228649Y-3705990D01*
Y-4716744D01*
X-5226243Y-4735018D01*
X-5219189Y-4752046D01*
X-5207969Y-4766669D01*
X-4937969Y-5036669D01*
X-4923347Y-5047889D01*
X-4906318Y-5054942D01*
X-4888045Y-5057348D01*
X-1690000D01*
X-1671726Y-5054942D01*
X-1654698Y-5047889D01*
X-1640075Y-5036669D01*
X-1535000Y-4931593D01*
X-1429924Y-5036669D01*
X-1415302Y-5047889D01*
X-1398274Y-5054942D01*
X-1380000Y-5057348D01*
X-357247D01*
X-338974Y-5054942D01*
X-321946Y-5047889D01*
X-307323Y-5036669D01*
X-130327Y-4859673D01*
X32862Y-4696484D01*
X60497Y-4700122D01*
X94434Y-4695654D01*
X126058Y-4682555D01*
X153214Y-4661717D01*
X174052Y-4634561D01*
X187151Y-4602937D01*
X191619Y-4569000D01*
X187151Y-4535063D01*
X174052Y-4503439D01*
X153214Y-4476283D01*
X126058Y-4455445D01*
X94434Y-4442346D01*
X60497Y-4437878D01*
X26560Y-4442346D01*
X-5064Y-4455445D01*
X-32220Y-4476283D01*
X-53058Y-4503439D01*
X-66157Y-4535063D01*
X-70625Y-4569000D01*
X-66987Y-4596635D01*
X-97914Y-4627562D01*
X-109648Y-4622702D01*
Y-3871817D01*
X-107102Y-3865671D01*
X-104696Y-3847397D01*
Y-3770602D01*
X-107102Y-3752329D01*
X-114155Y-3735300D01*
X-125375Y-3720678D01*
X-545396Y-3300657D01*
Y-3232500D01*
X-513500D01*
Y-3027500D01*
X-718500D01*
Y-3232500D01*
X-686604D01*
Y-3329902D01*
X-684198Y-3348176D01*
X-677145Y-3365204D01*
X-665924Y-3379827D01*
X-245904Y-3799847D01*
Y-3827929D01*
X-248450Y-3834075D01*
X-250855Y-3852349D01*
Y-4780504D01*
X-386492Y-4916141D01*
X-1350755D01*
X-1472652Y-4794244D01*
Y-3646745D01*
X-1475058Y-3628471D01*
X-1482111Y-3611443D01*
X-1493331Y-3596820D01*
X-1833830Y-3256321D01*
Y-3232500D01*
X-1823500D01*
Y-3027500D01*
X-2028500D01*
Y-3232500D01*
X-1975038D01*
Y-3285566D01*
X-1972632Y-3303839D01*
X-1965579Y-3320868D01*
X-1954359Y-3335490D01*
X-1613859Y-3675990D01*
Y-4810755D01*
X-1719245Y-4916141D01*
X-4858800D01*
X-5087441Y-4687499D01*
Y-3676744D01*
X-5089847Y-3658471D01*
X-5096900Y-3641443D01*
X-5108120Y-3626820D01*
X-5943396Y-2791544D01*
Y-2396081D01*
X-5928415Y-2384585D01*
X-5909180Y-2359518D01*
X-5897089Y-2330326D01*
X-5894155Y-2308044D01*
X-5893405Y-2302345D01*
X-5880596D01*
X-5879845Y-2308044D01*
X-5876912Y-2330326D01*
X-5864820Y-2359518D01*
X-5845585Y-2384585D01*
X-5820518Y-2403820D01*
X-5802105Y-2411447D01*
X-5799679Y-2424845D01*
X-5803223Y-2428759D01*
X-5816999Y-2428998D01*
X-5831222Y-2419495D01*
X-5848000Y-2416157D01*
X-5864778Y-2419495D01*
X-5879001Y-2428998D01*
X-5888505Y-2443222D01*
X-5891842Y-2460000D01*
X-5888505Y-2476777D01*
X-5879001Y-2491001D01*
X-5864778Y-2500505D01*
X-5848000Y-2503842D01*
X-5831222Y-2500505D01*
X-5816999Y-2491001D01*
X-5814350Y-2487037D01*
X-5801650D01*
X-5799001Y-2491001D01*
X-5784778Y-2500505D01*
X-5768000Y-2503842D01*
X-5751222Y-2500505D01*
X-5736999Y-2491001D01*
X-5730056Y-2480610D01*
X-5728840Y-2480207D01*
X-5717160D01*
X-5715944Y-2480610D01*
X-5709001Y-2491001D01*
X-5694778Y-2500505D01*
X-5678000Y-2503842D01*
X-5661222Y-2500505D01*
X-5646999Y-2491001D01*
X-5637495Y-2476777D01*
X-5634158Y-2460000D01*
X-5637495Y-2443222D01*
X-5646999Y-2428998D01*
X-5661222Y-2419495D01*
X-5678000Y-2416157D01*
X-5694778Y-2419495D01*
X-5709001Y-2428998D01*
X-5715944Y-2439389D01*
X-5717160Y-2439793D01*
X-5728840D01*
X-5730056Y-2439389D01*
X-5736496Y-2429751D01*
X-5735744Y-2425168D01*
X-5732894Y-2416467D01*
X-5728674Y-2415911D01*
X-5699482Y-2403820D01*
X-5674415Y-2384585D01*
X-5655180Y-2359518D01*
X-5643089Y-2330326D01*
X-5638965Y-2299000D01*
X-5643089Y-2267674D01*
X-5655180Y-2238482D01*
X-5674415Y-2213415D01*
X-5699482Y-2194180D01*
X-5728674Y-2182089D01*
X-5760000Y-2177964D01*
X-5791326Y-2182089D01*
X-5820518Y-2194180D01*
X-5845585Y-2213415D01*
X-5864820Y-2238482D01*
X-5876912Y-2267674D01*
X-5879845Y-2289956D01*
X-5880596Y-2295655D01*
X-5893405D01*
X-5894155Y-2289956D01*
X-5897089Y-2267674D01*
X-5909180Y-2238482D01*
X-5924262Y-2218827D01*
Y-2202811D01*
X-5778800Y-2057348D01*
X-4677290D01*
X-4498649Y-2235989D01*
Y-2312477D01*
X-4503104Y-2315896D01*
X-4519534Y-2337308D01*
X-4529862Y-2362242D01*
X-4533385Y-2389000D01*
X-4529862Y-2415758D01*
X-4519534Y-2440692D01*
X-4503104Y-2462104D01*
X-4481692Y-2478534D01*
X-4456758Y-2488862D01*
X-4430000Y-2492384D01*
X-4403242Y-2488862D01*
X-4378308Y-2478534D01*
X-4356897Y-2462104D01*
X-4340467Y-2440692D01*
X-4330139Y-2415758D01*
X-4326616Y-2389000D01*
X-4330139Y-2362242D01*
X-4340467Y-2337308D01*
X-4356897Y-2315896D01*
X-4357441Y-2315479D01*
Y-2206744D01*
X-4359847Y-2188471D01*
X-4366900Y-2171442D01*
X-4378120Y-2156820D01*
X-4598120Y-1936820D01*
X-4612743Y-1925600D01*
X-4629771Y-1918546D01*
X-4648045Y-1916140D01*
X-5737441D01*
Y2834011D01*
X-5548800Y3022652D01*
X-4377290D01*
X-4277604Y2922966D01*
Y2740685D01*
X-4299717Y2723717D01*
X-4320555Y2696561D01*
X-4333654Y2664937D01*
X-4338122Y2631000D01*
X-4333654Y2597064D01*
X-4320555Y2565440D01*
X-4299717Y2538283D01*
X-4272561Y2517446D01*
X-4240937Y2504347D01*
X-4207000Y2499879D01*
X-4173064Y2504347D01*
X-4141440Y2517446D01*
X-4114283Y2538283D01*
X-4093445Y2565440D01*
X-4080346Y2597064D01*
X-4075879Y2631000D01*
X-4080346Y2664937D01*
X-4093445Y2696561D01*
X-4114283Y2723717D01*
X-4136396Y2740685D01*
Y2922966D01*
X-4036710Y3022652D01*
X-2487290D01*
X-2416604Y2951966D01*
Y2740685D01*
X-2438717Y2723717D01*
X-2459555Y2696561D01*
X-2472654Y2664937D01*
X-2477122Y2631000D01*
X-2472654Y2597064D01*
X-2459555Y2565440D01*
X-2438717Y2538283D01*
X-2411561Y2517446D01*
X-2379937Y2504347D01*
X-2346000Y2499879D01*
X-2312063Y2504347D01*
X-2280439Y2517446D01*
X-2253283Y2538283D01*
X-2232445Y2565440D01*
X-2219346Y2597064D01*
X-2214878Y2631000D01*
X-2219346Y2664937D01*
X-2232445Y2696561D01*
X-2253283Y2723717D01*
X-2275396Y2740685D01*
Y2966056D01*
X-2218800Y3022652D01*
X-627290D01*
X-558649Y2954011D01*
Y2739117D01*
X-578717Y2723717D01*
X-599555Y2696561D01*
X-612654Y2664937D01*
X-617122Y2631000D01*
X-612654Y2597064D01*
X-599555Y2565440D01*
X-578717Y2538283D01*
X-551561Y2517446D01*
X-519937Y2504347D01*
X-486000Y2499879D01*
X-452063Y2504347D01*
X-420439Y2517446D01*
X-393283Y2538283D01*
X-372445Y2565440D01*
X-359346Y2597064D01*
X-354878Y2631000D01*
X-359346Y2664937D01*
X-372445Y2696561D01*
X-393283Y2723717D01*
X-417441Y2742254D01*
Y2954011D01*
X-348800Y3022652D01*
X1222710D01*
X1303396Y2941966D01*
Y2740685D01*
X1281283Y2723717D01*
X1260445Y2696561D01*
X1247346Y2664937D01*
X1242878Y2631000D01*
X1247346Y2597064D01*
X1260445Y2565440D01*
X1281283Y2538283D01*
X1308439Y2517446D01*
X1340063Y2504347D01*
X1374000Y2499879D01*
X1407936Y2504347D01*
X1439561Y2517446D01*
X1466717Y2538283D01*
X1487555Y2565440D01*
X1500654Y2597064D01*
X1505121Y2631000D01*
X1500654Y2664937D01*
X1487555Y2696561D01*
X1466717Y2723717D01*
X1444604Y2740685D01*
Y2971211D01*
X1442198Y2989484D01*
X1435144Y3006513D01*
X1423924Y3021135D01*
X1301880Y3143180D01*
X1287257Y3154400D01*
X1270229Y3161454D01*
X1251955Y3163860D01*
D02*
G37*
G36*
X-8158000Y2973843D02*
X-8174778Y2970505D01*
X-8189001Y2961001D01*
X-8191650Y2957038D01*
X-8204350D01*
X-8206999Y2961001D01*
X-8221222Y2970505D01*
X-8238000Y2973843D01*
X-8254778Y2970505D01*
X-8269001Y2961001D01*
X-8278505Y2946778D01*
X-8281842Y2930000D01*
X-8278505Y2913223D01*
X-8269001Y2898999D01*
X-8254778Y2889495D01*
X-8238000Y2886158D01*
X-8221222Y2889495D01*
X-8206999Y2898999D01*
X-8204350Y2902963D01*
X-8191650D01*
X-8189001Y2898999D01*
X-8174778Y2889495D01*
X-8158000Y2886158D01*
X-8141222Y2889495D01*
X-8126999Y2898999D01*
X-8117495Y2913223D01*
X-8114158Y2930000D01*
X-8117495Y2946778D01*
X-8126999Y2961001D01*
X-8141222Y2970505D01*
X-8158000Y2973843D01*
D02*
G37*
G36*
X-4588000Y2762122D02*
X-4621937Y2757654D01*
X-4653561Y2744555D01*
X-4680717Y2723717D01*
X-4701555Y2696561D01*
X-4711586Y2700414D01*
X-4713212Y2701498D01*
X-4716450Y2717778D01*
X-4725954Y2732002D01*
X-4740178Y2741506D01*
X-4756955Y2744843D01*
X-4773733Y2741506D01*
X-4787957Y2732002D01*
X-4797461Y2717778D01*
X-4800798Y2701000D01*
X-4797461Y2684223D01*
X-4787957Y2669999D01*
Y2662001D01*
X-4797461Y2647778D01*
X-4800798Y2631000D01*
X-4797461Y2614223D01*
X-4787957Y2599999D01*
Y2592001D01*
X-4797461Y2577778D01*
X-4800798Y2561000D01*
X-4797461Y2544222D01*
X-4787957Y2529999D01*
X-4773733Y2520495D01*
X-4756955Y2517158D01*
X-4740178Y2520495D01*
X-4725954Y2529999D01*
X-4716450Y2544222D01*
X-4713212Y2560503D01*
X-4711586Y2561586D01*
X-4701555Y2565439D01*
X-4680717Y2538283D01*
X-4653561Y2517446D01*
X-4621937Y2504347D01*
X-4588000Y2499879D01*
X-4554064Y2504347D01*
X-4522440Y2517446D01*
X-4495283Y2538283D01*
X-4474445Y2565440D01*
X-4461346Y2597064D01*
X-4456879Y2631000D01*
X-4461346Y2664937D01*
X-4474445Y2696561D01*
X-4495283Y2723717D01*
X-4522440Y2744555D01*
X-4554064Y2757654D01*
X-4588000Y2762122D01*
D02*
G37*
G36*
X-2727000D02*
X-2760937Y2757654D01*
X-2792561Y2744555D01*
X-2819717Y2723717D01*
X-2840555Y2696561D01*
X-2841502Y2694275D01*
X-2853714Y2697979D01*
X-2853113Y2701000D01*
X-2856450Y2717778D01*
X-2865954Y2732002D01*
X-2880178Y2741506D01*
X-2896955Y2744843D01*
X-2913733Y2741506D01*
X-2927957Y2732002D01*
X-2937460Y2717778D01*
X-2940798Y2701000D01*
X-2937460Y2684223D01*
X-2927957Y2669999D01*
Y2662001D01*
X-2937460Y2647778D01*
X-2940798Y2631000D01*
X-2937460Y2614223D01*
X-2927957Y2599999D01*
Y2592001D01*
X-2937460Y2577778D01*
X-2940798Y2561000D01*
X-2937460Y2544222D01*
X-2927957Y2529999D01*
X-2913733Y2520495D01*
X-2896955Y2517158D01*
X-2880178Y2520495D01*
X-2865954Y2529999D01*
X-2856450Y2544222D01*
X-2853113Y2561000D01*
X-2853714Y2564022D01*
X-2841502Y2567726D01*
X-2840555Y2565440D01*
X-2819717Y2538283D01*
X-2792561Y2517446D01*
X-2760937Y2504347D01*
X-2727000Y2499879D01*
X-2693063Y2504347D01*
X-2661439Y2517446D01*
X-2634283Y2538283D01*
X-2613445Y2565440D01*
X-2600346Y2597064D01*
X-2595878Y2631000D01*
X-2600346Y2664937D01*
X-2613445Y2696561D01*
X-2634283Y2723717D01*
X-2661439Y2744555D01*
X-2693063Y2757654D01*
X-2727000Y2762122D01*
D02*
G37*
G36*
X-6985300Y2750364D02*
Y2643701D01*
X-6878637D01*
X-6881089Y2662327D01*
X-6893180Y2691518D01*
X-6912415Y2716585D01*
X-6937482Y2735820D01*
X-6966674Y2747912D01*
X-6985300Y2750364D01*
D02*
G37*
G36*
X-7010700D02*
X-7029327Y2747912D01*
X-7058518Y2735820D01*
X-7083585Y2716585D01*
X-7102820Y2691518D01*
X-7114912Y2662327D01*
X-7117364Y2643701D01*
X-7010700D01*
Y2750364D01*
D02*
G37*
G36*
X-3277000Y2762122D02*
X-3310937Y2757654D01*
X-3342561Y2744555D01*
X-3369717Y2723717D01*
X-3390555Y2696561D01*
X-3403654Y2664937D01*
X-3408122Y2631000D01*
X-3403654Y2597064D01*
X-3390555Y2565440D01*
X-3369717Y2538283D01*
X-3342561Y2517446D01*
X-3310937Y2504347D01*
X-3277000Y2499879D01*
X-3243063Y2504347D01*
X-3211439Y2517446D01*
X-3184283Y2538283D01*
X-3163445Y2565439D01*
X-3153414Y2561586D01*
X-3151788Y2560503D01*
X-3148550Y2544222D01*
X-3139046Y2529999D01*
X-3124823Y2520495D01*
X-3108045Y2517158D01*
X-3091267Y2520495D01*
X-3077044Y2529999D01*
X-3067540Y2544222D01*
X-3064202Y2561000D01*
X-3067540Y2577778D01*
X-3073682Y2586971D01*
X-3076012Y2596000D01*
X-3073682Y2605030D01*
X-3067540Y2614223D01*
X-3064202Y2631000D01*
X-3067540Y2647778D01*
X-3077044Y2662001D01*
Y2669999D01*
X-3067540Y2684223D01*
X-3064202Y2701000D01*
X-3067540Y2717778D01*
X-3077044Y2732002D01*
X-3091267Y2741506D01*
X-3108045Y2744843D01*
X-3124823Y2741506D01*
X-3139046Y2732002D01*
X-3148550Y2717778D01*
X-3151788Y2701498D01*
X-3153414Y2700414D01*
X-3163445Y2696561D01*
X-3184283Y2723717D01*
X-3211439Y2744555D01*
X-3243063Y2757654D01*
X-3277000Y2762122D01*
D02*
G37*
G36*
X-5137000D02*
X-5170937Y2757654D01*
X-5202561Y2744555D01*
X-5229717Y2723717D01*
X-5250555Y2696561D01*
X-5263654Y2664937D01*
X-5268122Y2631000D01*
X-5263654Y2597064D01*
X-5250555Y2565440D01*
X-5229717Y2538283D01*
X-5202561Y2517446D01*
X-5170937Y2504347D01*
X-5137000Y2499879D01*
X-5103063Y2504347D01*
X-5071439Y2517446D01*
X-5044283Y2538283D01*
X-5023445Y2565439D01*
X-5013414Y2561586D01*
X-5011789Y2560503D01*
X-5008550Y2544222D01*
X-4999046Y2529999D01*
X-4984823Y2520495D01*
X-4968045Y2517158D01*
X-4951267Y2520495D01*
X-4937044Y2529999D01*
X-4927540Y2544222D01*
X-4924202Y2561000D01*
X-4927540Y2577778D01*
X-4933682Y2586971D01*
X-4936012Y2596000D01*
X-4933682Y2605030D01*
X-4927540Y2614223D01*
X-4924202Y2631000D01*
X-4927540Y2647778D01*
X-4933682Y2656971D01*
X-4936012Y2666001D01*
X-4933682Y2675030D01*
X-4927540Y2684223D01*
X-4924202Y2701000D01*
X-4927540Y2717778D01*
X-4937044Y2732002D01*
X-4951267Y2741506D01*
X-4968045Y2744843D01*
X-4984823Y2741506D01*
X-4999046Y2732002D01*
X-5008550Y2717778D01*
X-5011789Y2701498D01*
X-5013414Y2700414D01*
X-5023445Y2696561D01*
X-5044283Y2723717D01*
X-5071439Y2744555D01*
X-5103063Y2757654D01*
X-5137000Y2762122D01*
D02*
G37*
G36*
X-6878636Y2618301D02*
X-6985300D01*
Y2511637D01*
X-6966674Y2514089D01*
X-6937482Y2526180D01*
X-6912415Y2545415D01*
X-6893180Y2570483D01*
X-6881089Y2599674D01*
X-6878636Y2618301D01*
D02*
G37*
G36*
X-7010700D02*
X-7117364D01*
X-7114912Y2599674D01*
X-7102820Y2570483D01*
X-7083585Y2545415D01*
X-7058518Y2526180D01*
X-7029327Y2514089D01*
X-7010700Y2511637D01*
Y2618301D01*
D02*
G37*
G36*
X993000Y2762122D02*
X959063Y2757654D01*
X927439Y2744555D01*
X900283Y2723717D01*
X879445Y2696561D01*
X866346Y2664937D01*
X861878Y2631000D01*
X866346Y2597064D01*
X879445Y2565440D01*
X900283Y2538283D01*
X927439Y2517446D01*
X959063Y2504347D01*
X993000Y2499879D01*
X1026936Y2504347D01*
X1058561Y2517446D01*
X1085717Y2538283D01*
X1106555Y2565440D01*
X1119654Y2597064D01*
X1124121Y2631000D01*
X1119654Y2664937D01*
X1106555Y2696561D01*
X1085717Y2723717D01*
X1058561Y2744555D01*
X1026936Y2757654D01*
X993000Y2762122D01*
D02*
G37*
G36*
X444000D02*
X410063Y2757654D01*
X378439Y2744555D01*
X351283Y2723717D01*
X330445Y2696561D01*
X317346Y2664937D01*
X312878Y2631000D01*
X317346Y2597064D01*
X330445Y2565440D01*
X351283Y2538283D01*
X378439Y2517446D01*
X410063Y2504347D01*
X444000Y2499879D01*
X477937Y2504347D01*
X509561Y2517446D01*
X536717Y2538283D01*
X557555Y2565440D01*
X570654Y2597064D01*
X575122Y2631000D01*
X570654Y2664937D01*
X557555Y2696561D01*
X536717Y2723717D01*
X509561Y2744555D01*
X477937Y2757654D01*
X444000Y2762122D01*
D02*
G37*
G36*
X63000D02*
X29063Y2757654D01*
X-2561Y2744555D01*
X-29717Y2723717D01*
X-50555Y2696561D01*
X-63654Y2664937D01*
X-68122Y2631000D01*
X-63654Y2597064D01*
X-50555Y2565440D01*
X-29717Y2538283D01*
X-2561Y2517446D01*
X29063Y2504347D01*
X63000Y2499879D01*
X96937Y2504347D01*
X128561Y2517446D01*
X155717Y2538283D01*
X176555Y2565440D01*
X189654Y2597064D01*
X194122Y2631000D01*
X189654Y2664937D01*
X176555Y2696561D01*
X155717Y2723717D01*
X128561Y2744555D01*
X96937Y2757654D01*
X63000Y2762122D01*
D02*
G37*
G36*
X-867000D02*
X-900937Y2757654D01*
X-932561Y2744555D01*
X-959717Y2723717D01*
X-980555Y2696561D01*
X-993654Y2664937D01*
X-998122Y2631000D01*
X-993654Y2597064D01*
X-980555Y2565440D01*
X-959717Y2538283D01*
X-932561Y2517446D01*
X-900937Y2504347D01*
X-867000Y2499879D01*
X-833063Y2504347D01*
X-801439Y2517446D01*
X-774283Y2538283D01*
X-753445Y2565440D01*
X-740346Y2597064D01*
X-735878Y2631000D01*
X-740346Y2664937D01*
X-753445Y2696561D01*
X-774283Y2723717D01*
X-801439Y2744555D01*
X-833063Y2757654D01*
X-867000Y2762122D01*
D02*
G37*
G36*
X-1416000D02*
X-1449937Y2757654D01*
X-1481561Y2744555D01*
X-1508717Y2723717D01*
X-1529555Y2696561D01*
X-1542654Y2664937D01*
X-1547122Y2631000D01*
X-1542654Y2597064D01*
X-1529555Y2565440D01*
X-1508717Y2538283D01*
X-1481561Y2517446D01*
X-1449937Y2504347D01*
X-1416000Y2499879D01*
X-1382064Y2504347D01*
X-1350439Y2517446D01*
X-1323283Y2538283D01*
X-1302445Y2565440D01*
X-1289346Y2597064D01*
X-1284879Y2631000D01*
X-1289346Y2664937D01*
X-1302445Y2696561D01*
X-1323283Y2723717D01*
X-1350439Y2744555D01*
X-1382064Y2757654D01*
X-1416000Y2762122D01*
D02*
G37*
G36*
X-1797000D02*
X-1830937Y2757654D01*
X-1862561Y2744555D01*
X-1889717Y2723717D01*
X-1910555Y2696561D01*
X-1923654Y2664937D01*
X-1928122Y2631000D01*
X-1923654Y2597064D01*
X-1910555Y2565440D01*
X-1889717Y2538283D01*
X-1862561Y2517446D01*
X-1830937Y2504347D01*
X-1797000Y2499879D01*
X-1763064Y2504347D01*
X-1731439Y2517446D01*
X-1704283Y2538283D01*
X-1683445Y2565440D01*
X-1670346Y2597064D01*
X-1665879Y2631000D01*
X-1670346Y2664937D01*
X-1683445Y2696561D01*
X-1704283Y2723717D01*
X-1731439Y2744555D01*
X-1763064Y2757654D01*
X-1797000Y2762122D01*
D02*
G37*
G36*
X-3658000D02*
X-3691937Y2757654D01*
X-3723561Y2744555D01*
X-3750717Y2723717D01*
X-3771555Y2696561D01*
X-3784654Y2664937D01*
X-3789122Y2631000D01*
X-3784654Y2597064D01*
X-3771555Y2565440D01*
X-3750717Y2538283D01*
X-3723561Y2517446D01*
X-3691937Y2504347D01*
X-3658000Y2499879D01*
X-3624063Y2504347D01*
X-3592439Y2517446D01*
X-3565283Y2538283D01*
X-3544445Y2565440D01*
X-3531346Y2597064D01*
X-3526878Y2631000D01*
X-3531346Y2664937D01*
X-3544445Y2696561D01*
X-3565283Y2723717D01*
X-3592439Y2744555D01*
X-3624063Y2757654D01*
X-3658000Y2762122D01*
D02*
G37*
G36*
X-5518000D02*
X-5551937Y2757654D01*
X-5583561Y2744555D01*
X-5610717Y2723717D01*
X-5631555Y2696561D01*
X-5644654Y2664937D01*
X-5649122Y2631000D01*
X-5644654Y2597064D01*
X-5631555Y2565440D01*
X-5610717Y2538283D01*
X-5583561Y2517446D01*
X-5551937Y2504347D01*
X-5518000Y2499879D01*
X-5484063Y2504347D01*
X-5452439Y2517446D01*
X-5425283Y2538283D01*
X-5404445Y2565440D01*
X-5391346Y2597064D01*
X-5386878Y2631000D01*
X-5391346Y2664937D01*
X-5404445Y2696561D01*
X-5425283Y2723717D01*
X-5452439Y2744555D01*
X-5484063Y2757654D01*
X-5518000Y2762122D01*
D02*
G37*
G36*
X-6068000D02*
X-6101937Y2757654D01*
X-6133561Y2744555D01*
X-6160717Y2723717D01*
X-6181555Y2696561D01*
X-6194654Y2664937D01*
X-6199122Y2631000D01*
X-6194654Y2597064D01*
X-6181555Y2565440D01*
X-6160717Y2538283D01*
X-6133561Y2517446D01*
X-6101937Y2504347D01*
X-6068000Y2499879D01*
X-6034063Y2504347D01*
X-6002439Y2517446D01*
X-5975283Y2538283D01*
X-5954445Y2565440D01*
X-5941346Y2597064D01*
X-5936878Y2631000D01*
X-5941346Y2664937D01*
X-5954445Y2696561D01*
X-5975283Y2723717D01*
X-6002439Y2744555D01*
X-6034063Y2757654D01*
X-6068000Y2762122D01*
D02*
G37*
G36*
X-6449000D02*
X-6482937Y2757654D01*
X-6514561Y2744555D01*
X-6541717Y2723717D01*
X-6562555Y2696561D01*
X-6575654Y2664937D01*
X-6580122Y2631000D01*
X-6575654Y2597064D01*
X-6562555Y2565440D01*
X-6541717Y2538283D01*
X-6514561Y2517446D01*
X-6482937Y2504347D01*
X-6449000Y2499879D01*
X-6415063Y2504347D01*
X-6383439Y2517446D01*
X-6356283Y2538283D01*
X-6335445Y2565440D01*
X-6322346Y2597064D01*
X-6317878Y2631000D01*
X-6322346Y2664937D01*
X-6335445Y2696561D01*
X-6356283Y2723717D01*
X-6383439Y2744555D01*
X-6415063Y2757654D01*
X-6449000Y2762122D01*
D02*
G37*
G36*
X-7379000D02*
X-7412937Y2757654D01*
X-7444561Y2744555D01*
X-7471717Y2723717D01*
X-7492555Y2696561D01*
X-7505654Y2664937D01*
X-7510122Y2631000D01*
X-7505654Y2597064D01*
X-7492555Y2565440D01*
X-7471717Y2538283D01*
X-7444561Y2517446D01*
X-7412937Y2504347D01*
X-7379000Y2499879D01*
X-7345064Y2504347D01*
X-7313439Y2517446D01*
X-7286283Y2538283D01*
X-7265445Y2565440D01*
X-7252346Y2597064D01*
X-7247879Y2631000D01*
X-7252346Y2664937D01*
X-7265445Y2696561D01*
X-7286283Y2723717D01*
X-7313439Y2744555D01*
X-7345064Y2757654D01*
X-7379000Y2762122D01*
D02*
G37*
G36*
X-7898001Y2355842D02*
X-7914778Y2352505D01*
X-7929002Y2343001D01*
X-7938506Y2328778D01*
X-7941843Y2312000D01*
X-7938506Y2295222D01*
X-7929002Y2280999D01*
X-7914778Y2271495D01*
X-7898001Y2268158D01*
X-7881223Y2271495D01*
X-7867000Y2280999D01*
X-7857496Y2295222D01*
X-7854158Y2312000D01*
X-7857496Y2328778D01*
X-7867000Y2343001D01*
X-7881223Y2352505D01*
X-7898001Y2355842D01*
D02*
G37*
G36*
X-7718000Y2353843D02*
X-7734778Y2350506D01*
X-7749001Y2341002D01*
X-7758505Y2326778D01*
X-7761842Y2310000D01*
X-7758505Y2293223D01*
X-7749001Y2278999D01*
X-7734778Y2269495D01*
X-7718000Y2266158D01*
X-7701222Y2269495D01*
X-7686999Y2278999D01*
X-7677495Y2293223D01*
X-7674158Y2310000D01*
X-7677495Y2326778D01*
X-7686999Y2341002D01*
X-7701222Y2350506D01*
X-7718000Y2353843D01*
D02*
G37*
G36*
X-3128000Y2333843D02*
X-3144778Y2330505D01*
X-3159001Y2321001D01*
X-3168505Y2306778D01*
X-3171843Y2290000D01*
X-3168505Y2273223D01*
X-3159001Y2258999D01*
X-3144778Y2249495D01*
X-3128000Y2246158D01*
X-3111222Y2249495D01*
X-3096999Y2258999D01*
X-3087495Y2273223D01*
X-3084158Y2290000D01*
X-3087495Y2306778D01*
X-3096999Y2321001D01*
X-3111222Y2330505D01*
X-3128000Y2333843D01*
D02*
G37*
G36*
X-5288000D02*
X-5304778Y2330505D01*
X-5319001Y2321001D01*
X-5328505Y2306778D01*
X-5331843Y2290000D01*
X-5328505Y2273223D01*
X-5319001Y2258999D01*
X-5304778Y2249495D01*
X-5288000Y2246158D01*
X-5271222Y2249495D01*
X-5256999Y2258999D01*
X-5247495Y2273223D01*
X-5244158Y2290000D01*
X-5247495Y2306778D01*
X-5256999Y2321001D01*
X-5271222Y2330505D01*
X-5288000Y2333843D01*
D02*
G37*
G36*
X-3468000Y2253843D02*
X-3484778Y2250506D01*
X-3499001Y2241002D01*
X-3508505Y2226778D01*
X-3511843Y2210000D01*
X-3508505Y2193223D01*
X-3499001Y2178999D01*
X-3484778Y2169495D01*
X-3468000Y2166158D01*
X-3451222Y2169495D01*
X-3436999Y2178999D01*
X-3427495Y2193223D01*
X-3424158Y2210000D01*
X-3427495Y2226778D01*
X-3436999Y2241002D01*
X-3451222Y2250506D01*
X-3468000Y2253843D01*
D02*
G37*
G36*
X-3648000D02*
X-3664778Y2250506D01*
X-3679001Y2241002D01*
X-3688505Y2226778D01*
X-3691843Y2210000D01*
X-3688505Y2193223D01*
X-3679001Y2178999D01*
X-3664778Y2169495D01*
X-3648000Y2166158D01*
X-3631222Y2169495D01*
X-3616999Y2178999D01*
X-3607495Y2193223D01*
X-3604158Y2210000D01*
X-3607495Y2226778D01*
X-3616999Y2241002D01*
X-3631222Y2250506D01*
X-3648000Y2253843D01*
D02*
G37*
G36*
X-4218000D02*
X-4234778Y2250506D01*
X-4249001Y2241002D01*
X-4258505Y2226778D01*
X-4261843Y2210000D01*
X-4258505Y2193223D01*
X-4249001Y2178999D01*
X-4234778Y2169495D01*
X-4218000Y2166158D01*
X-4201222Y2169495D01*
X-4186999Y2178999D01*
X-4177495Y2193223D01*
X-4174158Y2210000D01*
X-4177495Y2226778D01*
X-4186999Y2241002D01*
X-4201222Y2250506D01*
X-4218000Y2253843D01*
D02*
G37*
G36*
X-4398000D02*
X-4414778Y2250506D01*
X-4429001Y2241002D01*
X-4438505Y2226778D01*
X-4441843Y2210000D01*
X-4438505Y2193223D01*
X-4429001Y2178999D01*
X-4414778Y2169495D01*
X-4398000Y2166158D01*
X-4381222Y2169495D01*
X-4366999Y2178999D01*
X-4357495Y2193223D01*
X-4354158Y2210000D01*
X-4357495Y2226778D01*
X-4366999Y2241002D01*
X-4381222Y2250506D01*
X-4398000Y2253843D01*
D02*
G37*
G36*
X-8218000Y2243843D02*
X-8234778Y2240506D01*
X-8249001Y2231002D01*
X-8258505Y2216778D01*
X-8261843Y2200000D01*
X-8258505Y2183223D01*
X-8249001Y2168999D01*
X-8234778Y2159495D01*
X-8218000Y2156158D01*
X-8201222Y2159495D01*
X-8186999Y2168999D01*
X-8177495Y2183223D01*
X-8174158Y2200000D01*
X-8177495Y2216778D01*
X-8186999Y2231002D01*
X-8201222Y2240506D01*
X-8218000Y2243843D01*
D02*
G37*
G36*
X41999Y2208342D02*
X25222Y2205005D01*
X10998Y2195501D01*
X1494Y2181278D01*
X-1843Y2164500D01*
X1494Y2147722D01*
X10998Y2133499D01*
X25222Y2123995D01*
X41999Y2120657D01*
X58777Y2123995D01*
X73001Y2133499D01*
X82505Y2147722D01*
X85842Y2164500D01*
X82505Y2181278D01*
X73001Y2195501D01*
X58777Y2205005D01*
X41999Y2208342D01*
D02*
G37*
G36*
X-188001D02*
X-204778Y2205005D01*
X-219002Y2195501D01*
X-228506Y2181278D01*
X-231843Y2164500D01*
X-228506Y2147722D01*
X-219002Y2133499D01*
X-204778Y2123995D01*
X-188001Y2120657D01*
X-171223Y2123995D01*
X-156999Y2133499D01*
X-147496Y2147722D01*
X-144158Y2164500D01*
X-147496Y2181278D01*
X-156999Y2195501D01*
X-171223Y2205005D01*
X-188001Y2208342D01*
D02*
G37*
G36*
X-1818000Y2203843D02*
X-1834778Y2200505D01*
X-1849001Y2191001D01*
X-1858505Y2176778D01*
X-1861843Y2160000D01*
X-1858505Y2143223D01*
X-1849001Y2128999D01*
X-1834778Y2119495D01*
X-1818000Y2116158D01*
X-1801222Y2119495D01*
X-1786999Y2128999D01*
X-1777495Y2143223D01*
X-1774158Y2160000D01*
X-1777495Y2176778D01*
X-1786999Y2191001D01*
X-1801222Y2200505D01*
X-1818000Y2203843D01*
D02*
G37*
G36*
X-2048000D02*
X-2064778Y2200505D01*
X-2079001Y2191001D01*
X-2088505Y2176778D01*
X-2091843Y2160000D01*
X-2088505Y2143223D01*
X-2079001Y2128999D01*
X-2064778Y2119495D01*
X-2048000Y2116158D01*
X-2031223Y2119495D01*
X-2016999Y2128999D01*
X-2007495Y2143223D01*
X-2004158Y2160000D01*
X-2007495Y2176778D01*
X-2016999Y2191001D01*
X-2031223Y2200505D01*
X-2048000Y2203843D01*
D02*
G37*
G36*
X-5292000Y2175842D02*
X-5308778Y2172505D01*
X-5323001Y2163001D01*
X-5332505Y2148777D01*
X-5335843Y2132000D01*
X-5332505Y2115222D01*
X-5323001Y2100998D01*
X-5308778Y2091494D01*
X-5292000Y2088157D01*
X-5275222Y2091494D01*
X-5260999Y2100998D01*
X-5251495Y2115222D01*
X-5248158Y2132000D01*
X-5251495Y2148777D01*
X-5260999Y2163001D01*
X-5275222Y2172505D01*
X-5292000Y2175842D01*
D02*
G37*
G36*
X-3128000Y2173843D02*
X-3144778Y2170505D01*
X-3159001Y2161002D01*
X-3168505Y2146778D01*
X-3171843Y2130000D01*
X-3168505Y2113223D01*
X-3159001Y2098999D01*
X-3144778Y2089495D01*
X-3128000Y2086158D01*
X-3111222Y2089495D01*
X-3096999Y2098999D01*
X-3087495Y2113223D01*
X-3084158Y2130000D01*
X-3087495Y2146778D01*
X-3096999Y2161002D01*
X-3111222Y2170505D01*
X-3128000Y2173843D01*
D02*
G37*
G36*
X-8218000Y2143843D02*
X-8234778Y2140505D01*
X-8249001Y2131002D01*
X-8258505Y2116778D01*
X-8261843Y2100000D01*
X-8258505Y2083223D01*
X-8249001Y2068999D01*
X-8234778Y2059495D01*
X-8218000Y2056158D01*
X-8201222Y2059495D01*
X-8186999Y2068999D01*
X-8177495Y2083223D01*
X-8174158Y2100000D01*
X-8177495Y2116778D01*
X-8186999Y2131002D01*
X-8201222Y2140505D01*
X-8218000Y2143843D01*
D02*
G37*
G36*
X-2498000Y2113843D02*
X-2514778Y2110506D01*
X-2529001Y2101002D01*
X-2538505Y2086778D01*
X-2541843Y2070000D01*
X-2538505Y2053223D01*
X-2529001Y2038999D01*
X-2514778Y2029495D01*
X-2498000Y2026158D01*
X-2481222Y2029495D01*
X-2466999Y2038999D01*
X-2457495Y2053223D01*
X-2454158Y2070000D01*
X-2457495Y2086778D01*
X-2466999Y2101002D01*
X-2481222Y2110506D01*
X-2498000Y2113843D01*
D02*
G37*
G36*
X-2638000D02*
X-2654778Y2110506D01*
X-2669001Y2101002D01*
X-2678505Y2086778D01*
X-2681842Y2070000D01*
X-2678505Y2053223D01*
X-2669001Y2038999D01*
X-2654778Y2029495D01*
X-2638000Y2026158D01*
X-2621222Y2029495D01*
X-2606999Y2038999D01*
X-2597495Y2053223D01*
X-2594158Y2070000D01*
X-2597495Y2086778D01*
X-2606999Y2101002D01*
X-2621222Y2110506D01*
X-2638000Y2113843D01*
D02*
G37*
G36*
X-4518000D02*
X-4534778Y2110506D01*
X-4549001Y2101002D01*
X-4558505Y2086778D01*
X-4561843Y2070000D01*
X-4558505Y2053223D01*
X-4549001Y2038999D01*
X-4534778Y2029495D01*
X-4518000Y2026158D01*
X-4501222Y2029495D01*
X-4486999Y2038999D01*
X-4477495Y2053223D01*
X-4474158Y2070000D01*
X-4477495Y2086778D01*
X-4486999Y2101002D01*
X-4501222Y2110506D01*
X-4518000Y2113843D01*
D02*
G37*
G36*
X-4658000D02*
X-4674778Y2110506D01*
X-4689001Y2101002D01*
X-4698505Y2086778D01*
X-4701843Y2070000D01*
X-4698505Y2053223D01*
X-4689001Y2038999D01*
X-4674778Y2029495D01*
X-4658000Y2026158D01*
X-4641222Y2029495D01*
X-4626999Y2038999D01*
X-4617495Y2053223D01*
X-4614158Y2070000D01*
X-4617495Y2086778D01*
X-4626999Y2101002D01*
X-4641222Y2110506D01*
X-4658000Y2113843D01*
D02*
G37*
G36*
X-7310000Y2123842D02*
X-7326778Y2120505D01*
X-7341001Y2111001D01*
X-7350505Y2096778D01*
X-7353843Y2080000D01*
X-7350505Y2063222D01*
X-7345011Y2055000D01*
X-7350505Y2046778D01*
X-7353843Y2030000D01*
X-7350505Y2013222D01*
X-7341001Y1998999D01*
X-7326778Y1989495D01*
X-7310000Y1986158D01*
X-7293222Y1989495D01*
X-7278999Y1998999D01*
X-7269495Y2013222D01*
X-7266158Y2030000D01*
X-7269495Y2046778D01*
X-7274989Y2055000D01*
X-7269495Y2063222D01*
X-7266158Y2080000D01*
X-7269495Y2096778D01*
X-7278999Y2111001D01*
X-7293222Y2120505D01*
X-7310000Y2123842D01*
D02*
G37*
G36*
X-6496980Y1880955D02*
X-6513757Y1877618D01*
X-6526814Y1868893D01*
X-6531468Y1867307D01*
X-6543066Y1868398D01*
X-6554926Y1876322D01*
X-6571704Y1879660D01*
X-6588481Y1876322D01*
X-6602705Y1866818D01*
X-6612209Y1852595D01*
X-6615546Y1835817D01*
X-6612209Y1819040D01*
X-6602705Y1804816D01*
X-6588481Y1795312D01*
X-6571704Y1791975D01*
X-6554926Y1795312D01*
X-6543020Y1803267D01*
X-6534586Y1800589D01*
X-6530320Y1797642D01*
Y1163611D01*
X-6534876Y1160520D01*
X-6543020Y1157986D01*
X-6555022Y1166005D01*
X-6571800Y1169343D01*
X-6588578Y1166005D01*
X-6602801Y1156501D01*
X-6612305Y1142278D01*
X-6615643Y1125500D01*
X-6612305Y1108722D01*
X-6602801Y1094499D01*
X-6588578Y1084995D01*
X-6571800Y1081658D01*
X-6555022Y1084995D01*
X-6541966Y1093719D01*
X-6537312Y1095305D01*
X-6525714Y1094215D01*
X-6513854Y1086290D01*
X-6497076Y1082953D01*
X-6480298Y1086290D01*
X-6466075Y1095794D01*
X-6456571Y1110018D01*
X-6453234Y1126795D01*
X-6456571Y1143573D01*
X-6463639Y1154151D01*
Y1809612D01*
X-6456475Y1820335D01*
X-6453137Y1837112D01*
X-6456475Y1853890D01*
X-6465978Y1868114D01*
X-6480202Y1877618D01*
X-6496980Y1880955D01*
D02*
G37*
G36*
X-8149800Y1980104D02*
X-8229800D01*
X-8248074Y1977698D01*
X-8265102Y1970645D01*
X-8279725Y1959424D01*
X-8290945Y1944802D01*
X-8297998Y1927773D01*
X-8300404Y1909500D01*
X-8297998Y1891226D01*
X-8290945Y1874198D01*
X-8279725Y1859575D01*
X-8265102Y1848355D01*
X-8248074Y1841302D01*
X-8229800Y1838896D01*
X-8149800D01*
X-8131527Y1841302D01*
X-8114498Y1848355D01*
X-8099876Y1859575D01*
X-8088656Y1874198D01*
X-8081602Y1891226D01*
X-8079196Y1909500D01*
X-8081602Y1927773D01*
X-8088656Y1944802D01*
X-8099876Y1959424D01*
X-8114498Y1970645D01*
X-8131527Y1977698D01*
X-8149800Y1980104D01*
D02*
G37*
G36*
X-7719300Y1982625D02*
X-7824300D01*
X-7843227Y1980134D01*
X-7860863Y1972828D01*
X-7876008Y1961207D01*
X-7887629Y1946063D01*
X-7894934Y1928426D01*
X-7897426Y1909500D01*
X-7894934Y1890574D01*
X-7887629Y1872937D01*
X-7876008Y1857792D01*
X-7860863Y1846171D01*
X-7843227Y1838866D01*
X-7824300Y1836374D01*
X-7719300D01*
X-7700374Y1838866D01*
X-7682737Y1846171D01*
X-7667593Y1857792D01*
X-7655972Y1872937D01*
X-7648666Y1890574D01*
X-7646175Y1909500D01*
X-7648666Y1928426D01*
X-7655972Y1946063D01*
X-7667593Y1961207D01*
X-7682737Y1972828D01*
X-7700374Y1980134D01*
X-7719300Y1982625D01*
D02*
G37*
G36*
X-8000Y1784843D02*
X-24778Y1781505D01*
X-39001Y1772002D01*
X-46999D01*
X-61222Y1781505D01*
X-78000Y1784843D01*
X-94778Y1781505D01*
X-109001Y1772002D01*
X-118505Y1757778D01*
X-121843Y1741000D01*
X-118505Y1724223D01*
X-113675Y1716994D01*
Y1185777D01*
X-1695357Y-395904D01*
X-1704336Y-393180D01*
X-1708352Y-390939D01*
X-1716999Y-377998D01*
X-1731222Y-368495D01*
X-1748000Y-365157D01*
X-1764778Y-368495D01*
X-1779001Y-377998D01*
X-1788505Y-392222D01*
X-1791842Y-409000D01*
X-1788505Y-425777D01*
X-1779001Y-440001D01*
X-1764778Y-449505D01*
X-1760702Y-463265D01*
X-1761843Y-469000D01*
X-1758505Y-485777D01*
X-1749001Y-500001D01*
X-1734778Y-509505D01*
X-1718000Y-512842D01*
X-1701222Y-509505D01*
X-1686999Y-500001D01*
X-1677495Y-485777D01*
X-1675799Y-477250D01*
X-52774Y1145774D01*
X-45041Y1157348D01*
X-42325Y1171000D01*
Y1696946D01*
X-29625Y1703734D01*
X-24778Y1700495D01*
X-8000Y1697158D01*
X8778Y1700495D01*
X23001Y1709999D01*
X32505Y1724223D01*
X35842Y1741000D01*
X32505Y1757778D01*
X23001Y1772002D01*
X8778Y1781505D01*
X-8000Y1784843D01*
D02*
G37*
G36*
X-3830000Y1834842D02*
X-3846778Y1831505D01*
X-3861001Y1822001D01*
X-3870505Y1807777D01*
X-3873843Y1791000D01*
X-3870505Y1774222D01*
X-3861001Y1759999D01*
X-3846778Y1750495D01*
X-3830000Y1747157D01*
X-3813222Y1750495D01*
X-3798999Y1759999D01*
X-3789495Y1774222D01*
X-3786158Y1791000D01*
X-3789495Y1807777D01*
X-3798999Y1822001D01*
X-3813222Y1831505D01*
X-3830000Y1834842D01*
D02*
G37*
G36*
X-3930000D02*
X-3946778Y1831505D01*
X-3961001Y1822001D01*
X-3970505Y1807777D01*
X-3973843Y1791000D01*
X-3970505Y1774222D01*
X-3961001Y1759999D01*
X-3946778Y1750495D01*
X-3930000Y1747157D01*
X-3913223Y1750495D01*
X-3898999Y1759999D01*
X-3889495Y1774222D01*
X-3886158Y1791000D01*
X-3889495Y1807777D01*
X-3898999Y1822001D01*
X-3913223Y1831505D01*
X-3930000Y1834842D01*
D02*
G37*
G36*
X-5599000Y1874843D02*
X-5615778Y1871505D01*
X-5630001Y1862001D01*
X-5639505Y1847778D01*
X-5642843Y1831000D01*
X-5639505Y1814222D01*
X-5630670Y1801000D01*
X-5639505Y1787778D01*
X-5642843Y1771000D01*
X-5639505Y1754223D01*
X-5630001Y1739999D01*
X-5615778Y1730495D01*
X-5599000Y1727158D01*
X-5582223Y1730495D01*
X-5567999Y1739999D01*
X-5558495Y1754223D01*
X-5555158Y1771000D01*
X-5558495Y1787778D01*
X-5567330Y1801000D01*
X-5558495Y1814222D01*
X-5555158Y1831000D01*
X-5558495Y1847778D01*
X-5567999Y1862001D01*
X-5582223Y1871505D01*
X-5599000Y1874843D01*
D02*
G37*
G36*
X-7821800Y1820028D02*
X-7842285Y1815954D01*
X-7859651Y1804350D01*
X-7871254Y1786984D01*
X-7875329Y1766500D01*
X-7871254Y1746016D01*
X-7859651Y1728650D01*
X-7842285Y1717046D01*
X-7821800Y1712971D01*
X-7801316Y1717046D01*
X-7783950Y1728650D01*
X-7772346Y1746016D01*
X-7768272Y1766500D01*
X-7772346Y1786984D01*
X-7783950Y1804350D01*
X-7801316Y1815954D01*
X-7821800Y1820028D01*
D02*
G37*
G36*
X-1938000Y1784843D02*
X-1954778Y1781506D01*
X-1969002Y1772002D01*
X-1978506Y1757778D01*
X-1981843Y1741001D01*
X-1978506Y1724223D01*
X-1973350Y1716507D01*
Y-345538D01*
X-1977854Y-352280D01*
X-1981191Y-369057D01*
X-1977854Y-385835D01*
X-1968350Y-400059D01*
X-1954127Y-409563D01*
X-1937349Y-412900D01*
X-1920571Y-409563D01*
X-1911802Y-403703D01*
X-1899001Y-400001D01*
X-1884778Y-409505D01*
X-1868000Y-412842D01*
X-1851222Y-409505D01*
X-1836999Y-400001D01*
X-1827495Y-385777D01*
X-1824158Y-369000D01*
X-1827495Y-352222D01*
X-1836999Y-337998D01*
X-1851222Y-328494D01*
X-1868000Y-325157D01*
X-1884778Y-328494D01*
X-1889299Y-331516D01*
X-1901999Y-324727D01*
Y1696728D01*
X-1889299Y1703517D01*
X-1884778Y1700495D01*
X-1868000Y1697158D01*
X-1851222Y1700495D01*
X-1836999Y1709999D01*
X-1827495Y1724223D01*
X-1824158Y1741000D01*
X-1827495Y1757778D01*
X-1836999Y1772002D01*
X-1851222Y1781505D01*
X-1868000Y1784843D01*
X-1884778Y1781505D01*
X-1899001Y1772002D01*
X-1906999D01*
X-1921223Y1781506D01*
X-1938000Y1784843D01*
D02*
G37*
G36*
X-6188000Y1614843D02*
X-6204778Y1611506D01*
X-6219001Y1602002D01*
X-6226999D01*
X-6241222Y1611506D01*
X-6258000Y1614843D01*
X-6274778Y1611506D01*
X-6289001Y1602002D01*
X-6298505Y1587778D01*
X-6301843Y1571000D01*
X-6298505Y1554223D01*
X-6291341Y1543500D01*
Y1491700D01*
X-6288803Y1478941D01*
X-6281575Y1468125D01*
X-6112210Y1298760D01*
Y951485D01*
X-6123411Y945498D01*
X-6125495Y946890D01*
X-6142273Y950228D01*
X-6159050Y946890D01*
X-6173274Y937386D01*
X-6182778Y923163D01*
X-6186115Y906385D01*
X-6182778Y889608D01*
X-6173274Y875384D01*
X-6159050Y865880D01*
X-6142273Y862543D01*
X-6125495Y865880D01*
X-6118152Y870787D01*
X-6108575Y874365D01*
X-6099077Y870775D01*
X-6091706Y865850D01*
X-6074928Y862512D01*
X-6058150Y865850D01*
X-6043927Y875354D01*
X-6034423Y889577D01*
X-6031086Y906355D01*
X-6034423Y923133D01*
X-6043927Y937356D01*
X-6045529Y938427D01*
Y1312570D01*
X-6048067Y1325329D01*
X-6055294Y1336145D01*
X-6224660Y1505510D01*
Y1528506D01*
X-6211960Y1535294D01*
X-6204778Y1530495D01*
X-6188000Y1527158D01*
X-6171222Y1530495D01*
X-6156999Y1539999D01*
X-6147495Y1554223D01*
X-6144158Y1571000D01*
X-6147495Y1587778D01*
X-6156999Y1602002D01*
X-6171222Y1611506D01*
X-6188000Y1614843D01*
D02*
G37*
G36*
X-3830000Y1614842D02*
X-3846778Y1611505D01*
X-3861001Y1602001D01*
X-3870505Y1587777D01*
X-3872311Y1578701D01*
X-3879837Y1576592D01*
X-3888013Y1580327D01*
X-3889495Y1587777D01*
X-3898999Y1602001D01*
X-3913223Y1611505D01*
X-3930000Y1614842D01*
X-3946778Y1611505D01*
X-3961001Y1602001D01*
X-3970505Y1587777D01*
X-3973843Y1571000D01*
X-3970505Y1554222D01*
X-3961001Y1539998D01*
X-3946778Y1530495D01*
X-3933240Y1527802D01*
X-3921843Y1520000D01*
X-3918505Y1503223D01*
X-3911341Y1492500D01*
Y48501D01*
X-3918505Y37778D01*
X-3921843Y21000D01*
X-3918505Y4223D01*
X-3909001Y-10001D01*
X-3894778Y-19505D01*
X-3878000Y-22842D01*
X-3861222Y-19505D01*
X-3852259Y-13516D01*
X-3840001Y-9001D01*
X-3825778Y-18505D01*
X-3809000Y-21842D01*
X-3792223Y-18505D01*
X-3777999Y-9001D01*
X-3768495Y5223D01*
X-3765158Y22000D01*
X-3768495Y38778D01*
X-3777999Y53002D01*
X-3792223Y62506D01*
X-3809000Y65843D01*
X-3825778Y62506D01*
X-3831960Y58375D01*
X-3844660Y65163D01*
Y1492500D01*
X-3837495Y1503223D01*
X-3835108Y1515224D01*
X-3830000Y1527157D01*
X-3813222Y1530495D01*
X-3798999Y1539998D01*
X-3789495Y1554222D01*
X-3786158Y1571000D01*
X-3789495Y1587777D01*
X-3798999Y1602001D01*
X-3813222Y1611505D01*
X-3830000Y1614842D01*
D02*
G37*
G36*
X-7595545Y1684598D02*
X-7612322Y1681261D01*
X-7626546Y1671757D01*
X-7636050Y1657533D01*
X-7639387Y1640756D01*
X-7636050Y1623978D01*
X-7632785Y1619092D01*
X-7639573Y1606392D01*
X-7678045D01*
X-7690726Y1603870D01*
X-7701476Y1596687D01*
X-7764794Y1533369D01*
X-7776947Y1537055D01*
X-7777540Y1540033D01*
X-7787044Y1554257D01*
X-7801267Y1563761D01*
X-7818045Y1567098D01*
X-7834823Y1563761D01*
X-7849046Y1554257D01*
X-7858550Y1540033D01*
X-7861137Y1527025D01*
X-7896976Y1491187D01*
X-7904159Y1480437D01*
X-7906681Y1467756D01*
Y1407901D01*
X-7904159Y1395220D01*
X-7896976Y1384470D01*
X-7866831Y1354325D01*
X-7856081Y1347142D01*
X-7843400Y1344619D01*
X-7783545D01*
X-7770864Y1347142D01*
X-7760114Y1354325D01*
X-7752075Y1362364D01*
X-7643074D01*
X-7638794Y1356341D01*
X-7638377Y1346534D01*
X-7641050Y1342534D01*
X-7644387Y1325756D01*
X-7641050Y1308978D01*
X-7631546Y1294755D01*
X-7617323Y1285251D01*
X-7600545Y1281913D01*
X-7583767Y1285251D01*
X-7569544Y1294755D01*
X-7560040Y1308978D01*
X-7556702Y1325756D01*
X-7560040Y1342534D01*
X-7569544Y1356757D01*
X-7570212Y1372478D01*
X-7567540Y1376478D01*
X-7564202Y1393256D01*
X-7567540Y1410034D01*
X-7577044Y1424257D01*
X-7591267Y1433761D01*
X-7608045Y1437098D01*
X-7624822Y1433761D01*
X-7632491Y1428637D01*
X-7757841D01*
X-7763102Y1441337D01*
X-7664319Y1540119D01*
X-7615850D01*
X-7604822Y1532751D01*
X-7588045Y1529413D01*
X-7571267Y1532751D01*
X-7557044Y1542254D01*
X-7547540Y1556478D01*
X-7544202Y1573256D01*
X-7547540Y1590033D01*
X-7557044Y1604257D01*
X-7557712Y1619978D01*
X-7555039Y1623978D01*
X-7551702Y1640756D01*
X-7555039Y1657533D01*
X-7564543Y1671757D01*
X-7578767Y1681261D01*
X-7595545Y1684598D01*
D02*
G37*
G36*
X1590000Y1528269D02*
X1569743Y1525602D01*
X1550866Y1517783D01*
X1534655Y1505345D01*
X1522217Y1489134D01*
X1514398Y1470257D01*
X1511731Y1450000D01*
X1514398Y1429742D01*
X1522217Y1410865D01*
X1534655Y1394655D01*
X1550866Y1382217D01*
X1569743Y1374398D01*
X1590000Y1371731D01*
X1610258Y1374398D01*
X1629135Y1382217D01*
X1645345Y1394655D01*
X1657783Y1410865D01*
X1665602Y1429742D01*
X1668269Y1450000D01*
X1665602Y1470257D01*
X1657783Y1489134D01*
X1645345Y1505345D01*
X1629135Y1517783D01*
X1610258Y1525602D01*
X1590000Y1528269D01*
D02*
G37*
G36*
X-3327500Y1563500D02*
X-3532500D01*
Y1358500D01*
X-3327500D01*
Y1563500D01*
D02*
G37*
G36*
X-4835500D02*
X-5040500D01*
Y1358500D01*
X-4835500D01*
Y1563500D01*
D02*
G37*
G36*
X-2922000Y1564384D02*
X-2948758Y1560861D01*
X-2973692Y1550533D01*
X-2995104Y1534104D01*
X-3011534Y1512692D01*
X-3021862Y1487758D01*
X-3025385Y1461000D01*
X-3021862Y1434242D01*
X-3011534Y1409308D01*
X-2995104Y1387896D01*
X-2973692Y1371466D01*
X-2948758Y1361138D01*
X-2922000Y1357616D01*
X-2895242Y1361138D01*
X-2870308Y1371466D01*
X-2848897Y1387896D01*
X-2832467Y1409308D01*
X-2822139Y1434242D01*
X-2818616Y1461000D01*
X-2822139Y1487758D01*
X-2832467Y1512692D01*
X-2848897Y1534104D01*
X-2870308Y1550533D01*
X-2895242Y1560861D01*
X-2922000Y1564384D01*
D02*
G37*
G36*
X-3176000D02*
X-3202758Y1560861D01*
X-3227692Y1550533D01*
X-3249104Y1534104D01*
X-3265534Y1512692D01*
X-3275862Y1487758D01*
X-3279385Y1461000D01*
X-3275862Y1434242D01*
X-3265534Y1409308D01*
X-3249104Y1387896D01*
X-3227692Y1371466D01*
X-3202758Y1361138D01*
X-3176000Y1357616D01*
X-3149242Y1361138D01*
X-3124308Y1371466D01*
X-3102897Y1387896D01*
X-3086467Y1409308D01*
X-3076139Y1434242D01*
X-3072616Y1461000D01*
X-3076139Y1487758D01*
X-3086467Y1512692D01*
X-3102897Y1534104D01*
X-3124308Y1550533D01*
X-3149242Y1560861D01*
X-3176000Y1564384D01*
D02*
G37*
G36*
X-4430000D02*
X-4456758Y1560861D01*
X-4481692Y1550533D01*
X-4503104Y1534104D01*
X-4519534Y1512692D01*
X-4529862Y1487758D01*
X-4533385Y1461000D01*
X-4529862Y1434242D01*
X-4519534Y1409308D01*
X-4503104Y1387896D01*
X-4481692Y1371466D01*
X-4456758Y1361138D01*
X-4430000Y1357616D01*
X-4403242Y1361138D01*
X-4378308Y1371466D01*
X-4356897Y1387896D01*
X-4340467Y1409308D01*
X-4330139Y1434242D01*
X-4326616Y1461000D01*
X-4330139Y1487758D01*
X-4340467Y1512692D01*
X-4356897Y1534104D01*
X-4378308Y1550533D01*
X-4403242Y1560861D01*
X-4430000Y1564384D01*
D02*
G37*
G36*
X-4684000D02*
X-4710758Y1560861D01*
X-4735692Y1550533D01*
X-4757104Y1534104D01*
X-4773534Y1512692D01*
X-4783862Y1487758D01*
X-4787385Y1461000D01*
X-4783862Y1434242D01*
X-4773534Y1409308D01*
X-4757104Y1387896D01*
X-4735692Y1371466D01*
X-4710758Y1361138D01*
X-4684000Y1357616D01*
X-4657242Y1361138D01*
X-4632308Y1371466D01*
X-4610897Y1387896D01*
X-4594467Y1409308D01*
X-4584139Y1434242D01*
X-4580616Y1461000D01*
X-4584139Y1487758D01*
X-4594467Y1512692D01*
X-4610897Y1534104D01*
X-4632308Y1550533D01*
X-4657242Y1560861D01*
X-4684000Y1564384D01*
D02*
G37*
G36*
X-7821800Y1242029D02*
X-7842285Y1237954D01*
X-7859651Y1226350D01*
X-7871254Y1208984D01*
X-7875329Y1188500D01*
X-7871254Y1168016D01*
X-7859651Y1150650D01*
X-7842285Y1139046D01*
X-7821800Y1134972D01*
X-7801316Y1139046D01*
X-7783950Y1150650D01*
X-7772346Y1168016D01*
X-7768272Y1188500D01*
X-7772346Y1208984D01*
X-7783950Y1226350D01*
X-7801316Y1237954D01*
X-7821800Y1242029D01*
D02*
G37*
G36*
X-5598000Y1273843D02*
X-5614778Y1270505D01*
X-5629001Y1261002D01*
X-5638505Y1246778D01*
X-5641843Y1230000D01*
X-5638505Y1213223D01*
X-5629670Y1200000D01*
X-5638505Y1186778D01*
X-5641843Y1170000D01*
X-5638505Y1153223D01*
X-5629001Y1138999D01*
X-5614778Y1129495D01*
X-5598000Y1126158D01*
X-5581223Y1129495D01*
X-5566999Y1138999D01*
X-5557495Y1153223D01*
X-5554158Y1170000D01*
X-5557495Y1186778D01*
X-5566330Y1200000D01*
X-5557495Y1213223D01*
X-5554158Y1230000D01*
X-5557495Y1246778D01*
X-5566999Y1261002D01*
X-5581223Y1270505D01*
X-5598000Y1273843D01*
D02*
G37*
G36*
X-6261800Y1259343D02*
X-6278578Y1256005D01*
X-6292801Y1246501D01*
X-6302305Y1232278D01*
X-6304399Y1221752D01*
X-7501575Y24576D01*
X-7508803Y13759D01*
X-7511341Y1000D01*
Y-901500D01*
X-7518505Y-912222D01*
X-7521842Y-929000D01*
X-7518505Y-945777D01*
X-7509001Y-960001D01*
X-7494778Y-969505D01*
X-7478000Y-972842D01*
X-7461222Y-969505D01*
X-7446999Y-960001D01*
X-7439001D01*
X-7424778Y-969505D01*
X-7408000Y-972842D01*
X-7391222Y-969505D01*
X-7376999Y-960001D01*
X-7367495Y-945777D01*
X-7364158Y-929000D01*
X-7367495Y-912222D01*
X-7376999Y-897998D01*
X-7391222Y-888495D01*
X-7408000Y-885157D01*
X-7424778Y-888495D01*
X-7431959Y-893293D01*
X-7444659Y-886505D01*
Y-12810D01*
X-6267918Y1163932D01*
X-6254439Y1159450D01*
X-6252305Y1148722D01*
X-6242801Y1134499D01*
X-6228578Y1124995D01*
X-6211800Y1121658D01*
X-6195022Y1124995D01*
X-6180799Y1134499D01*
X-6171295Y1148722D01*
X-6167958Y1165500D01*
X-6171295Y1182278D01*
X-6180799Y1196501D01*
X-6195022Y1206005D01*
X-6206446Y1208277D01*
X-6214174Y1213126D01*
X-6219023Y1220855D01*
X-6221295Y1232278D01*
X-6230799Y1246501D01*
X-6245023Y1256005D01*
X-6261800Y1259343D01*
D02*
G37*
G36*
X-8149800Y1116104D02*
X-8229800D01*
X-8248074Y1113698D01*
X-8265102Y1106645D01*
X-8279725Y1095425D01*
X-8290945Y1080802D01*
X-8297998Y1063774D01*
X-8300404Y1045500D01*
X-8297998Y1027227D01*
X-8290945Y1010198D01*
X-8279725Y995576D01*
X-8265102Y984355D01*
X-8248074Y977302D01*
X-8229800Y974896D01*
X-8149800D01*
X-8131527Y977302D01*
X-8114498Y984355D01*
X-8099876Y995576D01*
X-8088656Y1010198D01*
X-8081602Y1027227D01*
X-8079196Y1045500D01*
X-8081602Y1063774D01*
X-8088656Y1080802D01*
X-8099876Y1095425D01*
X-8114498Y1106645D01*
X-8131527Y1113698D01*
X-8149800Y1116104D01*
D02*
G37*
G36*
X-7719300Y1118626D02*
X-7824300D01*
X-7843227Y1116134D01*
X-7860863Y1108829D01*
X-7876008Y1097208D01*
X-7887629Y1082063D01*
X-7894934Y1064426D01*
X-7897426Y1045500D01*
X-7894934Y1026574D01*
X-7887629Y1008937D01*
X-7876008Y993793D01*
X-7860863Y982172D01*
X-7843227Y974866D01*
X-7824300Y972374D01*
X-7719300D01*
X-7700374Y974866D01*
X-7682737Y982172D01*
X-7667593Y993793D01*
X-7655972Y1008937D01*
X-7648666Y1026574D01*
X-7646175Y1045500D01*
X-7648666Y1064426D01*
X-7655972Y1082063D01*
X-7667593Y1097208D01*
X-7682737Y1108829D01*
X-7700374Y1116134D01*
X-7719300Y1118626D01*
D02*
G37*
G36*
X-4130000Y1134842D02*
X-4146778Y1131505D01*
X-4161001Y1122001D01*
X-4170505Y1107777D01*
X-4173843Y1091000D01*
X-4170505Y1074222D01*
X-4161670Y1061000D01*
X-4170505Y1047777D01*
X-4173843Y1031000D01*
X-4170505Y1014222D01*
X-4161001Y999999D01*
X-4146778Y990495D01*
X-4130000Y987157D01*
X-4123313Y988487D01*
X-4112512Y977687D01*
X-4113843Y971000D01*
X-4110505Y954222D01*
X-4101001Y939998D01*
X-4086778Y930494D01*
X-4070000Y927157D01*
X-4053223Y930494D01*
X-4040000Y939329D01*
X-4026778Y930494D01*
X-4010000Y927157D01*
X-3993222Y930494D01*
X-3978999Y939998D01*
X-3969495Y954222D01*
X-3966158Y971000D01*
X-3969495Y987777D01*
X-3978999Y1002001D01*
X-3993222Y1011505D01*
X-4010000Y1014842D01*
X-4026778Y1011505D01*
X-4040000Y1002670D01*
X-4053223Y1011505D01*
X-4070000Y1014842D01*
X-4076687Y1013512D01*
X-4087488Y1024312D01*
X-4086158Y1031000D01*
X-4089495Y1047777D01*
X-4098330Y1061000D01*
X-4089495Y1074222D01*
X-4086158Y1091000D01*
X-4089495Y1107777D01*
X-4098999Y1122001D01*
X-4113222Y1131505D01*
X-4130000Y1134842D01*
D02*
G37*
G36*
X-7728000Y773843D02*
X-7744778Y770505D01*
X-7759001Y761002D01*
X-7768505Y746778D01*
X-7771842Y730000D01*
X-7768505Y713223D01*
X-7759001Y698999D01*
X-7744778Y689495D01*
X-7728000Y686158D01*
X-7711222Y689495D01*
X-7696999Y698999D01*
X-7687495Y713223D01*
X-7684158Y730000D01*
X-7687495Y746778D01*
X-7696999Y761002D01*
X-7711222Y770505D01*
X-7728000Y773843D01*
D02*
G37*
G36*
X-7728001Y495842D02*
X-7744778Y492505D01*
X-7759002Y483001D01*
X-7768506Y468778D01*
X-7771843Y452000D01*
X-7768506Y435222D01*
X-7759002Y420999D01*
X-7744778Y411495D01*
X-7728001Y408157D01*
X-7711223Y411495D01*
X-7696999Y420999D01*
X-7687495Y435222D01*
X-7684158Y452000D01*
X-7687495Y468778D01*
X-7696999Y483001D01*
X-7711223Y492505D01*
X-7728001Y495842D01*
D02*
G37*
G36*
X180000Y163842D02*
X163222Y160505D01*
X150000Y151670D01*
X136778Y160505D01*
X120000Y163842D01*
X103222Y160505D01*
X90000Y151670D01*
X76778Y160505D01*
X60000Y163842D01*
X43222Y160505D01*
X30000Y151670D01*
X16778Y160505D01*
X0Y163842D01*
X-16778Y160505D01*
X-30000Y151670D01*
X-43222Y160505D01*
X-60000Y163842D01*
X-76778Y160505D01*
X-90000Y151670D01*
X-103222Y160505D01*
X-120000Y163842D01*
X-136778Y160505D01*
X-150000Y151670D01*
X-163222Y160505D01*
X-180000Y163842D01*
X-196778Y160505D01*
X-211001Y151001D01*
X-220505Y136778D01*
X-223842Y120000D01*
X-220505Y103222D01*
X-211001Y88999D01*
X-196778Y79495D01*
X-180000Y76158D01*
X-163222Y79495D01*
X-150000Y88330D01*
X-136778Y79495D01*
X-120000Y76158D01*
X-103222Y79495D01*
X-90000Y88330D01*
X-76778Y79495D01*
X-60000Y76158D01*
X-43222Y79495D01*
X-30000Y88330D01*
X-16778Y79495D01*
X0Y76158D01*
X16778Y79495D01*
X30000Y88330D01*
X43222Y79495D01*
X60000Y76158D01*
X76778Y79495D01*
X90000Y88330D01*
X103222Y79495D01*
X120000Y76158D01*
X136778Y79495D01*
X150000Y88330D01*
X163222Y79495D01*
X180000Y76158D01*
X196778Y79495D01*
X211001Y88999D01*
X220505Y103222D01*
X223842Y120000D01*
X220505Y136778D01*
X211001Y151001D01*
X196778Y160505D01*
X180000Y163842D01*
D02*
G37*
G36*
Y-76158D02*
X163222Y-79495D01*
X150000Y-88330D01*
X136778Y-79495D01*
X120000Y-76158D01*
X103222Y-79495D01*
X90000Y-88330D01*
X76778Y-79495D01*
X60000Y-76158D01*
X43222Y-79495D01*
X30000Y-88330D01*
X16778Y-79495D01*
X0Y-76158D01*
X-16778Y-79495D01*
X-30000Y-88330D01*
X-43222Y-79495D01*
X-60000Y-76158D01*
X-76778Y-79495D01*
X-90000Y-88330D01*
X-103222Y-79495D01*
X-120000Y-76158D01*
X-136778Y-79495D01*
X-150000Y-88330D01*
X-163222Y-79495D01*
X-180000Y-76158D01*
X-196778Y-79495D01*
X-211001Y-88999D01*
X-220505Y-103222D01*
X-223842Y-120000D01*
X-220505Y-136778D01*
X-211001Y-151001D01*
X-196778Y-160505D01*
X-180000Y-163842D01*
X-163222Y-160505D01*
X-150000Y-151670D01*
X-136778Y-160505D01*
X-120000Y-163842D01*
X-103222Y-160505D01*
X-90000Y-151670D01*
X-76778Y-160505D01*
X-60000Y-163842D01*
X-43222Y-160505D01*
X-30000Y-151670D01*
X-16778Y-160505D01*
X0Y-163842D01*
X16778Y-160505D01*
X30000Y-151670D01*
X43222Y-160505D01*
X60000Y-163842D01*
X76778Y-160505D01*
X90000Y-151670D01*
X103222Y-160505D01*
X120000Y-163842D01*
X136778Y-160505D01*
X150000Y-151670D01*
X163222Y-160505D01*
X180000Y-163842D01*
X196778Y-160505D01*
X211001Y-151001D01*
X220505Y-136778D01*
X223842Y-120000D01*
X220505Y-103222D01*
X211001Y-88999D01*
X196778Y-79495D01*
X180000Y-76158D01*
D02*
G37*
G36*
X-4558000Y-5157D02*
X-4574778Y-8495D01*
X-4589001Y-17998D01*
X-4598505Y-32222D01*
X-4601842Y-49000D01*
X-4598605Y-65277D01*
X-4614778Y-68494D01*
X-4629001Y-77998D01*
X-4635944Y-88389D01*
X-4637160Y-88793D01*
X-4648840D01*
X-4650056Y-88389D01*
X-4656999Y-77998D01*
X-4671222Y-68494D01*
X-4688000Y-65157D01*
X-4704778Y-68494D01*
X-4719001Y-77998D01*
X-4719285Y-78423D01*
X-4736649Y-81551D01*
X-4741222Y-78495D01*
X-4758000Y-75157D01*
X-4774778Y-78495D01*
X-4789001Y-87999D01*
X-4798505Y-102222D01*
X-4801843Y-119000D01*
X-4798505Y-135777D01*
X-4789001Y-150001D01*
X-4774778Y-159505D01*
X-4768759Y-160702D01*
X-4244733Y-684728D01*
X-4238677Y-688775D01*
X-3720201Y-1207250D01*
X-3718505Y-1215777D01*
X-3709001Y-1230001D01*
X-3694778Y-1239505D01*
X-3678000Y-1242842D01*
X-3661222Y-1239505D01*
X-3646999Y-1230001D01*
X-3646715Y-1229576D01*
X-3629351Y-1226449D01*
X-3624778Y-1229505D01*
X-3608000Y-1232842D01*
X-3591222Y-1229505D01*
X-3576999Y-1220001D01*
X-3567495Y-1205777D01*
X-3564158Y-1189000D01*
X-3564270Y-1188437D01*
X-3559428Y-1183881D01*
X-3553028Y-1179853D01*
X-3538000Y-1182842D01*
X-3521222Y-1179505D01*
X-3506999Y-1170001D01*
X-3497495Y-1155777D01*
X-3494158Y-1139000D01*
X-3497495Y-1122222D01*
X-3506999Y-1107999D01*
Y-1100001D01*
X-3497495Y-1085777D01*
X-3494158Y-1069000D01*
X-3497495Y-1052222D01*
X-3506999Y-1037998D01*
X-3521222Y-1028495D01*
X-3529749Y-1026798D01*
X-4515799Y-40749D01*
X-4517495Y-32222D01*
X-4526999Y-17998D01*
X-4541222Y-8495D01*
X-4558000Y-5157D01*
D02*
G37*
G36*
X-6886321Y-130858D02*
X-6903099Y-134195D01*
X-6917322Y-143699D01*
X-6926826Y-157923D01*
X-6930164Y-174700D01*
X-6926826Y-191478D01*
X-6917322Y-205702D01*
X-6903099Y-215206D01*
X-6886321Y-218543D01*
X-6869544Y-215206D01*
X-6855320Y-205702D01*
X-6845816Y-191478D01*
X-6842479Y-174700D01*
X-6845816Y-157923D01*
X-6855320Y-143699D01*
X-6869544Y-134195D01*
X-6886321Y-130858D01*
D02*
G37*
G36*
X-7069821D02*
X-7086599Y-134195D01*
X-7100822Y-143699D01*
X-7110326Y-157923D01*
X-7113664Y-174700D01*
X-7110326Y-191478D01*
X-7100822Y-205702D01*
X-7086599Y-215206D01*
X-7069821Y-218543D01*
X-7053044Y-215206D01*
X-7038820Y-205702D01*
X-7029316Y-191478D01*
X-7025979Y-174700D01*
X-7029316Y-157923D01*
X-7038820Y-143699D01*
X-7053044Y-134195D01*
X-7069821Y-130858D01*
D02*
G37*
G36*
X-6794500Y-222679D02*
X-6811278Y-226016D01*
X-6825501Y-235520D01*
X-6835005Y-249744D01*
X-6838343Y-266521D01*
X-6835005Y-283299D01*
X-6825501Y-297523D01*
X-6811278Y-307027D01*
X-6794500Y-310364D01*
X-6777723Y-307027D01*
X-6763499Y-297523D01*
X-6753995Y-283299D01*
X-6750658Y-266521D01*
X-6753995Y-249744D01*
X-6763499Y-235520D01*
X-6777723Y-226016D01*
X-6794500Y-222679D01*
D02*
G37*
G36*
X-6978000D02*
X-6994778Y-226016D01*
X-7009001Y-235520D01*
X-7018505Y-249744D01*
X-7021843Y-266521D01*
X-7018505Y-283299D01*
X-7009001Y-297523D01*
X-6994778Y-307027D01*
X-6978000Y-310364D01*
X-6961223Y-307027D01*
X-6946999Y-297523D01*
X-6937495Y-283299D01*
X-6934158Y-266521D01*
X-6937495Y-249744D01*
X-6946999Y-235520D01*
X-6961223Y-226016D01*
X-6978000Y-222679D01*
D02*
G37*
G36*
X-7161500D02*
X-7178278Y-226016D01*
X-7192501Y-235520D01*
X-7202005Y-249744D01*
X-7205343Y-266521D01*
X-7202005Y-283299D01*
X-7192501Y-297523D01*
X-7178278Y-307027D01*
X-7161500Y-310364D01*
X-7144723Y-307027D01*
X-7130499Y-297523D01*
X-7120995Y-283299D01*
X-7117658Y-266521D01*
X-7120995Y-249744D01*
X-7130499Y-235520D01*
X-7144723Y-226016D01*
X-7161500Y-222679D01*
D02*
G37*
G36*
X-6886321Y-314358D02*
X-6903099Y-317695D01*
X-6917322Y-327199D01*
X-6926826Y-341423D01*
X-6930164Y-358200D01*
X-6926826Y-374978D01*
X-6917322Y-389202D01*
X-6903099Y-398706D01*
X-6886321Y-402043D01*
X-6869544Y-398706D01*
X-6855320Y-389202D01*
X-6845816Y-374978D01*
X-6842479Y-358200D01*
X-6845816Y-341423D01*
X-6855320Y-327199D01*
X-6869544Y-317695D01*
X-6886321Y-314358D01*
D02*
G37*
G36*
X-7069821D02*
X-7086599Y-317695D01*
X-7100822Y-327199D01*
X-7110326Y-341423D01*
X-7113664Y-358200D01*
X-7110326Y-374978D01*
X-7100822Y-389202D01*
X-7086599Y-398706D01*
X-7069821Y-402043D01*
X-7053044Y-398706D01*
X-7038820Y-389202D01*
X-7029316Y-374978D01*
X-7025979Y-358200D01*
X-7029316Y-341423D01*
X-7038820Y-327199D01*
X-7053044Y-317695D01*
X-7069821Y-314358D01*
D02*
G37*
G36*
X-610000Y-406158D02*
X-626778Y-409495D01*
X-635970Y-415637D01*
X-645000Y-417967D01*
X-654029Y-415637D01*
X-663222Y-409495D01*
X-680000Y-406158D01*
X-696778Y-409495D01*
X-705970Y-415637D01*
X-715000Y-417967D01*
X-724030Y-415637D01*
X-733222Y-409495D01*
X-750000Y-406158D01*
X-766778Y-409495D01*
X-781001Y-418999D01*
X-788999D01*
X-803222Y-409495D01*
X-820000Y-406158D01*
X-836778Y-409495D01*
X-851001Y-418999D01*
X-860505Y-433222D01*
X-863842Y-450000D01*
X-860505Y-466778D01*
X-851001Y-481001D01*
X-836778Y-490505D01*
X-820000Y-493843D01*
X-803222Y-490505D01*
X-788999Y-481001D01*
X-781001D01*
X-766778Y-490505D01*
X-750000Y-493843D01*
X-733222Y-490505D01*
X-724030Y-484363D01*
X-715000Y-482033D01*
X-705970Y-484363D01*
X-696778Y-490505D01*
X-680000Y-493843D01*
X-663222Y-490505D01*
X-654029Y-484363D01*
X-645000Y-482033D01*
X-635970Y-484363D01*
X-626778Y-490505D01*
X-610000Y-493843D01*
X-593222Y-490505D01*
X-578999Y-481001D01*
X-569495Y-466778D01*
X-566157Y-450000D01*
X-569495Y-433222D01*
X-578999Y-418999D01*
X-593222Y-409495D01*
X-610000Y-406158D01*
D02*
G37*
G36*
X522000Y-177878D02*
X488063Y-182346D01*
X456439Y-195445D01*
X429283Y-216283D01*
X408445Y-243439D01*
X395346Y-275063D01*
X390878Y-309000D01*
X395346Y-342936D01*
X408445Y-374561D01*
X429283Y-401717D01*
X456439Y-422554D01*
X488063Y-435653D01*
X522000Y-440121D01*
X555937Y-435653D01*
X587561Y-422554D01*
X614717Y-401717D01*
X635555Y-374561D01*
X648654Y-342936D01*
X653122Y-309000D01*
X648654Y-275063D01*
X635555Y-243439D01*
X614717Y-216283D01*
X587561Y-195445D01*
X555937Y-182346D01*
X522000Y-177878D01*
D02*
G37*
G36*
X-6794500Y-406179D02*
X-6811278Y-409516D01*
X-6825501Y-419020D01*
X-6835005Y-433244D01*
X-6838343Y-450021D01*
X-6835005Y-466799D01*
X-6825501Y-481023D01*
X-6811278Y-490527D01*
X-6794500Y-493864D01*
X-6777723Y-490527D01*
X-6763499Y-481023D01*
X-6753995Y-466799D01*
X-6750658Y-450021D01*
X-6753995Y-433244D01*
X-6763499Y-419020D01*
X-6777723Y-409516D01*
X-6794500Y-406179D01*
D02*
G37*
G36*
X-6978000D02*
X-6994778Y-409516D01*
X-7009001Y-419020D01*
X-7018505Y-433244D01*
X-7021843Y-450021D01*
X-7018505Y-466799D01*
X-7009001Y-481023D01*
X-6994778Y-490527D01*
X-6978000Y-493864D01*
X-6961223Y-490527D01*
X-6946999Y-481023D01*
X-6937495Y-466799D01*
X-6934158Y-450021D01*
X-6937495Y-433244D01*
X-6946999Y-419020D01*
X-6961223Y-409516D01*
X-6978000Y-406179D01*
D02*
G37*
G36*
X-7161500D02*
X-7178278Y-409516D01*
X-7192501Y-419020D01*
X-7202005Y-433244D01*
X-7205343Y-450021D01*
X-7202005Y-466799D01*
X-7192501Y-481023D01*
X-7178278Y-490527D01*
X-7161500Y-493864D01*
X-7144723Y-490527D01*
X-7130499Y-481023D01*
X-7120995Y-466799D01*
X-7117658Y-450021D01*
X-7120995Y-433244D01*
X-7130499Y-419020D01*
X-7144723Y-409516D01*
X-7161500Y-406179D01*
D02*
G37*
G36*
X-6886321Y-497858D02*
X-6903099Y-501195D01*
X-6917322Y-510699D01*
X-6926826Y-524923D01*
X-6930164Y-541700D01*
X-6926826Y-558478D01*
X-6917322Y-572702D01*
X-6903099Y-582206D01*
X-6886321Y-585543D01*
X-6869544Y-582206D01*
X-6855320Y-572702D01*
X-6845816Y-558478D01*
X-6842479Y-541700D01*
X-6845816Y-524923D01*
X-6855320Y-510699D01*
X-6869544Y-501195D01*
X-6886321Y-497858D01*
D02*
G37*
G36*
X-7069821D02*
X-7086599Y-501195D01*
X-7100822Y-510699D01*
X-7110326Y-524923D01*
X-7113664Y-541700D01*
X-7110326Y-558478D01*
X-7100822Y-572702D01*
X-7086599Y-582206D01*
X-7069821Y-585543D01*
X-7053044Y-582206D01*
X-7038820Y-572702D01*
X-7029316Y-558478D01*
X-7025979Y-541700D01*
X-7029316Y-524923D01*
X-7038820Y-510699D01*
X-7053044Y-501195D01*
X-7069821Y-497858D01*
D02*
G37*
G36*
X-614000Y-508020D02*
X-633509Y-511901D01*
X-650048Y-522952D01*
X-661099Y-539491D01*
X-664980Y-559000D01*
X-661099Y-578509D01*
X-650048Y-595048D01*
X-633509Y-606099D01*
X-614000Y-609979D01*
X-594491Y-606099D01*
X-577952Y-595048D01*
X-566901Y-578509D01*
X-563020Y-559000D01*
X-566901Y-539491D01*
X-577952Y-522952D01*
X-594491Y-511901D01*
X-614000Y-508020D01*
D02*
G37*
G36*
X-774000D02*
X-793509Y-511901D01*
X-810048Y-522952D01*
X-821099Y-539491D01*
X-824980Y-559000D01*
X-821099Y-578509D01*
X-810048Y-595048D01*
X-793509Y-606099D01*
X-774000Y-609979D01*
X-754491Y-606099D01*
X-737952Y-595048D01*
X-726901Y-578509D01*
X-723021Y-559000D01*
X-726901Y-539491D01*
X-737952Y-522952D01*
X-754491Y-511901D01*
X-774000Y-508020D01*
D02*
G37*
G36*
X-558000Y-155157D02*
X-574778Y-158494D01*
X-589001Y-167998D01*
X-598505Y-182222D01*
X-601843Y-199000D01*
X-600403Y-206238D01*
X-616778Y-209495D01*
X-631001Y-218999D01*
X-640505Y-233222D01*
X-643843Y-250000D01*
X-640505Y-266778D01*
X-631001Y-281001D01*
X-616778Y-290505D01*
X-600000Y-293842D01*
X-583222Y-290505D01*
X-568999Y-281001D01*
X-559495Y-266778D01*
X-558805Y-263307D01*
X-545024Y-259126D01*
X-173831Y-630320D01*
X-163014Y-637547D01*
X-150255Y-640085D01*
X194455D01*
X205177Y-647249D01*
X221955Y-650587D01*
X238733Y-647249D01*
X243306Y-644194D01*
X260670Y-647321D01*
X260954Y-647745D01*
X275178Y-657249D01*
X291955Y-660587D01*
X308733Y-657249D01*
X322956Y-647745D01*
X332460Y-633522D01*
X335798Y-616744D01*
X332460Y-599967D01*
X323625Y-586744D01*
X332460Y-573522D01*
X335798Y-556744D01*
X332460Y-539967D01*
X322956Y-525743D01*
X308733Y-516239D01*
X291955Y-512902D01*
X275178Y-516239D01*
X260954Y-525743D01*
X251450Y-539967D01*
X248113Y-556744D01*
X248225Y-557307D01*
X243383Y-561863D01*
X236983Y-565891D01*
X221955Y-562902D01*
X205177Y-566239D01*
X194455Y-573404D01*
X-136445D01*
X-514979Y-194870D01*
X-517495Y-182222D01*
X-526999Y-167998D01*
X-541222Y-158494D01*
X-558000Y-155157D01*
D02*
G37*
G36*
X-694000Y-608020D02*
X-713509Y-611901D01*
X-730048Y-622952D01*
X-741099Y-639491D01*
X-744980Y-659000D01*
X-741099Y-678509D01*
X-730048Y-695048D01*
X-713509Y-706099D01*
X-694000Y-709980D01*
X-674491Y-706099D01*
X-657952Y-695048D01*
X-646901Y-678509D01*
X-643021Y-659000D01*
X-646901Y-639491D01*
X-657952Y-622952D01*
X-674491Y-611901D01*
X-694000Y-608020D01*
D02*
G37*
G36*
X-614000Y-708020D02*
X-633509Y-711901D01*
X-650048Y-722952D01*
X-661099Y-739491D01*
X-664980Y-759000D01*
X-661099Y-778509D01*
X-650048Y-795048D01*
X-633509Y-806099D01*
X-614000Y-809980D01*
X-594491Y-806099D01*
X-577952Y-795048D01*
X-566901Y-778509D01*
X-563020Y-759000D01*
X-566901Y-739491D01*
X-577952Y-722952D01*
X-594491Y-711901D01*
X-614000Y-708020D01*
D02*
G37*
G36*
X-774000D02*
X-793509Y-711901D01*
X-810048Y-722952D01*
X-821099Y-739491D01*
X-824980Y-759000D01*
X-821099Y-778509D01*
X-810048Y-795048D01*
X-793509Y-806099D01*
X-774000Y-809980D01*
X-754491Y-806099D01*
X-737952Y-795048D01*
X-726901Y-778509D01*
X-723021Y-759000D01*
X-726901Y-739491D01*
X-737952Y-722952D01*
X-754491Y-711901D01*
X-774000Y-708020D01*
D02*
G37*
G36*
X522000Y-558878D02*
X488063Y-563346D01*
X456439Y-576445D01*
X429283Y-597283D01*
X408445Y-624439D01*
X395346Y-656063D01*
X390878Y-690000D01*
X395346Y-723936D01*
X408445Y-755561D01*
X429283Y-782717D01*
X456439Y-803554D01*
X488063Y-816653D01*
X522000Y-821121D01*
X555937Y-816653D01*
X587561Y-803554D01*
X614717Y-782717D01*
X635555Y-755561D01*
X648654Y-723936D01*
X653122Y-690000D01*
X648654Y-656063D01*
X635555Y-624439D01*
X614717Y-597283D01*
X587561Y-576445D01*
X555937Y-563346D01*
X522000Y-558878D01*
D02*
G37*
G36*
X-5950000Y-926157D02*
X-5966778Y-929495D01*
X-5981001Y-938999D01*
X-5990505Y-953222D01*
X-5993842Y-970000D01*
X-5990505Y-986778D01*
X-5981001Y-1001001D01*
X-5966778Y-1010505D01*
X-5950000Y-1013842D01*
X-5933222Y-1010505D01*
X-5918999Y-1001001D01*
X-5909495Y-986778D01*
X-5906158Y-970000D01*
X-5909495Y-953222D01*
X-5918999Y-938999D01*
X-5933222Y-929495D01*
X-5950000Y-926157D01*
D02*
G37*
G36*
X-1070000Y-1046158D02*
X-1086778Y-1049495D01*
X-1101001Y-1058999D01*
X-1110505Y-1073222D01*
X-1113842Y-1090000D01*
X-1110505Y-1106778D01*
X-1101001Y-1121001D01*
X-1086778Y-1130505D01*
X-1070000Y-1133843D01*
X-1053222Y-1130505D01*
X-1038999Y-1121001D01*
X-1029495Y-1106778D01*
X-1026157Y-1090000D01*
X-1029495Y-1073222D01*
X-1038999Y-1058999D01*
X-1053222Y-1049495D01*
X-1070000Y-1046158D01*
D02*
G37*
G36*
X-1250000D02*
X-1266778Y-1049495D01*
X-1281001Y-1058999D01*
X-1290505Y-1073222D01*
X-1293842Y-1090000D01*
X-1290505Y-1106778D01*
X-1281001Y-1121001D01*
X-1266778Y-1130505D01*
X-1250000Y-1133843D01*
X-1233222Y-1130505D01*
X-1218999Y-1121001D01*
X-1209495Y-1106778D01*
X-1206158Y-1090000D01*
X-1209495Y-1073222D01*
X-1218999Y-1058999D01*
X-1233222Y-1049495D01*
X-1250000Y-1046158D01*
D02*
G37*
G36*
X-7728000Y-1216157D02*
X-7744778Y-1219495D01*
X-7753971Y-1225637D01*
X-7763000Y-1227967D01*
X-7772030Y-1225637D01*
X-7781222Y-1219495D01*
X-7798000Y-1216157D01*
X-7814778Y-1219495D01*
X-7829001Y-1228999D01*
X-7838505Y-1243222D01*
X-7841843Y-1260000D01*
X-7838505Y-1276777D01*
X-7829001Y-1291001D01*
X-7814778Y-1300505D01*
X-7798000Y-1303842D01*
X-7781222Y-1300505D01*
X-7772030Y-1294362D01*
X-7763000Y-1292033D01*
X-7753971Y-1294362D01*
X-7744778Y-1300505D01*
X-7728000Y-1303842D01*
X-7711222Y-1300505D01*
X-7696999Y-1291001D01*
X-7687495Y-1276777D01*
X-7684158Y-1260000D01*
X-7687495Y-1243222D01*
X-7696999Y-1228999D01*
X-7711222Y-1219495D01*
X-7728000Y-1216157D01*
D02*
G37*
G36*
X-5950001Y-1204158D02*
X-5966778Y-1207495D01*
X-5981002Y-1216999D01*
X-5990506Y-1231223D01*
X-5993843Y-1248000D01*
X-5990506Y-1264778D01*
X-5981002Y-1279002D01*
X-5966778Y-1288505D01*
X-5950001Y-1291843D01*
X-5933223Y-1288505D01*
X-5918999Y-1279002D01*
X-5909495Y-1264778D01*
X-5906158Y-1248000D01*
X-5909495Y-1231223D01*
X-5918999Y-1216999D01*
X-5933223Y-1207495D01*
X-5950001Y-1204158D01*
D02*
G37*
G36*
X-314000Y-1185157D02*
X-330778Y-1188495D01*
X-345001Y-1197999D01*
X-354505Y-1212222D01*
X-357843Y-1229000D01*
X-354505Y-1245778D01*
X-345001Y-1260001D01*
X-341037Y-1262650D01*
Y-1275350D01*
X-345001Y-1277999D01*
X-354505Y-1292222D01*
X-357843Y-1309000D01*
X-354505Y-1325778D01*
X-345001Y-1340001D01*
X-330778Y-1349505D01*
X-314000Y-1352842D01*
X-297222Y-1349505D01*
X-282999Y-1340001D01*
X-273495Y-1325778D01*
X-270158Y-1309000D01*
X-273495Y-1292222D01*
X-282999Y-1277999D01*
X-286963Y-1275350D01*
Y-1262650D01*
X-282999Y-1260001D01*
X-273495Y-1245778D01*
X-270158Y-1229000D01*
X-273495Y-1212222D01*
X-282999Y-1197999D01*
X-297222Y-1188495D01*
X-314000Y-1185157D01*
D02*
G37*
G36*
X-534000D02*
X-550778Y-1188495D01*
X-565001Y-1197999D01*
X-574505Y-1212222D01*
X-577843Y-1229000D01*
X-574505Y-1245778D01*
X-565001Y-1260001D01*
X-561037Y-1262650D01*
Y-1275350D01*
X-565001Y-1277999D01*
X-574505Y-1292222D01*
X-577843Y-1309000D01*
X-574505Y-1325778D01*
X-565001Y-1340001D01*
X-550778Y-1349505D01*
X-534000Y-1352842D01*
X-517222Y-1349505D01*
X-502999Y-1340001D01*
X-493495Y-1325778D01*
X-490158Y-1309000D01*
X-493495Y-1292222D01*
X-502999Y-1277999D01*
X-506963Y-1275350D01*
Y-1262650D01*
X-502999Y-1260001D01*
X-493495Y-1245778D01*
X-490158Y-1229000D01*
X-493495Y-1212222D01*
X-502999Y-1197999D01*
X-517222Y-1188495D01*
X-534000Y-1185157D01*
D02*
G37*
G36*
X-754000D02*
X-770778Y-1188495D01*
X-785001Y-1197999D01*
X-794505Y-1212222D01*
X-797843Y-1229000D01*
X-794505Y-1245778D01*
X-785001Y-1260001D01*
X-781037Y-1262650D01*
Y-1275350D01*
X-785001Y-1277999D01*
X-794505Y-1292222D01*
X-797843Y-1309000D01*
X-794505Y-1325778D01*
X-785001Y-1340001D01*
X-770778Y-1349505D01*
X-754000Y-1352842D01*
X-737223Y-1349505D01*
X-722999Y-1340001D01*
X-713495Y-1325778D01*
X-710158Y-1309000D01*
X-713495Y-1292222D01*
X-722999Y-1277999D01*
X-726963Y-1275350D01*
Y-1262650D01*
X-722999Y-1260001D01*
X-713495Y-1245778D01*
X-710158Y-1229000D01*
X-713495Y-1212222D01*
X-722999Y-1197999D01*
X-737223Y-1188495D01*
X-754000Y-1185157D01*
D02*
G37*
G36*
X522000Y-1108878D02*
X488063Y-1113346D01*
X456439Y-1126445D01*
X429283Y-1147282D01*
X408445Y-1174439D01*
X395346Y-1206063D01*
X390878Y-1240000D01*
X395346Y-1273936D01*
X408445Y-1305561D01*
X429283Y-1332717D01*
X456439Y-1353554D01*
X488063Y-1366653D01*
X522000Y-1371121D01*
X555937Y-1366653D01*
X587561Y-1353554D01*
X614717Y-1332717D01*
X635555Y-1305561D01*
X648654Y-1273936D01*
X653122Y-1240000D01*
X648654Y-1206063D01*
X635555Y-1174439D01*
X614717Y-1147282D01*
X587561Y-1126445D01*
X555937Y-1113346D01*
X522000Y-1108878D01*
D02*
G37*
G36*
X-7198000Y-1286157D02*
X-7214778Y-1289494D01*
X-7229001Y-1298998D01*
X-7238505Y-1313222D01*
X-7241843Y-1330000D01*
X-7238505Y-1346777D01*
X-7229670Y-1360000D01*
X-7238505Y-1373222D01*
X-7241843Y-1390000D01*
X-7238505Y-1406777D01*
X-7229001Y-1421001D01*
X-7214778Y-1430505D01*
X-7198000Y-1433842D01*
X-7181222Y-1430505D01*
X-7166999Y-1421001D01*
X-7157495Y-1406777D01*
X-7154158Y-1390000D01*
X-7157495Y-1373222D01*
X-7166330Y-1360000D01*
X-7157495Y-1346777D01*
X-7154158Y-1330000D01*
X-7157495Y-1313222D01*
X-7166999Y-1298998D01*
X-7181222Y-1289494D01*
X-7198000Y-1286157D01*
D02*
G37*
G36*
X522000Y-1489878D02*
X488063Y-1494346D01*
X456439Y-1507445D01*
X429283Y-1528282D01*
X408445Y-1555439D01*
X395346Y-1587063D01*
X390878Y-1621000D01*
X395346Y-1654936D01*
X408445Y-1686561D01*
X429283Y-1713717D01*
X456439Y-1734554D01*
X488063Y-1747653D01*
X522000Y-1752121D01*
X555937Y-1747653D01*
X587561Y-1734554D01*
X614717Y-1713717D01*
X635555Y-1686561D01*
X648654Y-1654936D01*
X653122Y-1621000D01*
X648654Y-1587063D01*
X635555Y-1555439D01*
X614717Y-1528282D01*
X587561Y-1507445D01*
X555937Y-1494346D01*
X522000Y-1489878D01*
D02*
G37*
G36*
X-4068000Y-1905157D02*
X-4084778Y-1908495D01*
X-4093970Y-1914637D01*
X-4103000Y-1916967D01*
X-4112030Y-1914637D01*
X-4121222Y-1908495D01*
X-4138000Y-1905157D01*
X-4154778Y-1908495D01*
X-4169001Y-1917998D01*
X-4178505Y-1932222D01*
X-4181843Y-1949000D01*
X-4178505Y-1965777D01*
X-4171341Y-1976500D01*
Y-3098999D01*
X-4168803Y-3111758D01*
X-4161575Y-3122574D01*
X-3825987Y-3458163D01*
X-3831248Y-3470863D01*
X-4009040D01*
X-4187188Y-3292714D01*
X-4184160Y-3282729D01*
X-4182152Y-3279790D01*
X-4168999Y-3271001D01*
X-4159495Y-3256778D01*
X-4156158Y-3240000D01*
X-4159495Y-3223222D01*
X-4168999Y-3208999D01*
X-4183222Y-3199495D01*
X-4200000Y-3196158D01*
X-4216778Y-3199495D01*
X-4231001Y-3208999D01*
X-4239790Y-3222152D01*
X-4242729Y-3224160D01*
X-4252714Y-3227189D01*
X-4424119Y-3055784D01*
Y-2659000D01*
X-4427611Y-2641442D01*
X-4437557Y-2626557D01*
X-4607038Y-2457076D01*
X-4594467Y-2440692D01*
X-4584139Y-2415758D01*
X-4580616Y-2389000D01*
X-4584139Y-2362242D01*
X-4594467Y-2337308D01*
X-4610897Y-2315896D01*
X-4632308Y-2299467D01*
X-4657242Y-2289138D01*
X-4684000Y-2285616D01*
X-4710758Y-2289138D01*
X-4735692Y-2299467D01*
X-4757104Y-2315896D01*
X-4773534Y-2337308D01*
X-4783862Y-2362242D01*
X-4787385Y-2389000D01*
X-4783862Y-2415758D01*
X-4773534Y-2440692D01*
X-4757104Y-2462104D01*
X-4735692Y-2478534D01*
X-4710758Y-2488862D01*
X-4698908Y-2490422D01*
X-4689732Y-2504155D01*
X-4515882Y-2678005D01*
Y-3074789D01*
X-4512389Y-3092347D01*
X-4502443Y-3107232D01*
X-4251282Y-3358393D01*
X-4251249Y-3358475D01*
X-4250990Y-3361592D01*
X-4253590Y-3374047D01*
X-4261001Y-3378999D01*
X-4270505Y-3393222D01*
X-4273842Y-3410000D01*
X-4270505Y-3426778D01*
X-4261001Y-3441001D01*
X-4246778Y-3450505D01*
X-4230000Y-3453842D01*
X-4213222Y-3450505D01*
X-4198999Y-3441001D01*
X-4194046Y-3433590D01*
X-4178422Y-3431253D01*
X-4060488Y-3549187D01*
X-4045603Y-3559133D01*
X-4028045Y-3562626D01*
X-4007757D01*
X-3999616Y-3575326D01*
X-4001887Y-3586744D01*
X-3998550Y-3603522D01*
X-3989046Y-3617746D01*
X-3974823Y-3627250D01*
X-3958045Y-3630587D01*
X-3941267Y-3627250D01*
X-3927044Y-3617746D01*
X-3917540Y-3603522D01*
X-3914202Y-3586744D01*
X-3916474Y-3575326D01*
X-3908333Y-3562626D01*
X-2919089D01*
X-2911032Y-3572443D01*
X-2911887Y-3576744D01*
X-2908550Y-3593522D01*
X-2899046Y-3607745D01*
X-2884823Y-3617249D01*
X-2868045Y-3620587D01*
X-2851267Y-3617249D01*
X-2837044Y-3607745D01*
X-2827540Y-3593522D01*
X-2824202Y-3576744D01*
X-2827540Y-3559966D01*
X-2837044Y-3545743D01*
X-2832019Y-3533826D01*
X-2825656Y-3524303D01*
X-2822163Y-3506744D01*
X-2825656Y-3489186D01*
X-2835602Y-3474301D01*
X-2850487Y-3464355D01*
X-2868045Y-3460863D01*
X-2885603Y-3464355D01*
X-2886275Y-3464804D01*
X-2886553D01*
X-2904111Y-3468297D01*
X-2907951Y-3470863D01*
X-3088113D01*
X-3097781Y-3458163D01*
X-3096158Y-3450000D01*
X-3099495Y-3433222D01*
X-3108999Y-3418999D01*
X-3123222Y-3409495D01*
X-3140000Y-3406158D01*
X-3156778Y-3409495D01*
X-3171001Y-3418999D01*
X-3180505Y-3433222D01*
X-3183843Y-3450000D01*
X-3182219Y-3458163D01*
X-3191887Y-3470863D01*
X-3706781D01*
X-3715980Y-3458163D01*
X-3714158Y-3449000D01*
X-3717495Y-3432222D01*
X-3726999Y-3417999D01*
Y-3410001D01*
X-3717495Y-3395777D01*
X-3714158Y-3379000D01*
X-3717495Y-3362222D01*
X-3726999Y-3347998D01*
X-3741222Y-3338494D01*
X-3758000Y-3335157D01*
X-3774778Y-3338494D01*
X-3789001Y-3347998D01*
X-3798505Y-3362222D01*
X-3800357Y-3371531D01*
X-3814137Y-3375711D01*
X-4104660Y-3085189D01*
Y-1991494D01*
X-4091960Y-1984706D01*
X-4084778Y-1989505D01*
X-4068000Y-1992842D01*
X-4051222Y-1989505D01*
X-4036999Y-1980001D01*
X-4027495Y-1965777D01*
X-4024158Y-1949000D01*
X-4027495Y-1932222D01*
X-4036999Y-1917998D01*
X-4051222Y-1908495D01*
X-4068000Y-1905157D01*
D02*
G37*
G36*
X-8198000Y-1833180D02*
X-8222800Y-1836445D01*
X-8245910Y-1846018D01*
X-8265755Y-1861245D01*
X-8280982Y-1881090D01*
X-8290555Y-1904200D01*
X-8293820Y-1929000D01*
X-8290555Y-1953800D01*
X-8280982Y-1976910D01*
X-8265755Y-1996754D01*
X-8245910Y-2011982D01*
X-8222800Y-2021555D01*
X-8198000Y-2024819D01*
X-8173201Y-2021555D01*
X-8150091Y-2011982D01*
X-8130246Y-1996754D01*
X-8115018Y-1976910D01*
X-8105446Y-1953800D01*
X-8102181Y-1929000D01*
X-8105446Y-1904200D01*
X-8115018Y-1881090D01*
X-8130246Y-1861245D01*
X-8150091Y-1846018D01*
X-8173201Y-1836445D01*
X-8198000Y-1833180D01*
D02*
G37*
G36*
X-5238500Y-2074658D02*
X-5255278Y-2077995D01*
X-5269501Y-2087499D01*
X-5279005Y-2101722D01*
X-5282342Y-2118500D01*
X-5279005Y-2135278D01*
X-5271840Y-2146000D01*
Y-2562787D01*
X-5269302Y-2575546D01*
X-5262075Y-2586363D01*
X-5093341Y-2755097D01*
Y-3152500D01*
X-5100505Y-3163222D01*
X-5103342Y-3177482D01*
X-5110000Y-3176157D01*
X-5126778Y-3179495D01*
X-5141001Y-3188999D01*
X-5150505Y-3203222D01*
X-5153842Y-3220000D01*
X-5150505Y-3236778D01*
X-5141001Y-3251001D01*
X-5126778Y-3260505D01*
X-5110000Y-3263842D01*
X-5093222Y-3260505D01*
X-5078999Y-3251001D01*
X-5069495Y-3236778D01*
X-5066658Y-3222518D01*
X-5060000Y-3223842D01*
X-5043222Y-3220505D01*
X-5028999Y-3211001D01*
X-5019495Y-3196778D01*
X-5016158Y-3180000D01*
X-5019495Y-3163222D01*
X-5026659Y-3152500D01*
Y-2741287D01*
X-5029197Y-2728528D01*
X-5036425Y-2717712D01*
X-5205159Y-2548977D01*
Y-2163497D01*
X-5192459Y-2156709D01*
X-5186778Y-2160505D01*
X-5170000Y-2163843D01*
X-5153222Y-2160505D01*
X-5138999Y-2151001D01*
X-5129495Y-2136778D01*
X-5126158Y-2120000D01*
X-5129495Y-2103222D01*
X-5138999Y-2088999D01*
X-5153222Y-2079495D01*
X-5170000Y-2076158D01*
X-5186778Y-2079495D01*
X-5194240Y-2084481D01*
X-5207499Y-2087499D01*
X-5221722Y-2077995D01*
X-5238500Y-2074658D01*
D02*
G37*
G36*
X-5493300Y-2189723D02*
Y-2286300D01*
X-5396723D01*
X-5398831Y-2270284D01*
X-5409915Y-2243525D01*
X-5427547Y-2220547D01*
X-5450526Y-2202915D01*
X-5477284Y-2191831D01*
X-5493300Y-2189723D01*
D02*
G37*
G36*
X-5518700D02*
X-5534716Y-2191831D01*
X-5561475Y-2202915D01*
X-5584453Y-2220547D01*
X-5602085Y-2243525D01*
X-5613169Y-2270284D01*
X-5615277Y-2286300D01*
X-5518700D01*
Y-2189723D01*
D02*
G37*
G36*
X-3830000Y-2205158D02*
X-3846778Y-2208495D01*
X-3861001Y-2217999D01*
X-3870505Y-2232223D01*
X-3873843Y-2249000D01*
X-3870505Y-2265778D01*
X-3861001Y-2280002D01*
X-3846778Y-2289505D01*
X-3830000Y-2292843D01*
X-3813222Y-2289505D01*
X-3798999Y-2280002D01*
X-3789495Y-2265778D01*
X-3786158Y-2249000D01*
X-3789495Y-2232223D01*
X-3798999Y-2217999D01*
X-3813222Y-2208495D01*
X-3830000Y-2205158D01*
D02*
G37*
G36*
X-4010000D02*
X-4026778Y-2208495D01*
X-4041001Y-2217999D01*
X-4050505Y-2232223D01*
X-4053843Y-2249000D01*
X-4050505Y-2265778D01*
X-4041001Y-2280002D01*
X-4026778Y-2289505D01*
X-4010000Y-2292843D01*
X-3993222Y-2289505D01*
X-3978999Y-2280002D01*
X-3969495Y-2265778D01*
X-3966158Y-2249000D01*
X-3969495Y-2232223D01*
X-3978999Y-2217999D01*
X-3993222Y-2208495D01*
X-4010000Y-2205158D01*
D02*
G37*
G36*
X-3620000Y-2376158D02*
X-3636778Y-2379495D01*
X-3651001Y-2388999D01*
X-3658999D01*
X-3673222Y-2379495D01*
X-3690000Y-2376158D01*
X-3706778Y-2379495D01*
X-3721001Y-2388999D01*
X-3730505Y-2403222D01*
X-3733842Y-2420000D01*
X-3730505Y-2436778D01*
X-3721001Y-2451001D01*
X-3706778Y-2460505D01*
X-3690000Y-2463842D01*
X-3673222Y-2460505D01*
X-3658999Y-2451001D01*
X-3651001D01*
X-3636778Y-2460505D01*
X-3620000Y-2463842D01*
X-3603222Y-2460505D01*
X-3588999Y-2451001D01*
X-3579495Y-2436778D01*
X-3576158Y-2420000D01*
X-3579495Y-2403222D01*
X-3588999Y-2388999D01*
X-3603222Y-2379495D01*
X-3620000Y-2376158D01*
D02*
G37*
G36*
X-5396723Y-2311700D02*
X-5493300D01*
Y-2408277D01*
X-5477284Y-2406169D01*
X-5450526Y-2395085D01*
X-5427547Y-2377453D01*
X-5409915Y-2354475D01*
X-5398831Y-2327716D01*
X-5396723Y-2311700D01*
D02*
G37*
G36*
X-5518700D02*
X-5615277D01*
X-5613169Y-2327716D01*
X-5602085Y-2354475D01*
X-5584453Y-2377453D01*
X-5561475Y-2395085D01*
X-5534716Y-2406169D01*
X-5518700Y-2408277D01*
Y-2311700D01*
D02*
G37*
G36*
X-3310000Y-2325158D02*
X-3326778Y-2328495D01*
X-3341001Y-2337999D01*
X-3350505Y-2352223D01*
X-3353843Y-2369000D01*
X-3350505Y-2385778D01*
X-3341001Y-2400002D01*
X-3326778Y-2409505D01*
X-3310000Y-2412843D01*
X-3293223Y-2409505D01*
X-3278999Y-2400002D01*
X-3269495Y-2385778D01*
X-3266158Y-2369000D01*
X-3269495Y-2352223D01*
X-3278999Y-2337999D01*
X-3293223Y-2328495D01*
X-3310000Y-2325158D01*
D02*
G37*
G36*
X-3490000D02*
X-3506778Y-2328495D01*
X-3521001Y-2337999D01*
X-3530505Y-2352223D01*
X-3533843Y-2369000D01*
X-3530505Y-2385778D01*
X-3521001Y-2400002D01*
X-3506778Y-2409505D01*
X-3490000Y-2412843D01*
X-3473222Y-2409505D01*
X-3458999Y-2400002D01*
X-3449495Y-2385778D01*
X-3446158Y-2369000D01*
X-3449495Y-2352223D01*
X-3458999Y-2337999D01*
X-3473222Y-2328495D01*
X-3490000Y-2325158D01*
D02*
G37*
G36*
X1276000Y-2515158D02*
X1259222Y-2518495D01*
X1246000Y-2527330D01*
X1232778Y-2518495D01*
X1216000Y-2515158D01*
X1199222Y-2518495D01*
X1184999Y-2527999D01*
X1175495Y-2542222D01*
X1172157Y-2559000D01*
X1175495Y-2575778D01*
X1184999Y-2590001D01*
X1199222Y-2599505D01*
X1216000Y-2602842D01*
X1232778Y-2599505D01*
X1246000Y-2590670D01*
X1259222Y-2599505D01*
X1276000Y-2602842D01*
X1292777Y-2599505D01*
X1307001Y-2590001D01*
X1316505Y-2575778D01*
X1319842Y-2559000D01*
X1316505Y-2542222D01*
X1307001Y-2527999D01*
X1292777Y-2518495D01*
X1276000Y-2515158D01*
D02*
G37*
G36*
X-5678000Y-2666157D02*
X-5694778Y-2669495D01*
X-5709001Y-2678998D01*
X-5715944Y-2689389D01*
X-5717160Y-2689793D01*
X-5728840D01*
X-5730056Y-2689389D01*
X-5736999Y-2678998D01*
X-5751222Y-2669495D01*
X-5768000Y-2666157D01*
X-5784778Y-2669495D01*
X-5799001Y-2678998D01*
X-5801650Y-2682962D01*
X-5814350D01*
X-5816999Y-2678998D01*
X-5831222Y-2669495D01*
X-5848000Y-2666157D01*
X-5864778Y-2669495D01*
X-5879001Y-2678998D01*
X-5888505Y-2693222D01*
X-5891842Y-2710000D01*
X-5888505Y-2726777D01*
X-5879001Y-2741001D01*
X-5864778Y-2750505D01*
X-5848000Y-2753842D01*
X-5831222Y-2750505D01*
X-5816999Y-2741001D01*
X-5814350Y-2737037D01*
X-5801650D01*
X-5799001Y-2741001D01*
X-5784778Y-2750505D01*
X-5768000Y-2753842D01*
X-5751222Y-2750505D01*
X-5736999Y-2741001D01*
X-5730056Y-2730610D01*
X-5728840Y-2730207D01*
X-5717160D01*
X-5715944Y-2730610D01*
X-5709001Y-2741001D01*
X-5694778Y-2750505D01*
X-5678000Y-2753842D01*
X-5661222Y-2750505D01*
X-5646999Y-2741001D01*
X-5637495Y-2726777D01*
X-5634158Y-2710000D01*
X-5637495Y-2693222D01*
X-5646999Y-2678998D01*
X-5661222Y-2669495D01*
X-5678000Y-2666157D01*
D02*
G37*
G36*
X-4700000Y-2635158D02*
X-4716778Y-2638495D01*
X-4731001Y-2647999D01*
X-4740505Y-2662223D01*
X-4743843Y-2679000D01*
X-4740505Y-2695778D01*
X-4731001Y-2710001D01*
X-4716778Y-2719505D01*
X-4700000Y-2722843D01*
X-4683223Y-2719505D01*
X-4668999Y-2710001D01*
X-4659495Y-2695778D01*
X-4656158Y-2679000D01*
X-4659495Y-2662223D01*
X-4668999Y-2647999D01*
X-4683223Y-2638495D01*
X-4700000Y-2635158D01*
D02*
G37*
G36*
X-3680000Y-2705158D02*
X-3696778Y-2708495D01*
X-3711001Y-2717999D01*
X-3720505Y-2732223D01*
X-3723843Y-2749000D01*
X-3720505Y-2765778D01*
X-3711001Y-2780002D01*
X-3707037Y-2782650D01*
Y-2795351D01*
X-3711001Y-2797999D01*
X-3720505Y-2812223D01*
X-3723843Y-2829000D01*
X-3720505Y-2845778D01*
X-3711001Y-2860002D01*
X-3696778Y-2869506D01*
X-3680000Y-2872843D01*
X-3663223Y-2869506D01*
X-3648999Y-2860002D01*
X-3639495Y-2845778D01*
X-3636158Y-2829000D01*
X-3639495Y-2812223D01*
X-3648999Y-2797999D01*
X-3652963Y-2795351D01*
Y-2782650D01*
X-3648999Y-2780002D01*
X-3639495Y-2765778D01*
X-3636158Y-2749000D01*
X-3639495Y-2732223D01*
X-3648999Y-2717999D01*
X-3663223Y-2708495D01*
X-3680000Y-2705158D01*
D02*
G37*
G36*
X-4700000Y-2855158D02*
X-4716778Y-2858495D01*
X-4731001Y-2867999D01*
X-4740505Y-2882223D01*
X-4743843Y-2899000D01*
X-4740505Y-2915778D01*
X-4731001Y-2930002D01*
X-4716778Y-2939505D01*
X-4700000Y-2942843D01*
X-4683223Y-2939505D01*
X-4668999Y-2930002D01*
X-4659495Y-2915778D01*
X-4656158Y-2899000D01*
X-4659495Y-2882223D01*
X-4668999Y-2867999D01*
X-4683223Y-2858495D01*
X-4700000Y-2855158D01*
D02*
G37*
G36*
X-928045Y-2952902D02*
X-944823Y-2956239D01*
X-954015Y-2962382D01*
X-963045Y-2964711D01*
X-972075Y-2962382D01*
X-981267Y-2956239D01*
X-998045Y-2952902D01*
X-1014823Y-2956239D01*
X-1024015Y-2962382D01*
X-1033045Y-2964711D01*
X-1042075Y-2962382D01*
X-1051267Y-2956239D01*
X-1068045Y-2952902D01*
X-1084823Y-2956239D01*
X-1099046Y-2965743D01*
X-1108550Y-2979967D01*
X-1111888Y-2996744D01*
X-1108550Y-3013522D01*
X-1106852Y-3016064D01*
X-1114215Y-3027904D01*
X-1124000Y-3026616D01*
X-1150758Y-3030138D01*
X-1175692Y-3040467D01*
X-1197104Y-3056896D01*
X-1213534Y-3078308D01*
X-1223862Y-3103242D01*
X-1227384Y-3130000D01*
X-1223862Y-3156758D01*
X-1213534Y-3181692D01*
X-1197104Y-3203104D01*
X-1175692Y-3219534D01*
X-1150758Y-3229862D01*
X-1124000Y-3233384D01*
X-1097242Y-3229862D01*
X-1072308Y-3219534D01*
X-1050896Y-3203104D01*
X-1034467Y-3181692D01*
X-1024138Y-3156758D01*
X-1020616Y-3130000D01*
X-1024138Y-3103242D01*
X-1034467Y-3078308D01*
X-1050896Y-3056896D01*
X-1057905Y-3051519D01*
X-1054739Y-3037940D01*
X-1051267Y-3037249D01*
X-1042075Y-3031107D01*
X-1033045Y-3028777D01*
X-1024015Y-3031107D01*
X-1014823Y-3037249D01*
X-998045Y-3040587D01*
X-981267Y-3037249D01*
X-972075Y-3031107D01*
X-963045Y-3028777D01*
X-954015Y-3031107D01*
X-944823Y-3037249D01*
X-939692Y-3038270D01*
X-936526Y-3051849D01*
X-943104Y-3056896D01*
X-959534Y-3078308D01*
X-969862Y-3103242D01*
X-973384Y-3130000D01*
X-969862Y-3156758D01*
X-959534Y-3181692D01*
X-943104Y-3203104D01*
X-921692Y-3219534D01*
X-896758Y-3229862D01*
X-870000Y-3233384D01*
X-843242Y-3229862D01*
X-818308Y-3219534D01*
X-796896Y-3203104D01*
X-780467Y-3181692D01*
X-770138Y-3156758D01*
X-766616Y-3130000D01*
X-770138Y-3103242D01*
X-780467Y-3078308D01*
X-796896Y-3056896D01*
X-818308Y-3040467D01*
X-843242Y-3030138D01*
X-870000Y-3026616D01*
X-882077Y-3028206D01*
X-889440Y-3016365D01*
X-887540Y-3013522D01*
X-884202Y-2996744D01*
X-887540Y-2979967D01*
X-897044Y-2965743D01*
X-911267Y-2956239D01*
X-928045Y-2952902D01*
D02*
G37*
G36*
X-2238045D02*
X-2254823Y-2956239D01*
X-2264015Y-2962382D01*
X-2273045Y-2964711D01*
X-2282074Y-2962382D01*
X-2291267Y-2956239D01*
X-2308045Y-2952902D01*
X-2324823Y-2956239D01*
X-2334015Y-2962382D01*
X-2343045Y-2964711D01*
X-2352075Y-2962382D01*
X-2361267Y-2956239D01*
X-2378045Y-2952902D01*
X-2394823Y-2956239D01*
X-2409046Y-2965743D01*
X-2418550Y-2979967D01*
X-2421887Y-2996744D01*
X-2418550Y-3013522D01*
X-2416852Y-3016064D01*
X-2424215Y-3027904D01*
X-2434000Y-3026616D01*
X-2460758Y-3030138D01*
X-2485692Y-3040467D01*
X-2507104Y-3056896D01*
X-2523533Y-3078308D01*
X-2533862Y-3103242D01*
X-2537384Y-3130000D01*
X-2533862Y-3156758D01*
X-2523533Y-3181692D01*
X-2507104Y-3203104D01*
X-2485692Y-3219534D01*
X-2460758Y-3229862D01*
X-2434000Y-3233384D01*
X-2407242Y-3229862D01*
X-2382308Y-3219534D01*
X-2360896Y-3203104D01*
X-2344466Y-3181692D01*
X-2334138Y-3156758D01*
X-2330616Y-3130000D01*
X-2334138Y-3103242D01*
X-2344466Y-3078308D01*
X-2360896Y-3056896D01*
X-2367905Y-3051519D01*
X-2364738Y-3037940D01*
X-2361267Y-3037249D01*
X-2352075Y-3031107D01*
X-2343045Y-3028777D01*
X-2334015Y-3031107D01*
X-2324823Y-3037249D01*
X-2308045Y-3040587D01*
X-2291267Y-3037249D01*
X-2282074Y-3031107D01*
X-2273045Y-3028777D01*
X-2264015Y-3031107D01*
X-2254823Y-3037249D01*
X-2249692Y-3038270D01*
X-2246526Y-3051849D01*
X-2253104Y-3056896D01*
X-2269533Y-3078308D01*
X-2279862Y-3103242D01*
X-2283384Y-3130000D01*
X-2279862Y-3156758D01*
X-2269533Y-3181692D01*
X-2253104Y-3203104D01*
X-2231692Y-3219534D01*
X-2206758Y-3229862D01*
X-2180000Y-3233384D01*
X-2153242Y-3229862D01*
X-2128308Y-3219534D01*
X-2106896Y-3203104D01*
X-2090466Y-3181692D01*
X-2080138Y-3156758D01*
X-2076616Y-3130000D01*
X-2080138Y-3103242D01*
X-2090466Y-3078308D01*
X-2106896Y-3056896D01*
X-2128308Y-3040467D01*
X-2153242Y-3030138D01*
X-2180000Y-3026616D01*
X-2192077Y-3028206D01*
X-2199440Y-3016365D01*
X-2197540Y-3013522D01*
X-2194202Y-2996744D01*
X-2197540Y-2979967D01*
X-2207044Y-2965743D01*
X-2221267Y-2956239D01*
X-2238045Y-2952902D01*
D02*
G37*
G36*
X1614000Y-3155158D02*
X1597222Y-3158495D01*
X1582999Y-3167999D01*
X1573495Y-3182222D01*
X1570157Y-3199000D01*
X1573495Y-3215778D01*
X1582999Y-3230001D01*
X1597222Y-3239505D01*
X1614000Y-3242842D01*
X1630778Y-3239505D01*
X1645001Y-3230001D01*
X1654505Y-3215778D01*
X1657842Y-3199000D01*
X1654505Y-3182222D01*
X1645001Y-3167999D01*
X1630778Y-3158495D01*
X1614000Y-3155158D01*
D02*
G37*
G36*
X1426000D02*
X1409222Y-3158495D01*
X1394998Y-3167999D01*
X1385495Y-3182222D01*
X1382157Y-3199000D01*
X1385495Y-3215778D01*
X1394998Y-3230001D01*
X1409222Y-3239505D01*
X1426000Y-3242842D01*
X1442777Y-3239505D01*
X1457001Y-3230001D01*
X1466505Y-3215778D01*
X1469842Y-3199000D01*
X1466505Y-3182222D01*
X1457001Y-3167999D01*
X1442777Y-3158495D01*
X1426000Y-3155158D01*
D02*
G37*
G36*
X986000Y-3205157D02*
X969222Y-3208495D01*
X954999Y-3217999D01*
X945495Y-3232222D01*
X942157Y-3249000D01*
X945495Y-3265778D01*
X954999Y-3280001D01*
X969222Y-3289505D01*
X986000Y-3292842D01*
X1002778Y-3289505D01*
X1017001Y-3280001D01*
X1026505Y-3265778D01*
X1029842Y-3249000D01*
X1026505Y-3232222D01*
X1017001Y-3217999D01*
X1002778Y-3208495D01*
X986000Y-3205157D01*
D02*
G37*
G36*
X-3110000Y-3220158D02*
X-3126778Y-3223495D01*
X-3141002Y-3232999D01*
X-3150506Y-3247223D01*
X-3153843Y-3264001D01*
X-3150506Y-3280778D01*
X-3141002Y-3295002D01*
X-3126778Y-3304506D01*
X-3110000Y-3307843D01*
X-3093223Y-3304506D01*
X-3078999Y-3295002D01*
X-3069495Y-3280778D01*
X-3066158Y-3264001D01*
X-3069495Y-3247223D01*
X-3078999Y-3232999D01*
X-3093223Y-3223495D01*
X-3110000Y-3220158D01*
D02*
G37*
G36*
X-2330000Y-3345158D02*
X-2346778Y-3348495D01*
X-2361001Y-3357999D01*
X-2370505Y-3372223D01*
X-2373843Y-3389000D01*
X-2370505Y-3405778D01*
X-2361001Y-3420002D01*
X-2346778Y-3429505D01*
X-2330000Y-3432843D01*
X-2313222Y-3429505D01*
X-2298999Y-3420002D01*
X-2289495Y-3405778D01*
X-2286158Y-3389000D01*
X-2289495Y-3372223D01*
X-2298999Y-3357999D01*
X-2313222Y-3348495D01*
X-2330000Y-3345158D01*
D02*
G37*
G36*
X-1020000Y-3355157D02*
X-1036777Y-3358495D01*
X-1051001Y-3367999D01*
X-1060505Y-3382222D01*
X-1063842Y-3399000D01*
X-1060505Y-3415778D01*
X-1051001Y-3430001D01*
X-1036777Y-3439505D01*
X-1020000Y-3442842D01*
X-1003222Y-3439505D01*
X-988999Y-3430001D01*
X-979495Y-3415778D01*
X-976157Y-3399000D01*
X-979495Y-3382222D01*
X-988999Y-3367999D01*
X-1003222Y-3358495D01*
X-1020000Y-3355157D01*
D02*
G37*
G36*
X986000Y-3425157D02*
X969222Y-3428495D01*
X954999Y-3437999D01*
X945495Y-3452222D01*
X942157Y-3469000D01*
X945495Y-3485778D01*
X954999Y-3500001D01*
X969222Y-3509505D01*
X986000Y-3512842D01*
X1002778Y-3509505D01*
X1017001Y-3500001D01*
X1026505Y-3485778D01*
X1029842Y-3469000D01*
X1026505Y-3452222D01*
X1017001Y-3437999D01*
X1002778Y-3428495D01*
X986000Y-3425157D01*
D02*
G37*
G36*
X-2420000Y-3425158D02*
X-2436778Y-3428495D01*
X-2451001Y-3437999D01*
X-2460505Y-3452223D01*
X-2463843Y-3469000D01*
X-2460505Y-3485778D01*
X-2451001Y-3500002D01*
X-2436778Y-3509506D01*
X-2420000Y-3512843D01*
X-2403223Y-3509506D01*
X-2388999Y-3500002D01*
X-2379495Y-3485778D01*
X-2376158Y-3469000D01*
X-2379495Y-3452223D01*
X-2388999Y-3437999D01*
X-2403223Y-3428495D01*
X-2420000Y-3425158D01*
D02*
G37*
G36*
X-1110000Y-3435157D02*
X-1126778Y-3438495D01*
X-1141001Y-3447999D01*
X-1150505Y-3462222D01*
X-1153842Y-3479000D01*
X-1150505Y-3495778D01*
X-1141001Y-3510001D01*
X-1126778Y-3519505D01*
X-1110000Y-3522842D01*
X-1093222Y-3519505D01*
X-1078999Y-3510001D01*
X-1069495Y-3495778D01*
X-1066157Y-3479000D01*
X-1069495Y-3462222D01*
X-1078999Y-3447999D01*
X-1093222Y-3438495D01*
X-1110000Y-3435157D01*
D02*
G37*
G36*
X-730000Y-3545158D02*
X-746778Y-3548495D01*
X-761002Y-3557999D01*
X-770505Y-3572222D01*
X-773843Y-3589000D01*
X-770505Y-3605778D01*
X-761002Y-3620001D01*
X-746778Y-3629505D01*
X-730000Y-3632843D01*
X-713223Y-3629505D01*
X-698999Y-3620001D01*
X-689495Y-3605778D01*
X-686158Y-3589000D01*
X-689495Y-3572222D01*
X-698999Y-3557999D01*
X-713223Y-3548495D01*
X-730000Y-3545158D01*
D02*
G37*
G36*
X-2040000D02*
X-2056778Y-3548495D01*
X-2071001Y-3557999D01*
X-2080505Y-3572222D01*
X-2083843Y-3589000D01*
X-2080505Y-3605778D01*
X-2071001Y-3620001D01*
X-2056778Y-3629505D01*
X-2040000Y-3632843D01*
X-2023223Y-3629505D01*
X-2008999Y-3620001D01*
X-1999495Y-3605778D01*
X-1996158Y-3589000D01*
X-1999495Y-3572222D01*
X-2008999Y-3557999D01*
X-2023223Y-3548495D01*
X-2040000Y-3545158D01*
D02*
G37*
G36*
X-730000Y-3675158D02*
X-746778Y-3678495D01*
X-761002Y-3687999D01*
X-770505Y-3702223D01*
X-773843Y-3719000D01*
X-770505Y-3735778D01*
X-761002Y-3750002D01*
X-746778Y-3759506D01*
X-730000Y-3762843D01*
X-713223Y-3759506D01*
X-698999Y-3750002D01*
X-689495Y-3735778D01*
X-686158Y-3719000D01*
X-689495Y-3702223D01*
X-698999Y-3687999D01*
X-713223Y-3678495D01*
X-730000Y-3675158D01*
D02*
G37*
G36*
X-2040000D02*
X-2056778Y-3678495D01*
X-2071001Y-3687999D01*
X-2080505Y-3702223D01*
X-2083843Y-3719000D01*
X-2080505Y-3735778D01*
X-2071001Y-3750002D01*
X-2056778Y-3759506D01*
X-2040000Y-3762843D01*
X-2023223Y-3759506D01*
X-2008999Y-3750002D01*
X-1999495Y-3735778D01*
X-1996158Y-3719000D01*
X-1999495Y-3702223D01*
X-2008999Y-3687999D01*
X-2023223Y-3678495D01*
X-2040000Y-3675158D01*
D02*
G37*
G36*
X-4835500Y-2286500D02*
X-5040500D01*
Y-2491500D01*
X-4983882D01*
Y-4431000D01*
X-4980389Y-4448558D01*
X-4970443Y-4463443D01*
X-4918503Y-4515384D01*
X-4926654Y-4535063D01*
X-4931122Y-4569000D01*
X-4926654Y-4602937D01*
X-4913555Y-4634561D01*
X-4892717Y-4661717D01*
X-4865561Y-4682555D01*
X-4833937Y-4695654D01*
X-4800000Y-4700122D01*
X-4766064Y-4695654D01*
X-4734440Y-4682555D01*
X-4707283Y-4661717D01*
X-4686446Y-4634561D01*
X-4673347Y-4602937D01*
X-4668879Y-4569000D01*
X-4673347Y-4535063D01*
X-4686446Y-4503439D01*
X-4707283Y-4476283D01*
X-4734440Y-4455445D01*
X-4766064Y-4442346D01*
X-4800000Y-4437878D01*
X-4833937Y-4442346D01*
X-4853616Y-4450498D01*
X-4892119Y-4411995D01*
Y-3789517D01*
X-4885762Y-3787470D01*
X-4879419Y-3787404D01*
X-4871001Y-3800002D01*
X-4856778Y-3809505D01*
X-4840000Y-3812843D01*
X-4823223Y-3809505D01*
X-4808999Y-3800002D01*
X-4799495Y-3785778D01*
X-4796158Y-3769000D01*
X-4799495Y-3752223D01*
X-4808999Y-3737999D01*
X-4812963Y-3735350D01*
Y-3722650D01*
X-4808999Y-3720001D01*
X-4799495Y-3705778D01*
X-4796158Y-3689000D01*
X-4799495Y-3672223D01*
X-4808999Y-3657999D01*
X-4823223Y-3648495D01*
X-4840000Y-3645158D01*
X-4856778Y-3648495D01*
X-4871001Y-3657999D01*
X-4879419Y-3670596D01*
X-4885762Y-3670530D01*
X-4892119Y-3668484D01*
Y-2491500D01*
X-4835500D01*
Y-2286500D01*
D02*
G37*
G36*
X-3755001Y-3645158D02*
X-3771778Y-3648495D01*
X-3786002Y-3657999D01*
X-3795506Y-3672223D01*
X-3798843Y-3689000D01*
X-3795506Y-3705778D01*
X-3786002Y-3720002D01*
X-3782038Y-3722650D01*
Y-3735351D01*
X-3786002Y-3737999D01*
X-3795506Y-3752223D01*
X-3798843Y-3769001D01*
X-3795506Y-3785778D01*
X-3786002Y-3800002D01*
X-3771778Y-3809506D01*
X-3755001Y-3812843D01*
X-3738223Y-3809506D01*
X-3723999Y-3800002D01*
X-3714495Y-3785778D01*
X-3711158Y-3769001D01*
X-3714495Y-3752223D01*
X-3723999Y-3737999D01*
X-3727964Y-3735351D01*
Y-3722650D01*
X-3723999Y-3720002D01*
X-3714495Y-3705778D01*
X-3711158Y-3689000D01*
X-3714495Y-3672223D01*
X-3723999Y-3657999D01*
X-3738223Y-3648495D01*
X-3755001Y-3645158D01*
D02*
G37*
G36*
X1180000Y-3815158D02*
X1163222Y-3818495D01*
X1148998Y-3827999D01*
X1139495Y-3842223D01*
X1136157Y-3859000D01*
X1139495Y-3875778D01*
X1148998Y-3890002D01*
X1163222Y-3899506D01*
X1180000Y-3902843D01*
X1196777Y-3899506D01*
X1211001Y-3890002D01*
X1220505Y-3875778D01*
X1223842Y-3859000D01*
X1220505Y-3842223D01*
X1211001Y-3827999D01*
X1196777Y-3818495D01*
X1180000Y-3815158D01*
D02*
G37*
G36*
Y-3975158D02*
X1163222Y-3978495D01*
X1148998Y-3987999D01*
X1139495Y-4002223D01*
X1136157Y-4019000D01*
X1139495Y-4035778D01*
X1148998Y-4050002D01*
X1163222Y-4059505D01*
X1180000Y-4062843D01*
X1196777Y-4059505D01*
X1211001Y-4050002D01*
X1220505Y-4035778D01*
X1223842Y-4019000D01*
X1220505Y-4002223D01*
X1211001Y-3987999D01*
X1196777Y-3978495D01*
X1180000Y-3975158D01*
D02*
G37*
G36*
X1371000Y-4437878D02*
X1337063Y-4442346D01*
X1305439Y-4455445D01*
X1278283Y-4476283D01*
X1257445Y-4503439D01*
X1244346Y-4535063D01*
X1239878Y-4569000D01*
X1244346Y-4602937D01*
X1257445Y-4634561D01*
X1278283Y-4661717D01*
X1305439Y-4682555D01*
X1337063Y-4695654D01*
X1371000Y-4700122D01*
X1404936Y-4695654D01*
X1436560Y-4682555D01*
X1463717Y-4661717D01*
X1484555Y-4634561D01*
X1497654Y-4602937D01*
X1502121Y-4569000D01*
X1497654Y-4535063D01*
X1484555Y-4503439D01*
X1463717Y-4476283D01*
X1436560Y-4455445D01*
X1404936Y-4442346D01*
X1371000Y-4437878D01*
D02*
G37*
G36*
X990000D02*
X956063Y-4442346D01*
X924439Y-4455445D01*
X897283Y-4476283D01*
X876445Y-4503439D01*
X863346Y-4535063D01*
X858878Y-4569000D01*
X863346Y-4602937D01*
X876445Y-4634561D01*
X897283Y-4661717D01*
X924439Y-4682555D01*
X956063Y-4695654D01*
X990000Y-4700122D01*
X1023936Y-4695654D01*
X1055560Y-4682555D01*
X1082717Y-4661717D01*
X1103555Y-4634561D01*
X1116654Y-4602937D01*
X1121121Y-4569000D01*
X1116654Y-4535063D01*
X1103555Y-4503439D01*
X1082717Y-4476283D01*
X1055560Y-4455445D01*
X1023936Y-4442346D01*
X990000Y-4437878D01*
D02*
G37*
G36*
X441497D02*
X407560Y-4442346D01*
X375936Y-4455445D01*
X348780Y-4476283D01*
X327942Y-4503439D01*
X314843Y-4535063D01*
X310375Y-4569000D01*
X314843Y-4602937D01*
X327942Y-4634561D01*
X348780Y-4661717D01*
X375936Y-4682555D01*
X407560Y-4695654D01*
X441497Y-4700122D01*
X475434Y-4695654D01*
X507058Y-4682555D01*
X534214Y-4661717D01*
X555052Y-4634561D01*
X568151Y-4602937D01*
X572619Y-4569000D01*
X568151Y-4535063D01*
X555052Y-4503439D01*
X534214Y-4476283D01*
X507058Y-4455445D01*
X475434Y-4442346D01*
X441497Y-4437878D01*
D02*
G37*
G36*
X-489000D02*
X-522937Y-4442346D01*
X-554561Y-4455445D01*
X-581717Y-4476283D01*
X-602555Y-4503439D01*
X-615654Y-4535063D01*
X-620122Y-4569000D01*
X-615654Y-4602937D01*
X-602555Y-4634561D01*
X-581717Y-4661717D01*
X-554561Y-4682555D01*
X-522937Y-4695654D01*
X-489000Y-4700122D01*
X-455064Y-4695654D01*
X-423439Y-4682555D01*
X-396283Y-4661717D01*
X-375446Y-4634561D01*
X-362346Y-4602937D01*
X-357879Y-4569000D01*
X-362346Y-4535063D01*
X-375446Y-4503439D01*
X-396283Y-4476283D01*
X-423439Y-4455445D01*
X-455064Y-4442346D01*
X-489000Y-4437878D01*
D02*
G37*
G36*
X-870000D02*
X-903937Y-4442346D01*
X-935561Y-4455445D01*
X-962717Y-4476283D01*
X-983555Y-4503439D01*
X-996654Y-4535063D01*
X-1001122Y-4569000D01*
X-996654Y-4602937D01*
X-983555Y-4634561D01*
X-962717Y-4661717D01*
X-935561Y-4682555D01*
X-903937Y-4695654D01*
X-870000Y-4700122D01*
X-836064Y-4695654D01*
X-804439Y-4682555D01*
X-777283Y-4661717D01*
X-756446Y-4634561D01*
X-743346Y-4602937D01*
X-738879Y-4569000D01*
X-743346Y-4535063D01*
X-756446Y-4503439D01*
X-777283Y-4476283D01*
X-804439Y-4455445D01*
X-836064Y-4442346D01*
X-870000Y-4437878D01*
D02*
G37*
G36*
X-1251000D02*
X-1284937Y-4442346D01*
X-1316561Y-4455445D01*
X-1343717Y-4476283D01*
X-1364555Y-4503439D01*
X-1377654Y-4535063D01*
X-1382122Y-4569000D01*
X-1377654Y-4602937D01*
X-1364555Y-4634561D01*
X-1343717Y-4661717D01*
X-1316561Y-4682555D01*
X-1284937Y-4695654D01*
X-1251000Y-4700122D01*
X-1217064Y-4695654D01*
X-1185439Y-4682555D01*
X-1158283Y-4661717D01*
X-1137446Y-4634561D01*
X-1124346Y-4602937D01*
X-1119879Y-4569000D01*
X-1124346Y-4535063D01*
X-1137446Y-4503439D01*
X-1158283Y-4476283D01*
X-1185439Y-4455445D01*
X-1217064Y-4442346D01*
X-1251000Y-4437878D01*
D02*
G37*
G36*
X-1798000D02*
X-1831937Y-4442346D01*
X-1863561Y-4455445D01*
X-1890717Y-4476283D01*
X-1911555Y-4503439D01*
X-1924654Y-4535063D01*
X-1929122Y-4569000D01*
X-1924654Y-4602937D01*
X-1911555Y-4634561D01*
X-1890717Y-4661717D01*
X-1863561Y-4682555D01*
X-1831937Y-4695654D01*
X-1798000Y-4700122D01*
X-1764064Y-4695654D01*
X-1732440Y-4682555D01*
X-1705283Y-4661717D01*
X-1684445Y-4634561D01*
X-1671346Y-4602937D01*
X-1666879Y-4569000D01*
X-1671346Y-4535063D01*
X-1684445Y-4503439D01*
X-1705283Y-4476283D01*
X-1732440Y-4455445D01*
X-1764064Y-4442346D01*
X-1798000Y-4437878D01*
D02*
G37*
G36*
X-2179000D02*
X-2212937Y-4442346D01*
X-2244561Y-4455445D01*
X-2271717Y-4476283D01*
X-2292555Y-4503439D01*
X-2305654Y-4535063D01*
X-2310122Y-4569000D01*
X-2305654Y-4602937D01*
X-2292555Y-4634561D01*
X-2271717Y-4661717D01*
X-2244561Y-4682555D01*
X-2212937Y-4695654D01*
X-2179000Y-4700122D01*
X-2145064Y-4695654D01*
X-2113440Y-4682555D01*
X-2086283Y-4661717D01*
X-2065445Y-4634561D01*
X-2052346Y-4602937D01*
X-2047879Y-4569000D01*
X-2052346Y-4535063D01*
X-2065445Y-4503439D01*
X-2086283Y-4476283D01*
X-2113440Y-4455445D01*
X-2145064Y-4442346D01*
X-2179000Y-4437878D01*
D02*
G37*
G36*
X-2560000D02*
X-2593937Y-4442346D01*
X-2625561Y-4455445D01*
X-2652717Y-4476283D01*
X-2673555Y-4503439D01*
X-2686654Y-4535063D01*
X-2691122Y-4569000D01*
X-2686654Y-4602937D01*
X-2673555Y-4634561D01*
X-2652717Y-4661717D01*
X-2625561Y-4682555D01*
X-2593937Y-4695654D01*
X-2560000Y-4700122D01*
X-2526064Y-4695654D01*
X-2494440Y-4682555D01*
X-2467283Y-4661717D01*
X-2446445Y-4634561D01*
X-2433346Y-4602937D01*
X-2428879Y-4569000D01*
X-2433346Y-4535063D01*
X-2446445Y-4503439D01*
X-2467283Y-4476283D01*
X-2494440Y-4455445D01*
X-2526064Y-4442346D01*
X-2560000Y-4437878D01*
D02*
G37*
G36*
X-3108503D02*
X-3142440Y-4442346D01*
X-3174064Y-4455445D01*
X-3201220Y-4476283D01*
X-3222058Y-4503439D01*
X-3235157Y-4535063D01*
X-3239625Y-4569000D01*
X-3235157Y-4602937D01*
X-3222058Y-4634561D01*
X-3201220Y-4661717D01*
X-3174064Y-4682555D01*
X-3142440Y-4695654D01*
X-3108503Y-4700122D01*
X-3074566Y-4695654D01*
X-3042942Y-4682555D01*
X-3015786Y-4661717D01*
X-2994948Y-4634561D01*
X-2981849Y-4602937D01*
X-2977381Y-4569000D01*
X-2981849Y-4535063D01*
X-2994948Y-4503439D01*
X-3015786Y-4476283D01*
X-3042942Y-4455445D01*
X-3074566Y-4442346D01*
X-3108503Y-4437878D01*
D02*
G37*
G36*
X-3489503D02*
X-3523440Y-4442346D01*
X-3555064Y-4455445D01*
X-3582220Y-4476283D01*
X-3603058Y-4503439D01*
X-3616157Y-4535063D01*
X-3620625Y-4569000D01*
X-3616157Y-4602937D01*
X-3603058Y-4634561D01*
X-3582220Y-4661717D01*
X-3555064Y-4682555D01*
X-3523440Y-4695654D01*
X-3489503Y-4700122D01*
X-3455566Y-4695654D01*
X-3423942Y-4682555D01*
X-3396786Y-4661717D01*
X-3375948Y-4634561D01*
X-3362849Y-4602937D01*
X-3358381Y-4569000D01*
X-3362849Y-4535063D01*
X-3375948Y-4503439D01*
X-3396786Y-4476283D01*
X-3423942Y-4455445D01*
X-3455566Y-4442346D01*
X-3489503Y-4437878D01*
D02*
G37*
G36*
X-4038000D02*
X-4071937Y-4442346D01*
X-4103561Y-4455445D01*
X-4130717Y-4476283D01*
X-4151555Y-4503439D01*
X-4164654Y-4535063D01*
X-4169122Y-4569000D01*
X-4164654Y-4602937D01*
X-4151555Y-4634561D01*
X-4130717Y-4661717D01*
X-4103561Y-4682555D01*
X-4071937Y-4695654D01*
X-4038000Y-4700122D01*
X-4004064Y-4695654D01*
X-3972440Y-4682555D01*
X-3945283Y-4661717D01*
X-3924446Y-4634561D01*
X-3911347Y-4602937D01*
X-3906879Y-4569000D01*
X-3911347Y-4535063D01*
X-3924446Y-4503439D01*
X-3945283Y-4476283D01*
X-3972440Y-4455445D01*
X-4004064Y-4442346D01*
X-4038000Y-4437878D01*
D02*
G37*
G36*
X-4419000D02*
X-4452937Y-4442346D01*
X-4484561Y-4455445D01*
X-4511717Y-4476283D01*
X-4532555Y-4503439D01*
X-4545654Y-4535063D01*
X-4550122Y-4569000D01*
X-4545654Y-4602937D01*
X-4532555Y-4634561D01*
X-4511717Y-4661717D01*
X-4484561Y-4682555D01*
X-4452937Y-4695654D01*
X-4419000Y-4700122D01*
X-4385064Y-4695654D01*
X-4353440Y-4682555D01*
X-4326283Y-4661717D01*
X-4305446Y-4634561D01*
X-4292347Y-4602937D01*
X-4287879Y-4569000D01*
X-4292347Y-4535063D01*
X-4305446Y-4503439D01*
X-4326283Y-4476283D01*
X-4353440Y-4455445D01*
X-4385064Y-4442346D01*
X-4419000Y-4437878D01*
D02*
G37*
G36*
X1412000Y-5278129D02*
X1376714Y-5281604D01*
X1342783Y-5291897D01*
X1311513Y-5308611D01*
X1284105Y-5331105D01*
X1261611Y-5358513D01*
X1244897Y-5389783D01*
X1234604Y-5423714D01*
X1231129Y-5459000D01*
X1234604Y-5494286D01*
X1244897Y-5528216D01*
X1261611Y-5559486D01*
X1284105Y-5586895D01*
X1311513Y-5609388D01*
X1342783Y-5626103D01*
X1376714Y-5636395D01*
X1412000Y-5639871D01*
X1447286Y-5636395D01*
X1481216Y-5626103D01*
X1512486Y-5609388D01*
X1539895Y-5586895D01*
X1562388Y-5559486D01*
X1579103Y-5528216D01*
X1589395Y-5494286D01*
X1592871Y-5459000D01*
X1589395Y-5423714D01*
X1579103Y-5389783D01*
X1562388Y-5358513D01*
X1539895Y-5331105D01*
X1512486Y-5308611D01*
X1481216Y-5291897D01*
X1447286Y-5281604D01*
X1412000Y-5278129D01*
D02*
G37*
%LPD*%
G36*
X-3580201Y-1077250D02*
X-3578505Y-1085777D01*
X-3569001Y-1100001D01*
Y-1107999D01*
X-3578505Y-1122222D01*
X-3581842Y-1139000D01*
X-3581730Y-1139563D01*
X-3586572Y-1144119D01*
X-3592972Y-1148147D01*
X-3608000Y-1145157D01*
X-3624778Y-1148495D01*
X-3639001Y-1157998D01*
X-3639285Y-1158423D01*
X-3656649Y-1161550D01*
X-3661222Y-1158495D01*
X-3669749Y-1156798D01*
X-4192272Y-634276D01*
X-4198327Y-630230D01*
X-4667775Y-160782D01*
X-4665149Y-145447D01*
X-4656999Y-140001D01*
X-4650056Y-129610D01*
X-4648840Y-129206D01*
X-4637160D01*
X-4635944Y-129610D01*
X-4629001Y-140001D01*
X-4614778Y-149505D01*
X-4598000Y-152842D01*
X-4581222Y-149505D01*
X-4566999Y-140001D01*
X-4557495Y-125777D01*
X-4556191Y-119222D01*
X-4542410Y-115041D01*
X-3580201Y-1077250D01*
D02*
G37*
D37*
X-5238500Y-2562787D02*
X-5060000Y-2741287D01*
Y-3180000D02*
Y-2741287D01*
X-5238500Y-2562787D02*
Y-2118500D01*
X-3878000Y21000D02*
Y1520000D01*
X-150255Y-606744D02*
X221955D01*
X-558000Y-199000D02*
X-150255Y-606744D01*
X-6496980Y1126892D02*
Y1837112D01*
X-6497076Y1126795D02*
X-6496980Y1126892D01*
X-7478000Y1000D02*
X-6263500Y1215500D01*
X-6261800D01*
X-6258000Y1491700D02*
X-6078870Y1312570D01*
X-6258000Y1491700D02*
Y1571000D01*
X-6078870Y910296D02*
Y1312570D01*
X-7478000Y-929000D02*
Y1000D01*
X-4138000Y-3098999D02*
Y-1949000D01*
X-3760805Y-3446195D02*
X-3758000Y-3449000D01*
X-3790804Y-3446195D02*
X-3760805D01*
X-4138000Y-3098999D02*
X-3790804Y-3446195D01*
X-6078870Y910296D02*
X-6074928Y906355D01*
D38*
X-4938000Y-4431000D02*
X-4800000Y-4569000D01*
X-4938000Y-4431000D02*
Y-2389000D01*
X-4684000D02*
X-4657289Y-2415711D01*
Y-2471711D02*
X-4470000Y-2659000D01*
X-4657289Y-2471711D02*
Y-2415711D01*
X-4470000Y-3074789D02*
Y-2659000D01*
Y-3074789D02*
X-4218045Y-3326744D01*
X-4028045Y-3516744D02*
X-3958045D01*
X-2871986Y-3510686D02*
X-2868045Y-3506744D01*
X-2886553Y-3510686D02*
X-2871986D01*
X-2892611Y-3516744D02*
X-2886553Y-3510686D01*
X-3168045Y-3516744D02*
X-2892611D01*
X-3958045D02*
X-3168045D01*
X-4218045Y-3326744D02*
X-4028045Y-3516744D01*
D39*
X-4558000Y-49000D02*
X-3538000Y-1069000D01*
X-4758000Y-121009D02*
X-4219507Y-659502D01*
X-4758000Y-121009D02*
Y-119000D01*
X-4217498Y-659502D02*
X-3678000Y-1199000D01*
X-4219507Y-659502D02*
X-4217498D01*
X-1937675Y-368732D02*
Y1740675D01*
X-1938000Y1741001D02*
X-1937675Y1740675D01*
X-1718000Y-469000D02*
X-78000Y1171000D01*
Y1741000D01*
X-1937675Y-368732D02*
X-1937349Y-369057D01*
D40*
X-1926000Y-3140934D02*
X-1904434Y-3162500D01*
Y-3285566D02*
Y-3162500D01*
Y-3285566D02*
X-1543255Y-3646745D01*
Y-4840000D02*
Y-3646745D01*
X-1926000Y-3140934D02*
Y-3130000D01*
X-1380000Y-4986744D02*
X-357247D01*
X-1543255Y-4840000D02*
X-1526744D01*
X-1380000Y-4986744D01*
X-1690000D02*
X-1543255Y-4840000D01*
X-357247Y-4986744D02*
X-180252Y-4809749D01*
X-5158045Y-4716744D02*
X-4888045Y-4986744D01*
X-1690000D01*
X-180252Y-4809749D02*
X60497Y-4569000D01*
X-180252Y-3852349D02*
X-175300Y-3847397D01*
X-616000Y-3329902D02*
Y-3130000D01*
Y-3329902D02*
X-175300Y-3770602D01*
Y-3847397D02*
Y-3770602D01*
X-180252Y-4809749D02*
Y-3852349D01*
X-7678000Y-4869000D02*
X-7378000Y-4569000D01*
X-5979000D01*
X-5994866Y-2279866D02*
Y-2173566D01*
X-5808045Y-1986744D01*
Y2863256D01*
X-5578045Y3093256D01*
X-5808045Y-1986744D02*
X-4648045D01*
X1374000Y2631000D02*
Y2971211D01*
X-378045Y3093256D02*
X1251955D01*
X1374000Y2971211D01*
X-488045Y2983256D02*
X-378045Y3093256D01*
X-488045Y2633045D02*
Y2983256D01*
Y2633045D02*
X-486000Y2631000D01*
X-598045Y3093256D02*
X-488045Y2983256D01*
X-2248045Y3093256D02*
X-598045D01*
X-2346000Y2995301D02*
X-2248045Y3093256D01*
X-2346000Y2981211D02*
Y2995301D01*
X-2458045Y3093256D02*
X-2346000Y2981211D01*
Y2631000D02*
Y2981211D01*
X-4065956Y3093256D02*
X-2458045D01*
X-4207000Y2952211D02*
X-4065956Y3093256D01*
X-4207000Y2631000D02*
Y2952211D01*
X-4348045Y3093256D02*
X-4207000Y2952211D01*
X-5578045Y3093256D02*
X-4348045D01*
X-6014000Y-2820789D02*
X-5158045Y-3676744D01*
Y-4716744D02*
Y-3676744D01*
X-6014000Y-2820789D02*
Y-2299000D01*
X-4428045Y-2387045D02*
Y-2206744D01*
X-4430000Y-2389000D02*
X-4428045Y-2387045D01*
X-4648045Y-1986744D02*
X-4428045Y-2206744D01*
X-6014000Y-2299000D02*
X-5994866Y-2279866D01*
X-6658000Y-1929000D02*
X-6288000Y-2299000D01*
X-6014000D01*
D43*
X-7818045Y1433256D02*
X-7678045Y1573256D01*
X-7873545Y1467756D02*
X-7818045Y1523256D01*
X-7873545Y1407901D02*
Y1467756D01*
Y1407901D02*
X-7843400Y1377756D01*
X-7678045Y1573256D02*
X-7588045D01*
X-7765801Y1395500D02*
X-7610289D01*
X-7783545Y1377756D02*
X-7765801Y1395500D01*
X-7843400Y1377756D02*
X-7783545D01*
X-7610289Y1395500D02*
X-7608045Y1393256D01*
D45*
X-7760000Y-5640000D02*
D03*
X1590000Y1450000D02*
D03*
D46*
X-616000Y-3130000D02*
D03*
X-3430000Y1461000D02*
D03*
X-1926000Y-3130000D02*
D03*
X-4938000Y-2389000D02*
D03*
Y1461000D02*
D03*
D47*
X-1124000Y-3130000D02*
D03*
X-870000D02*
D03*
X-3176000Y1461000D02*
D03*
X-2922000D02*
D03*
X-2434000Y-3130000D02*
D03*
X-2180000D02*
D03*
X-4684000Y-2389000D02*
D03*
X-4430000D02*
D03*
X-4684000Y1461000D02*
D03*
X-4430000D02*
D03*
D48*
X993000Y2631000D02*
D03*
X1374000D02*
D03*
X63000D02*
D03*
X444000D02*
D03*
X-867000D02*
D03*
X-486000D02*
D03*
X-3658000D02*
D03*
X-3277000D02*
D03*
X-4588000D02*
D03*
X-4207000D02*
D03*
X-1797000D02*
D03*
X-1416000D02*
D03*
X-2727000D02*
D03*
X-2346000D02*
D03*
X-5518000D02*
D03*
X-5137000D02*
D03*
X-6068000D02*
D03*
X-6449000D02*
D03*
X-6998000D02*
D03*
X-7379000D02*
D03*
X522000Y-690000D02*
D03*
Y-309000D02*
D03*
Y-1621000D02*
D03*
Y-1240000D02*
D03*
X-1251000Y-4569000D02*
D03*
X-870000D02*
D03*
X-489000D02*
D03*
X-2560000D02*
D03*
X-2179000D02*
D03*
X-1798000D02*
D03*
X-5598000D02*
D03*
X-5979000D02*
D03*
X1371000D02*
D03*
X990000D02*
D03*
X441497D02*
D03*
X60497D02*
D03*
X-4800000D02*
D03*
X-4419000D02*
D03*
X-4038000D02*
D03*
X-3108503D02*
D03*
X-3489503D02*
D03*
D49*
X-7821800Y1766500D02*
D03*
Y1188500D02*
D03*
D50*
X-7771800Y1045500D02*
D03*
Y1909500D02*
D03*
D51*
X-8189800Y1045500D02*
D03*
Y1909500D02*
D03*
D52*
X-6014000Y-2299000D02*
D03*
X-5760000D02*
D03*
X-5506000D02*
D03*
D53*
X-6658000Y-1929000D02*
D03*
X-8198000D02*
D03*
X-7178000Y-4869000D02*
D03*
X-7678000D02*
D03*
D54*
X1412000Y-5459000D02*
D03*
Y3521000D02*
D03*
X-8168000D02*
D03*
Y-5459000D02*
D03*
D55*
X-3400000Y-2620000D02*
D03*
X-3300000Y-2530000D02*
D03*
X-3490000D02*
D03*
X-3770000Y980000D02*
D03*
Y1040000D02*
D03*
Y1100000D02*
D03*
X-4200000Y-3240000D02*
D03*
X-3620000Y-2420000D02*
D03*
X-3690000D02*
D03*
X-5110000Y-3220000D02*
D03*
X-5170000Y-2120000D02*
D03*
X-5060000Y-3180000D02*
D03*
X-5238500Y-2118500D02*
D03*
X-7310000Y2030000D02*
D03*
Y2080000D02*
D03*
X-4758000Y-119000D02*
D03*
X-600000Y-250000D02*
D03*
X-180000Y-120000D02*
D03*
X-120000D02*
D03*
X-610000Y-450000D02*
D03*
X-680000D02*
D03*
X-750000D02*
D03*
X-820000D02*
D03*
X0Y120000D02*
D03*
X-60000D02*
D03*
X-120000D02*
D03*
X60000D02*
D03*
X120000D02*
D03*
X180000D02*
D03*
X-180000D02*
D03*
X180000Y-120000D02*
D03*
X-60000D02*
D03*
X120000D02*
D03*
X60000D02*
D03*
X0D02*
D03*
X-1070000Y-1090000D02*
D03*
X-1250000D02*
D03*
X-314000Y-1229000D02*
D03*
Y-1309000D02*
D03*
X-534000Y-1229000D02*
D03*
Y-1309000D02*
D03*
X-754000D02*
D03*
Y-1229000D02*
D03*
X1276000Y-2559000D02*
D03*
X1216000D02*
D03*
X1614000Y-3199000D02*
D03*
X1426000D02*
D03*
X986000Y-3249000D02*
D03*
Y-3469000D02*
D03*
X1180000Y-3859000D02*
D03*
Y-4019000D02*
D03*
X-1020000Y-3399000D02*
D03*
X-1110000Y-3479000D02*
D03*
X-730000Y-3589000D02*
D03*
Y-3719000D02*
D03*
X-2040000D02*
D03*
Y-3589000D02*
D03*
X-2420000Y-3469000D02*
D03*
X-2330000Y-3389000D02*
D03*
X-3110000Y-3264001D02*
D03*
X-3680000Y-2829000D02*
D03*
Y-2749000D02*
D03*
X-3310000Y-2369000D02*
D03*
X-3490000D02*
D03*
X-3830000Y-2249000D02*
D03*
X-4010000D02*
D03*
X-4700000Y-2899000D02*
D03*
Y-2679000D02*
D03*
X-3755001Y-3689000D02*
D03*
Y-3769001D02*
D03*
X-4840000Y-3769000D02*
D03*
Y-3689000D02*
D03*
X-4130000Y1031000D02*
D03*
X-4070000Y971000D02*
D03*
X-4010000D02*
D03*
X-4130000Y1091000D02*
D03*
X-3930000Y1571000D02*
D03*
Y1791000D02*
D03*
X-3830000D02*
D03*
Y1571000D02*
D03*
X-3878000Y1520000D02*
D03*
X-5950000Y-970000D02*
D03*
X-5950001Y-1248000D02*
D03*
X41999Y2164500D02*
D03*
X-188001D02*
D03*
X-2048000Y2160000D02*
D03*
X-1818000D02*
D03*
X-2498000Y2070000D02*
D03*
X-2638000D02*
D03*
X-3128000Y2130000D02*
D03*
Y2290000D02*
D03*
X-3468000Y2210000D02*
D03*
X-3648000D02*
D03*
X-4218000D02*
D03*
X-4398000D02*
D03*
X-4518000Y2070000D02*
D03*
X-4658000D02*
D03*
X-5292000Y2132000D02*
D03*
X-5288000Y2290000D02*
D03*
X-5599000Y1831000D02*
D03*
Y1771000D02*
D03*
X-5598000Y1170000D02*
D03*
Y1230000D02*
D03*
X-8158000Y2930000D02*
D03*
X-8238000D02*
D03*
X-7898001Y2312000D02*
D03*
X-7718000Y2310000D02*
D03*
X-8218000Y2100000D02*
D03*
Y2200000D02*
D03*
X-7728001Y452000D02*
D03*
X-7728000Y730000D02*
D03*
X-7069821Y-174700D02*
D03*
X-6886321D02*
D03*
X-6794500Y-266521D02*
D03*
Y-450021D02*
D03*
X-6886321Y-541700D02*
D03*
X-7069821D02*
D03*
X-7161500Y-450021D02*
D03*
Y-266521D02*
D03*
X-6978000D02*
D03*
Y-450021D02*
D03*
X-7069821Y-358200D02*
D03*
X-6886321D02*
D03*
X-7198000Y-1390000D02*
D03*
Y-1330000D02*
D03*
X-7728000Y-1260000D02*
D03*
X-7798000D02*
D03*
X-5678000Y-2460000D02*
D03*
X-5848000D02*
D03*
X-5768000D02*
D03*
Y-2710000D02*
D03*
X-5848000D02*
D03*
X-5678000D02*
D03*
X-5888000Y-3090000D02*
D03*
X291955Y-616744D02*
D03*
X-78000Y1741000D02*
D03*
X-3108045Y2701000D02*
D03*
Y2631000D02*
D03*
Y2561000D02*
D03*
X-2896955Y2701000D02*
D03*
Y2631000D02*
D03*
Y2561000D02*
D03*
X-4756955D02*
D03*
Y2631000D02*
D03*
Y2701000D02*
D03*
X-4968045Y2561000D02*
D03*
Y2631000D02*
D03*
Y2701000D02*
D03*
X-1068045Y-2996744D02*
D03*
X-998045D02*
D03*
X-928045D02*
D03*
X-2238045D02*
D03*
X-2308045D02*
D03*
X-2378045D02*
D03*
X-2868045Y-3576744D02*
D03*
X-3168045Y-3516744D02*
D03*
X-2868045Y-3506744D02*
D03*
X-3140000Y-3450000D02*
D03*
X-3958045Y-3586744D02*
D03*
X-4230000Y-3410000D02*
D03*
X-3958045Y-3516744D02*
D03*
X-4218045Y-3326744D02*
D03*
X291955Y-556744D02*
D03*
X221955Y-606744D02*
D03*
X-558000Y-199000D02*
D03*
X-7818045Y1433256D02*
D03*
Y1523256D02*
D03*
X-7595545Y1640756D02*
D03*
X-7600545Y1325756D02*
D03*
X-7608045Y1393256D02*
D03*
X-7588045Y1573256D02*
D03*
X-1938000Y1741001D02*
D03*
X-6571704Y1835817D02*
D03*
X-6571800Y1125500D02*
D03*
X-6497076Y1126795D02*
D03*
X-6496980Y1837112D02*
D03*
X-6211800Y1165500D02*
D03*
X-6261800Y1215500D02*
D03*
X-7408000Y-929000D02*
D03*
X-7478000D02*
D03*
X-3608000Y-1189000D02*
D03*
X-3538000Y-1139000D02*
D03*
X-4688000Y-109000D02*
D03*
X-3678000Y-1199000D02*
D03*
X-4598000Y-109000D02*
D03*
X-3538000Y-1069000D02*
D03*
X-4558000Y-49000D02*
D03*
X-1748000Y-409000D02*
D03*
X-1868000Y-369000D02*
D03*
X-1937349Y-369057D02*
D03*
X-1868000Y1741000D02*
D03*
X-8000D02*
D03*
X-1718000Y-469000D02*
D03*
X-3758000Y-3379000D02*
D03*
X-4068000Y-1949000D02*
D03*
X-4138000D02*
D03*
X-3758000Y-3449000D02*
D03*
X-3809000Y22000D02*
D03*
X-3878000Y21000D02*
D03*
X-6074928Y906355D02*
D03*
X-6142273Y906385D02*
D03*
X-6188000Y1571000D02*
D03*
X-6258000D02*
D03*
D56*
X982000Y1691000D02*
D03*
X1232000Y1191000D02*
D03*
X982000Y691000D02*
D03*
X1232000Y191000D02*
D03*
X982000Y-309000D02*
D03*
X1232000Y-809000D02*
D03*
X982000Y-1309000D02*
D03*
X1232000Y-1809000D02*
D03*
X982000Y-2309000D02*
D03*
Y-4309000D02*
D03*
X1232000Y-4809000D02*
D03*
X982000Y-5309000D02*
D03*
X732000Y2191000D02*
D03*
X482000Y1691000D02*
D03*
X732000Y1191000D02*
D03*
X482000Y691000D02*
D03*
X732000Y191000D02*
D03*
Y-1809000D02*
D03*
X482000Y-2309000D02*
D03*
Y-3309000D02*
D03*
X732000Y-3809000D02*
D03*
X482000Y-4309000D02*
D03*
X732000Y-4809000D02*
D03*
X482000Y-5309000D02*
D03*
X232000Y2191000D02*
D03*
Y1191000D02*
D03*
X-18000Y691000D02*
D03*
X232000Y-1809000D02*
D03*
X-18000Y-2309000D02*
D03*
Y-3309000D02*
D03*
X232000Y-3809000D02*
D03*
X-18000Y-4309000D02*
D03*
X232000Y-4809000D02*
D03*
X-18000Y-5309000D02*
D03*
X-268000Y2191000D02*
D03*
X-518000Y1691000D02*
D03*
X-268000Y1191000D02*
D03*
Y191000D02*
D03*
Y-1809000D02*
D03*
Y-3809000D02*
D03*
X-518000Y-4309000D02*
D03*
Y-5309000D02*
D03*
X-1018000Y2691000D02*
D03*
Y1691000D02*
D03*
X-768000Y1191000D02*
D03*
X-1018000Y691000D02*
D03*
X-768000Y191000D02*
D03*
X-1018000Y-309000D02*
D03*
Y-1309000D02*
D03*
Y-2309000D02*
D03*
X-768000Y-2809000D02*
D03*
Y-3809000D02*
D03*
Y-4809000D02*
D03*
X-1018000Y-5309000D02*
D03*
X-1518000Y1691000D02*
D03*
X-1268000Y1191000D02*
D03*
X-1518000Y691000D02*
D03*
X-1268000Y191000D02*
D03*
Y-809000D02*
D03*
X-1518000Y-2309000D02*
D03*
X-1268000Y-2809000D02*
D03*
X-1518000Y-3309000D02*
D03*
X-1268000Y-3809000D02*
D03*
Y-4809000D02*
D03*
X-1518000Y-5309000D02*
D03*
X-2018000Y2691000D02*
D03*
Y1691000D02*
D03*
X-1768000Y1191000D02*
D03*
X-2018000Y691000D02*
D03*
X-1768000Y191000D02*
D03*
X-2018000Y-1309000D02*
D03*
X-1768000Y-1809000D02*
D03*
X-2018000Y-2309000D02*
D03*
X-1768000Y-2809000D02*
D03*
X-2018000Y-3309000D02*
D03*
Y-4309000D02*
D03*
X-1768000Y-4809000D02*
D03*
X-2018000Y-5309000D02*
D03*
X-2518000Y2691000D02*
D03*
X-2268000Y2191000D02*
D03*
X-2518000Y1691000D02*
D03*
X-2268000Y1191000D02*
D03*
X-2518000Y691000D02*
D03*
Y-1309000D02*
D03*
X-2268000Y-1809000D02*
D03*
Y-2809000D02*
D03*
Y-4809000D02*
D03*
X-2518000Y-5309000D02*
D03*
X-3018000Y2691000D02*
D03*
Y1691000D02*
D03*
X-2768000Y1191000D02*
D03*
X-3018000Y691000D02*
D03*
Y-1309000D02*
D03*
X-2768000Y-1809000D02*
D03*
X-3018000Y-2309000D02*
D03*
Y-4309000D02*
D03*
Y-5309000D02*
D03*
X-3518000Y1691000D02*
D03*
X-3268000Y1191000D02*
D03*
X-3518000Y691000D02*
D03*
X-3268000Y-1809000D02*
D03*
Y-4809000D02*
D03*
X-3518000Y-5309000D02*
D03*
X-4018000Y2691000D02*
D03*
Y691000D02*
D03*
Y-1309000D02*
D03*
X-3768000Y-2809000D02*
D03*
X-4018000Y-4309000D02*
D03*
X-3768000Y-4809000D02*
D03*
X-4018000Y-5309000D02*
D03*
X-4268000Y3191000D02*
D03*
X-4518000Y691000D02*
D03*
Y-1309000D02*
D03*
Y-4309000D02*
D03*
X-4268000Y-4809000D02*
D03*
X-4518000Y-5309000D02*
D03*
X-4768000Y1191000D02*
D03*
X-5018000Y691000D02*
D03*
Y-1309000D02*
D03*
X-4768000Y-4809000D02*
D03*
X-5018000Y-5309000D02*
D03*
X-5518000Y1691000D02*
D03*
X-5268000Y1191000D02*
D03*
X-5518000Y-1309000D02*
D03*
X-5268000Y-2809000D02*
D03*
Y-3809000D02*
D03*
Y-4809000D02*
D03*
X-5768000Y3191000D02*
D03*
Y-2809000D02*
D03*
X-6018000Y-3309000D02*
D03*
X-6268000Y3191000D02*
D03*
Y2191000D02*
D03*
X-6518000Y-309000D02*
D03*
Y-1309000D02*
D03*
Y-2309000D02*
D03*
X-6268000Y-2809000D02*
D03*
X-6518000Y-3309000D02*
D03*
X-6768000Y3191000D02*
D03*
Y2191000D02*
D03*
X-7018000Y1691000D02*
D03*
Y-1309000D02*
D03*
X-6768000Y-1809000D02*
D03*
X-7018000Y-2309000D02*
D03*
X-6768000Y-2809000D02*
D03*
X-7018000Y-3309000D02*
D03*
X-7268000Y3191000D02*
D03*
Y-809000D02*
D03*
Y-1809000D02*
D03*
X-7518000Y-2309000D02*
D03*
X-7268000Y-2809000D02*
D03*
X-7518000Y-3309000D02*
D03*
X-7768000Y3191000D02*
D03*
Y191000D02*
D03*
Y-809000D02*
D03*
X-8018000Y-1309000D02*
D03*
X-7768000Y-1809000D02*
D03*
X-8018000Y-2309000D02*
D03*
X-7768000Y-2809000D02*
D03*
X-8018000Y-3309000D02*
D03*
X-774000Y-559000D02*
D03*
X-614000Y-759000D02*
D03*
X-774000D02*
D03*
X-614000Y-559000D02*
D03*
X-694000Y-659000D02*
D03*
D57*
X-5600000Y-4571000D02*
X-5598000Y-4569000D01*
X-5600000Y-4760000D02*
Y-4571000D01*
X-7178000Y-4869000D02*
X-5709000D01*
X-5600000Y-4760000D01*
%TF.MD5,f9509e75f2719c0fb822d17ed38a9492*%
M02*
